<svg id="图层_1" data-name="图层 1" xmlns="http://www.w3.org/2000/svg" xmlns:xlink="http://www.w3.org/1999/xlink" viewBox="0 0 800 800"><defs><style>.cls-1{fill:#372d21;}.cls-2{fill:url(#未命名的渐变_7);}</style><linearGradient id="未命名的渐变_7" x1="580.47" y1="301.93" x2="640.27" y2="408.18" gradientUnits="userSpaceOnUse"><stop offset="0" stop-color="#dfcb98"/><stop offset="1" stop-color="#a37c3b"/></linearGradient></defs><title>未标题-1</title><path class="cls-1" d="M336.57,503.1l-1,4.71h-8.27c0-3,0-6.12,0-9.52h4.9l.43,3.21H334v-7.78h-1.4l-.47,3.31h-4.86c0-3.14,0-6.15,0-9.09h7.62l1,4.57h1.63l-.1-5.92H320.61v1.11l3,.33c.05,3,.05,6.06.05,9.07v1.56c0,3.06,0,6.09-.05,9.06l-3,.34v1.1h17.48l.1-6.06Z"/><path class="cls-1" d="M376.92,486.59v1.19l3.17.37L374.74,505l-5.82-16.89,3.28-.32v-1.19h-9.56v1.11l2.45.27,7.81,21.37h1.74l7.14-21.27,2.79-.44v-1Z"/><path class="cls-1" d="M425.53,503.1l-1,4.71h-8.27c0-3,0-6.12,0-9.52h4.9l.43,3.21H423v-7.78h-1.41l-.46,3.31h-4.87c0-3.14,0-6.15,0-9.09h7.62l1,4.57h1.62l-.09-5.92H409.57v1.11l3,.33c.07,3,.07,6.06.07,9.07v1.56c0,3.06,0,6.09-.07,9.06l-3,.34v1.1h17.49l.09-6.06Z"/><path class="cls-1" d="M467.13,486.59v1.11l3.77.45.06,15.47-12.25-17H453v1.11l2.36.3.44.56-.13,19.06-2.82.44v1.1h8.08v-1.1l-3.73-.46-.09-17.18,13.62,18.92h1.6l.09-21.22,2.81-.42v-1.11Z"/><path class="cls-1" d="M519.45,486.59H500.62l-.25,6.13H502l1.13-4.78h5c.09,3.06.09,6.12.09,9.16v1.56c0,3.06,0,6.09-.09,9.06l-3.37.34v1.1h10.44v-1.1l-3.37-.34c-.05-3-.05-6.07-.05-9.06V497.1c0-3.13,0-6.16.05-9.16h5l1.13,4.78h1.65Z"/><path class="cls-1" d="M553.74,496.27l-1.38-.61c-2.36-1-3.68-2.18-3.68-4.32,0-2.54,1.9-3.86,4.62-3.86a5.06,5.06,0,0,1,2.58.59l1,4.28h1.72l.19-4.53a9.34,9.34,0,0,0-5.64-1.78c-4.4,0-7.69,2.27-7.69,6.25,0,3.39,2.24,5.36,5.89,6.88l1.31.59c2.91,1.13,4,2.23,4,4.37,0,2.67-2.06,4.15-5.24,4.15a6.93,6.93,0,0,1-3.46-.77L547,503h-1.68l-.18,4.88a13.16,13.16,0,0,0,6.65,1.8c5,0,8.17-2.54,8.17-6.49C560,500,558.26,498.11,553.74,496.27Z"/><path class="cls-2" d="M598.27,356c2.6-.51,5.19-1,7.52-2.46a9.19,9.19,0,0,0,4-5.68c.64-2.52.84-5.15,1.25-7.73a11.28,11.28,0,0,1,.39-1.34c.12,0,.93,4.37,1.36,6.49,1.1,5.41,2.54,8.73,9.47,10a33.77,33.77,0,0,1,5.56,1.35,14.11,14.11,0,0,1-1.4.32,27.13,27.13,0,0,0-8.71,2.68,7.85,7.85,0,0,0-4.18,5.38c-.66,2.78-1.84,8.81-2,9.21-.23-.38-1.18-5.53-1.68-7.89-.78-3.68-2.5-6.67-6.48-7.66-2.54-.63-5.1-1.15-7.65-1.72-.31-.08-.64-.13-1-.2A27.42,27.42,0,0,1,598.27,356Z"/><path class="cls-1" d="M463.17,383.6a6.37,6.37,0,0,1-8.13,7.47c-2.51-.62-5.14-4.17-4.86-6.6.36-3.06,1.77-5.22,4.87-6.16C458,377.42,462.54,379.68,463.17,383.6Z"/><path class="cls-1" d="M670.94,418.69a20.39,20.39,0,0,0-11.74-6.63,29.56,29.56,0,0,0-16.35,1.83,39.26,39.26,0,0,0-11.36,7.3c-4.94,4.33-9.53,9.08-14.14,13.76-3.6,3.68-6.9,7.65-11.94,9.66-2.83,1.13-5.7,1-6.39-3.49a23,23,0,0,1-.06-7.71c.53-2.61.87-5.28,1.52-7.83.76-3.15,1.64-6.22,2.6-9.25s1.91-5.87,2.89-8.78c1.37-3.62,2.79-7.23,4.15-10.85l4.17-11.21c.32-.94.48-2,.76-3.08h-8.42a3.49,3.49,0,0,0-3.48,2.14c-.88,2.06-1.64,4.14-2.41,6.22-1.51,4-3,8-4.47,12-1.27,3.44-2.36,7-3.57,10.5a87.76,87.76,0,0,1-3.32,10,121.82,121.82,0,0,1-12.27,21.34,15.69,15.69,0,0,1-6,5.46,3.64,3.64,0,0,1-4.5-1.48,12.68,12.68,0,0,1-1.62-3.14c-.68-2.68-1.37-5.41-1.8-8.07-.52-3.56-.69-7.06-1.14-10.62-.28-2.18-.78-4.38-1.11-6.58a1.85,1.85,0,0,1,.17-1.29c2.42-4.45,4.75-9,7.3-13.36s5.07-8.83,9.07-12.1c2.2-1.77,4.27-4.09,8.37-2.24.46.18,1.51-.19,1.54-.54a2.34,2.34,0,0,0-1.21-2.9,7.47,7.47,0,0,0-3.84-.71,12,12,0,0,0-7.22,3.9,44.71,44.71,0,0,0-7.38,9.91c-2,3.74-4.25,7.29-6.37,10.91-.39.66-.78,1.25-1.18,1.84-.71-3.32-1.25-6.46-3-9.61-3.14-5.64-8.49-7.24-12.92-5.33a13.65,13.65,0,0,0-6.71,6.63c-2,3.74-3.86,7.66-5.64,11.57-2.32,5.05-4.65,10.14-6.78,15.31s-4.47,10.43-7.61,15.12c-1.56,2.42-3,4.93-5.72,6.27a4.29,4.29,0,0,1-3.1.43c-1.14-.29-1.54-1.55-1.75-2.68-.64-3.85.37-7.17,1.38-10.48,1.26-4,2.67-7.95,4.07-11.94s2.88-7.82,4.1-11.8c1.07-3.31,1.86-6.81.71-10.72-1.81-6.29-7.06-8.31-12.23-6.77-3.21,1-5.46,3.33-7.67,5.58A83.07,83.07,0,0,0,484.72,423c-.29.54-.72,1-1.06,1.56a59.48,59.48,0,0,1,2.06-8c1.29-4.45,2.06-7.93,3.83-13.47.49-1.53-.26-2.14-1.91-2.14s-3.35.12-5.13,0a2.58,2.58,0,0,0-3,2,84.15,84.15,0,0,1-7.85,16.06c-3,4.68-5.69,9.49-8.58,14.23-3.86,6.35-7.8,12.69-13.26,17.79-1.32,1.26-2.75,2.48-5,2.37a2.12,2.12,0,0,1-1.93-1.19c-1.37-1.83-1.08-3.61-.93-5.26a56.72,56.72,0,0,1,1.5-8.37c1-3.81,2.08-7.47,3.24-11.16,1.52-4.26,3.15-8.46,4.79-12.68,1.56-4,3.24-8,4.86-12a1.21,1.21,0,0,0,.13-.56,1.25,1.25,0,0,0-1-1.23,1.9,1.9,0,0,0-.4,0c-2.54,0-5.15,0-7.71.24a2.61,2.61,0,0,0-2.06,1.36c-2,4.75-3.94,9.61-5.94,14.35-1.44,3.51-2.68,7.12-4.41,10.38-2.78,5-5.73,9.9-8.9,14.64-3.35,5.05-6.88,10-12.79,12.7-1.3.53-2.55,1.07-4.18-.12a6,6,0,0,1-2.22-4.51c.29-2.37.42-4.86.9-7.18a62.86,62.86,0,0,1,2-8.12c1.09-3.49,2.33-6.88,3.57-10.26,1.15-3.2,2.39-6.34,3.67-9.54,1.16-3,2.37-5.91,3.63-9a1.28,1.28,0,0,0-1-1.75,28.52,28.52,0,0,0-3.17-.31c-2.7-.17-5.41-.35-6.44,2.14-.81-1.47-1.41-3.26-2.62-4.63a9.56,9.56,0,0,0-9.76-3.32,36.76,36.76,0,0,0-9.89,3.69,32.83,32.83,0,0,0-9.86,8.41,62.87,62.87,0,0,0-11.36,21.18c-1.48,4.62-2.57,9.43-4.94,13.51-3.31,5.75-6.32,11.68-9.77,17.32-1.89,3.08-4,6.17-7.6,7.65-1.78.77-2.93.19-3.8-1.84-1-2.3-3-7.94-1.54-20.51.4-3.53,1.13-7,1.75-10.44.41-2.55.77-5.11,1.32-7.59.83-3.62,1.66-7.24,2.67-10.8a14.78,14.78,0,0,1,2.06-5c6.22-7.7,12.73-15.18,18.83-23a233,233,0,0,0,22.58-34c4-7.66,7.9-15.37,9.64-24.2.66-3.38,1-6.77-.69-10.5a7.64,7.64,0,0,0-6.32-4.5c-4.31-.19-7.28,1.89-10,4.14a56.18,56.18,0,0,0-11,11.87c-2.93,4.26-5.8,8.54-8.46,13-2.11,3.43-4,7.1-5.86,10.79-2,4.14-3.88,8.36-5.75,12.57-1.24,2.85-2.43,5.69-3.48,8.6-1.24,3.31-2.43,6.7-3.54,10.08-1.4,4-2.77,8-4,12-1,3.14-1.89,6.28-2.7,9.42-.93,3.45-1.79,6.88-2.73,10.26a30.29,30.29,0,0,1-1.74,6.06c-.52,1.06-1.12,2.07-1.72,3.08l-.26.41L309.93,456.6l-15.18,21c-3.75,5.58-8.45,10.38-12.84,15.54-12.63,14.84-33.18,19.38-38.86,20a37.19,37.19,0,0,1-13.84-1.42,35.72,35.72,0,0,1-13.27-6.88c-7.87-6.35-12.05-14.41-14.92-23-.48-1.54-.78-3.15-1.14-4.68a72.45,72.45,0,0,1-1.66-14.59,58.44,58.44,0,0,1,.21-7.84c.6-4.09,1.32-8.17,2.25-12.1a103.65,103.65,0,0,1,3.7-13,104.75,104.75,0,0,1,8.84-18.27,106.74,106.74,0,0,1,16.44-21.22c3.73-3.62,7.48-7.18,11.53-10.44a3.47,3.47,0,0,1,.37-.3l-.46.34c1-.81,2-1.61,3.07-2.37.46-.33.9-.67,1.37-1l.66-.48c.42-.3.84-.6,1.26-.88,2.14-1.54,4.36-3,6.6-4.33,1-.58,2-1.17,3-1.72,3.06-1.59,6.29-3,9.45-4.5a2.81,2.81,0,0,1,.7-.29.28.28,0,0,1,.27-.12,4.22,4.22,0,0,1,2.7-.42c.11,0,.19.06.32.06a57.6,57.6,0,0,0,12,1.84,14.93,14.93,0,0,0,7.58-1.16.82.82,0,0,0,.19-.09c2.35-1.61.1-4.21-.72-4.68a20.46,20.46,0,0,0-12.34-2.32c-2.37.24-4.68.55-7,.95-2.68.48-5-.77-7.35-2.37A17.82,17.82,0,0,1,255.66,345l0,0-.06-.31a30.66,30.66,0,0,1-.7-4,3.17,3.17,0,0,1,.3-2.32c.43-.71,1.36-.81,2.81-.64,10.41,1.42,20.5,1.65,30.17-.12a80.1,80.1,0,0,0,20.75-6.41c9-4.39,16.75-10.15,22.59-18,3.72-5,6.28-10.62,6.06-17.43-.25-8.54-6.3-14.95-15.5-16.31a57.41,57.41,0,0,0-16.61,0c-8,1.07-15.08,4-22,7.47-9.41,4.68-17.91,10.32-24.95,17.79s-13.06,15.37-14.42,26.45c-.2,1.19-1,1.83-2.62,1.48-6.06-1.3-12.06-2.43-18.15-3.85l-2.48-.38-2.1-.33-5.92-.9-3.83-.64-1.91-.3c-12-1.13-23.45-.6-34.23,2.55-8.31,2.48-16,5.81-22.6,10.74-10.76,8.06-19.66,17.84-24.15,31.24a48.82,48.82,0,0,0-2.73,18.5,31.56,31.56,0,0,0,6.86,18.15,26.18,26.18,0,0,0,15.62,9.85,3.66,3.66,0,0,0,4.3-1.91,18.76,18.76,0,0,1-12.08-3.49c-5.6-4-8.25-9.31-9.89-15.06a32,32,0,0,1-1.08-8.23,49.81,49.81,0,0,1,1.42-11.94,56.53,56.53,0,0,1,14.12-24.6,74.9,74.9,0,0,1,39.63-22.3c9.37-2,19.48-2,29.85-.42l6.78,1,1.76.25h.05a14.16,14.16,0,0,1,1.55.31c7.36,1.53,14.29,3.08,21.58,4.62h.07a25.32,25.32,0,0,0,.38,4.16,4.28,4.28,0,0,0,.12.58,2.88,2.88,0,0,0,.11.42c0,.06,0,.14,0,.2l.09.21.09.41c.12.48.29,1,.38,1.38a17.09,17.09,0,0,0,1.68,4,28.91,28.91,0,0,0,8.41,9.19c1.94,1.42,4,2.61,6.2,4-1.52.6-2.36.83-3.22,1.19s-1.53.59-2.35.88l-.29.12a4.09,4.09,0,0,0-.59.19,91,91,0,0,0-10.81,4c-.85.43-1.76.84-2.61,1.31-1.55.72-3,1.54-4.51,2.32-2.31,1.24-4.55,2.61-6.79,4-.35.24-.71.47-1.08.7a100.13,100.13,0,0,0-12.07,8.85,149.18,149.18,0,0,0-12.23,12.28,69.94,69.94,0,0,0-10.62,14.88c-2,3.86-4,7.7-5.65,11.73a126.93,126.93,0,0,0-4,12,78.63,78.63,0,0,0-1.77,9c-.5,3.2-.81,6.52-1.06,9.84a36.14,36.14,0,0,0,.21,5.75c.3,3.62.48,7.24,1.1,10.92a57.73,57.73,0,0,0,5.31,16.31,42.53,42.53,0,0,0,3.68,6.22c2.15,2.85,4.49,5.51,6.81,8.19a44,44,0,0,0,9.75,8,64.88,64.88,0,0,0,11.9,5.89,57.77,57.77,0,0,0,13.63,3,44.78,44.78,0,0,0,17.4-1.42,77.62,77.62,0,0,0,8.39-2.73,83,83,0,0,0,11.23-5.76,82.11,82.11,0,0,0,14.92-13c6.89-7.4,12.57-15.71,18.21-24.13,3.93-5.81,8-11.62,12-17.37,3.7-5.33,7.41-10.62,11.09-16,1-1.48,2-3.08,3.2-4.92.16.71-.33,4.75-.44,6.58-.34,3.44-.75,6.88-.8,10.38-.12,7,1.36,14.65,3.88,18.38,3.48,5.05,9.63,7,13.88,3.86a24.85,24.85,0,0,0,6.71-7.41c2.56-4.33,5-8.66,7.41-13.11,1.17-2.13,2.18-4.44,3.2-6.7.42,1.06.17,2,.55,2.9a37.73,37.73,0,0,0,3.57,7.72,9.69,9.69,0,0,0,7.84,4.43,10.5,10.5,0,0,0,6.69-2.06c5-3.44,8.51-8.13,11.54-13.23,1.41-2.37,2.75-4.74,4.11-7.11a1.66,1.66,0,0,1,.44,1.42c-.83,5.46-.31,10.2,1.51,13.7,1.67,3.15,5.22,5.93,8.63,6.28a11,11,0,0,0,8.52-2.84c5.55-4.74,9.62-10.8,13.33-17.08.93-1.6,1.94-3.15,2.88-4.68a7.17,7.17,0,0,1,.09,2.42c-.18,2.32-.29,4.69-.44,7.06a13.82,13.82,0,0,0,2.48,9.26,9.56,9.56,0,0,0,4.46,3.37c3.74,1.31,6.66.3,9.29-1.42,4-2.79,6.66-6.82,9.37-10.79,2.47-3.68,4.79-7.48,7.06-11.27,1.9-3,8.52-13.22,8.81-13.22-3.71,11.91-7.5,23.83-11.34,35.94h8c2.66,0,2.84-2.85,3.07-3.45,1.42-3.78,2.74-7.59,4.25-11.33a85.89,85.89,0,0,1,4.47-10.43,151.59,151.59,0,0,1,8.72-14.12c2.72-3.85,5.3-7.88,9.07-10.79a9.77,9.77,0,0,1,5.61-2.43c1.49,0,2.2.53,2.35,2A10.89,10.89,0,0,1,509,408c-.93,3-1.9,5.94-2.95,8.84-1.37,3.8-2.91,7.47-4.23,11.21-.89,2.55-1.6,5.15-2.3,7.76a43.43,43.43,0,0,0-.88,8.78,15.75,15.75,0,0,0,2.49,8.25,10.2,10.2,0,0,0,3.45,3.09,8.31,8.31,0,0,0,9.3-.54c3.82-2.73,6.3-6.64,8.24-10.8,3.4-7.11,6.46-14.41,9.67-21.59,2.2-4.85,4.23-9.71,6.71-14.34A34.88,34.88,0,0,1,544,401.8c1.78-1.77,4-.72,4.81,2.31.87,3.5,1.31,7,1.89,10.5.47,3.08.83,6.17,1.11,9.19a4.79,4.79,0,0,1-.27,2.44c-2.24,3.84-4.43,7.76-7,11.38-5,7.23-10.7,13.86-16.42,20.58-7.07,8.28-18.46,12.61-18.46,12.8a16.91,16.91,0,0,0,1.84.25,15.06,15.06,0,0,0,6.41-1.79,35.35,35.35,0,0,0,10.17-7c4.36-4.74,8.7-9.55,12.76-14.59,3.91-4.86,7.69-9.84,10.38-15.65a11.09,11.09,0,0,1,1.06-1.6c.69,2.19,1,4.13,1.48,6.16,1,4.62,2.2,9.25,5.84,13.22,3.18,3.49,7.26,5,11.06,3.49a18.77,18.77,0,0,0,8.48-7,83.38,83.38,0,0,0,9-15.18c.48-1.08,1.09-2,1.62-3a29.8,29.8,0,0,1,0,4.63,17.63,17.63,0,0,0,2.42,10.19c2.52,4.27,8.15,6.23,11.82,5.23a24.21,24.21,0,0,0,11-6.59c3.47-3.49,6.77-7.18,10.16-10.74,4.87-5.1,10-9.9,16.66-13.09a28.2,28.2,0,0,1,13.24-3.52,19.39,19.39,0,0,1,12.51,4.33,19.19,19.19,0,0,1,7.14,11.93l.61,2.53a.57.57,0,0,0,.65.32c.56-.2.64-.58.6-1.49A21.13,21.13,0,0,0,670.94,418.69ZM347.87,405.12c1.78-5.4,3.36-10.85,5.27-16.19,2.42-6.7,4.91-13.4,7.68-19.93,2.85-6.94,5.82-13.81,9.09-20.46,3.07-6.22,6.2-12.44,10.6-17.78,2.21-2.73,4.35-5.58,6.72-8.19,1.09-1.19,2.41-2.37,4.75-1.72a3.8,3.8,0,0,1,2.66,2.49,13.63,13.63,0,0,1,.35,7.94c-.76,2.68-1.15,5.58-2.15,8.19A109,109,0,0,1,387.75,351c-2,4-4.23,7.89-6.55,11.75-1.79,3-3.71,6.05-5.77,8.89-4.27,6.17-8.55,12.28-13.11,18.22s-15,18.2-15.13,18.2C347.43,407.07,347.61,406.07,347.87,405.12ZM256,333.23c2.77-8.83,9.81-17.88,16.2-24.18,9.14-8.95,19.15-17,31.13-22.59,5.08-2.38,10.46-4.28,16.77-4.16,9.75.13,15.93,7.59,14.44,16.78,0,.07,0,.12-.08.18-1.8,10.68-8.61,17.44-16.36,23.43-6.85,5.27-15.14,8.66-23.84,11-9.87,2.73-20.55,3-31.53,2.13-1.35-.1-3.63-.3-5.27-.46A1.69,1.69,0,0,1,256,333.23Zm146.33,90.45a104.29,104.29,0,0,1-5.94,11.81,141.09,141.09,0,0,1-9.67,14.34,27.68,27.68,0,0,1-6.33,5.46c-2.39,1.55-4.89.95-5.67-3l-.21-.89a17.75,17.75,0,0,1,.3-9.78c.59-2,.8-4.22,1.48-6.16,1.29-3.87,2.8-7.6,4.32-11.27a58.27,58.27,0,0,1,9.95-16.31,50,50,0,0,1,7.09-6.52c2-1.61,5.25-1.14,7.22.7A4.59,4.59,0,0,1,406,404a13.69,13.69,0,0,1,0,9.61A92,92,0,0,1,402.33,423.68Z"/><path class="cls-1" d="M287.45,362c-.37-.21-.76-.44-1.15-.63a2.57,2.57,0,0,0-.41-.19c-.26-.12-.78-.29-.78-.29a9,9,0,0,0-6.72.17,5.41,5.41,0,0,0-1.49,1c1.22.13,2.49.24,3.7.31a46.67,46.67,0,0,0,6.88-.18C287.68,362.14,287.45,362,287.45,362Z"/></svg>