<?xml version="1.0" encoding="UTF-8"?>
<svg xmlns="http://www.w3.org/2000/svg" width="873" height="848" viewBox="0 0 873 848" color="#1f1b12" role="img" aria-label="Elaine Events full logo clean watermark">
  <title>Elaine Events full logo clean watermark</title>
  <path fill="currentColor" fill-rule="evenodd" d="M 682.0 803.0 L 684.0 803.0 L 689.0 799.0 L 681.0 799.0 Z
M 675.0 730.0 L 670.0 735.0 L 675.0 736.0 L 677.0 733.0 Z
M 848.0 712.0 L 850.0 715.0 L 851.0 725.0 L 854.0 735.0 L 853.0 721.0 L 850.0 712.0 Z
M 739.0 685.0 L 737.0 687.0 L 735.0 687.0 L 733.0 684.0 L 729.0 688.0 L 728.0 693.0 L 734.0 688.0 L 738.0 687.0 Z
M 744.0 664.0 L 740.0 664.0 L 741.0 669.0 L 739.0 670.0 L 742.0 671.0 Z
M 709.0 651.0 L 707.0 653.0 L 709.0 665.0 Z
M 147.0 630.0 L 153.0 639.0 L 156.0 646.0 L 168.0 662.0 L 193.0 691.0 L 217.0 714.0 L 252.0 741.0 L 287.0 762.0 L 328.0 781.0 L 331.0 781.0 L 334.0 783.0 L 337.0 783.0 L 343.0 786.0 L 366.0 793.0 L 380.0 795.0 L 395.0 799.0 L 397.0 798.0 L 386.0 794.0 L 374.0 793.0 L 371.0 790.0 L 361.0 789.0 L 355.0 785.0 L 351.0 785.0 L 344.0 781.0 L 339.0 781.0 L 330.0 776.0 L 324.0 775.0 L 321.0 772.0 L 317.0 772.0 L 314.0 769.0 L 289.0 758.0 L 276.0 749.0 L 272.0 748.0 L 263.0 741.0 L 257.0 739.0 L 254.0 736.0 L 249.0 734.0 L 244.0 728.0 L 242.0 728.0 L 222.0 711.0 L 219.0 710.0 L 203.0 694.0 L 201.0 694.0 L 198.0 691.0 L 197.0 688.0 L 175.0 667.0 L 171.0 660.0 L 166.0 656.0 L 164.0 651.0 L 161.0 649.0 L 160.0 645.0 L 155.0 642.0 Z
M 555.0 627.0 L 550.0 628.0 L 543.0 634.0 L 550.0 631.0 Z
M 125.0 616.0 L 124.0 618.0 L 134.0 632.0 L 135.0 636.0 L 139.0 641.0 L 141.0 646.0 L 159.0 670.0 L 166.0 677.0 L 176.0 690.0 L 213.0 726.0 L 237.0 745.0 L 247.0 751.0 L 251.0 756.0 L 255.0 756.0 L 261.0 761.0 L 266.0 763.0 L 276.0 770.0 L 280.0 771.0 L 297.0 781.0 L 333.0 795.0 L 335.0 797.0 L 339.0 797.0 L 355.0 803.0 L 384.0 809.0 L 388.0 811.0 L 396.0 811.0 L 415.0 815.0 L 419.0 814.0 L 409.0 813.0 L 405.0 811.0 L 399.0 811.0 L 391.0 807.0 L 388.0 807.0 L 384.0 804.0 L 374.0 805.0 L 369.0 804.0 L 365.0 801.0 L 361.0 801.0 L 358.0 798.0 L 349.0 798.0 L 346.0 794.0 L 340.0 793.0 L 335.0 790.0 L 326.0 789.0 L 319.0 785.0 L 313.0 784.0 L 309.0 780.0 L 304.0 779.0 L 300.0 775.0 L 291.0 773.0 L 289.0 771.0 L 283.0 769.0 L 268.0 758.0 L 259.0 754.0 L 255.0 749.0 L 250.0 748.0 L 241.0 741.0 L 239.0 741.0 L 237.0 738.0 L 234.0 737.0 L 222.0 726.0 L 219.0 725.0 L 212.0 718.0 L 209.0 717.0 L 196.0 703.0 L 189.0 698.0 L 189.0 696.0 L 180.0 687.0 L 176.0 685.0 L 173.0 680.0 L 160.0 666.0 L 159.0 662.0 L 145.0 646.0 L 143.0 641.0 L 139.0 637.0 L 139.0 634.0 L 134.0 630.0 L 132.0 625.0 Z
M 512.0 569.0 L 515.0 572.0 L 515.0 576.0 L 513.0 581.0 L 515.0 596.0 L 512.0 601.0 L 521.0 601.0 L 518.0 596.0 L 517.0 581.0 L 518.0 576.0 L 520.0 576.0 L 538.0 599.0 L 543.0 601.0 L 544.0 588.0 L 543.0 571.0 L 548.0 567.0 L 543.0 567.0 L 537.0 569.0 L 541.0 573.0 L 539.0 592.0 L 520.0 568.0 L 518.0 567.0 Z
M 446.0 568.0 L 450.0 571.0 L 451.0 579.0 L 450.0 598.0 L 447.0 600.0 L 447.0 602.0 L 469.0 602.0 L 474.0 600.0 L 474.0 594.0 L 467.0 599.0 L 458.0 599.0 L 455.0 595.0 L 455.0 587.0 L 457.0 585.0 L 461.0 585.0 L 466.0 587.0 L 466.0 589.0 L 468.0 588.0 L 469.0 580.0 L 465.0 579.0 L 463.0 582.0 L 455.0 581.0 L 455.0 572.0 L 457.0 570.0 L 466.0 570.0 L 472.0 575.0 L 471.0 568.0 L 467.0 567.0 Z
M 373.0 567.0 L 373.0 569.0 L 375.0 569.0 L 379.0 574.0 L 379.0 580.0 L 381.0 581.0 L 387.0 592.0 L 388.0 599.0 L 391.0 602.0 L 393.0 602.0 L 396.0 597.0 L 396.0 594.0 L 405.0 573.0 L 411.0 568.0 L 400.0 567.0 L 400.0 569.0 L 403.0 571.0 L 403.0 573.0 L 400.0 579.0 L 398.0 587.0 L 396.0 591.0 L 393.0 593.0 L 391.0 591.0 L 384.0 575.0 L 384.0 570.0 L 386.0 569.0 L 386.0 567.0 L 383.0 566.0 Z
M 659.0 565.0 L 652.0 572.0 L 651.0 578.0 L 658.0 585.0 L 667.0 588.0 L 670.0 591.0 L 671.0 594.0 L 668.0 598.0 L 658.0 599.0 L 652.0 592.0 L 656.0 600.0 L 660.0 602.0 L 668.0 602.0 L 674.0 597.0 L 675.0 594.0 L 674.0 588.0 L 670.0 583.0 L 666.0 583.0 L 660.0 580.0 L 656.0 576.0 L 656.0 574.0 L 659.0 570.0 L 669.0 571.0 L 672.0 575.0 L 673.0 571.0 L 672.0 568.0 L 666.0 565.0 Z
M 613.0 567.0 L 599.0 565.0 L 597.0 567.0 L 582.0 568.0 L 584.0 574.0 L 587.0 570.0 L 593.0 569.0 L 596.0 572.0 L 594.0 583.0 L 594.0 589.0 L 596.0 592.0 L 595.0 598.0 L 592.0 601.0 L 604.0 600.0 L 601.0 598.0 L 601.0 571.0 L 603.0 569.0 L 607.0 569.0 L 612.0 574.0 L 612.0 577.0 L 614.0 574.0 Z
M 310.0 568.0 L 314.0 572.0 L 314.0 597.0 L 310.0 601.0 L 336.0 602.0 L 338.0 600.0 L 337.0 593.0 L 334.0 597.0 L 329.0 597.0 L 326.0 599.0 L 321.0 599.0 L 319.0 597.0 L 319.0 587.0 L 321.0 585.0 L 324.0 585.0 L 331.0 588.0 L 332.0 582.0 L 330.0 580.0 L 329.0 582.0 L 321.0 583.0 L 319.0 581.0 L 319.0 573.0 L 322.0 570.0 L 330.0 570.0 L 333.0 571.0 L 336.0 575.0 L 335.0 567.0 L 324.0 565.0 L 321.0 567.0 Z
M 847.0 482.0 L 845.0 482.0 L 840.0 490.0 L 840.0 494.0 L 837.0 499.0 L 837.0 508.0 L 839.0 510.0 L 840.0 514.0 L 839.0 528.0 L 841.0 529.0 L 839.0 544.0 L 837.0 548.0 L 835.0 558.0 L 831.0 565.0 L 827.0 567.0 L 825.0 575.0 L 823.0 577.0 L 823.0 583.0 L 821.0 585.0 L 821.0 588.0 L 817.0 592.0 L 815.0 598.0 L 812.0 601.0 L 808.0 610.0 L 798.0 623.0 L 799.0 605.0 L 804.0 590.0 L 801.0 586.0 L 801.0 584.0 L 808.0 570.0 L 812.0 567.0 L 823.0 564.0 L 826.0 561.0 L 826.0 556.0 L 829.0 552.0 L 828.0 550.0 L 824.0 549.0 L 826.0 551.0 L 823.0 553.0 L 823.0 559.0 L 814.0 565.0 L 798.0 566.0 L 796.0 564.0 L 796.0 559.0 L 808.0 556.0 L 810.0 553.0 L 818.0 551.0 L 823.0 545.0 L 826.0 544.0 L 826.0 539.0 L 832.0 528.0 L 832.0 516.0 L 829.0 514.0 L 823.0 513.0 L 819.0 514.0 L 814.0 519.0 L 811.0 519.0 L 809.0 517.0 L 808.0 512.0 L 802.0 504.0 L 799.0 502.0 L 792.0 502.0 L 783.0 511.0 L 779.0 521.0 L 764.0 518.0 L 761.0 519.0 L 757.0 518.0 L 753.0 521.0 L 753.0 524.0 L 751.0 527.0 L 753.0 529.0 L 752.0 531.0 L 754.0 536.0 L 757.0 540.0 L 755.0 544.0 L 750.0 540.0 L 747.0 540.0 L 744.0 543.0 L 744.0 560.0 L 746.0 564.0 L 754.0 571.0 L 757.0 578.0 L 761.0 583.0 L 776.0 591.0 L 787.0 600.0 L 793.0 614.0 L 793.0 628.0 L 785.0 647.0 L 780.0 654.0 L 778.0 655.0 L 765.0 655.0 L 760.0 653.0 L 763.0 645.0 L 767.0 641.0 L 772.0 631.0 L 775.0 618.0 L 770.0 602.0 L 764.0 596.0 L 754.0 595.0 L 751.0 597.0 L 743.0 607.0 L 743.0 610.0 L 738.0 619.0 L 740.0 629.0 L 739.0 634.0 L 737.0 634.0 L 730.0 627.0 L 726.0 625.0 L 722.0 625.0 L 712.0 631.0 L 708.0 632.0 L 695.0 651.0 L 693.0 651.0 L 687.0 647.0 L 682.0 646.0 L 672.0 647.0 L 667.0 646.0 L 653.0 650.0 L 650.0 655.0 L 649.0 660.0 L 649.0 668.0 L 651.0 672.0 L 652.0 682.0 L 664.0 699.0 L 662.0 702.0 L 661.0 708.0 L 659.0 710.0 L 658.0 720.0 L 656.0 720.0 L 652.0 716.0 L 647.0 707.0 L 649.0 699.0 L 648.0 694.0 L 649.0 681.0 L 646.0 675.0 L 642.0 674.0 L 639.0 677.0 L 636.0 676.0 L 627.0 659.0 L 625.0 659.0 L 619.0 654.0 L 614.0 654.0 L 608.0 658.0 L 606.0 663.0 L 606.0 669.0 L 604.0 675.0 L 602.0 677.0 L 595.0 680.0 L 591.0 679.0 L 584.0 680.0 L 577.0 684.0 L 573.0 689.0 L 573.0 692.0 L 575.0 694.0 L 576.0 704.0 L 578.0 706.0 L 579.0 711.0 L 582.0 713.0 L 582.0 715.0 L 580.0 717.0 L 577.0 717.0 L 573.0 719.0 L 571.0 722.0 L 566.0 724.0 L 565.0 729.0 L 566.0 734.0 L 575.0 741.0 L 589.0 745.0 L 595.0 744.0 L 597.0 746.0 L 597.0 750.0 L 594.0 753.0 L 594.0 762.0 L 596.0 766.0 L 604.0 766.0 L 615.0 762.0 L 622.0 757.0 L 628.0 747.0 L 628.0 745.0 L 632.0 740.0 L 646.0 741.0 L 646.0 737.0 L 650.0 737.0 L 653.0 742.0 L 662.0 743.0 L 664.0 746.0 L 670.0 748.0 L 670.0 750.0 L 668.0 752.0 L 660.0 755.0 L 657.0 755.0 L 654.0 753.0 L 636.0 753.0 L 632.0 757.0 L 634.0 759.0 L 636.0 759.0 L 638.0 757.0 L 645.0 760.0 L 640.0 761.0 L 643.0 763.0 L 636.0 768.0 L 627.0 770.0 L 624.0 773.0 L 604.0 774.0 L 598.0 772.0 L 592.0 768.0 L 589.0 768.0 L 587.0 766.0 L 580.0 764.0 L 577.0 760.0 L 575.0 754.0 L 567.0 746.0 L 566.0 743.0 L 562.0 740.0 L 559.0 739.0 L 556.0 741.0 L 553.0 741.0 L 549.0 738.0 L 543.0 739.0 L 536.0 744.0 L 535.0 752.0 L 540.0 760.0 L 541.0 765.0 L 544.0 766.0 L 550.0 771.0 L 557.0 774.0 L 575.0 775.0 L 579.0 779.0 L 590.0 780.0 L 592.0 781.0 L 592.0 785.0 L 582.0 787.0 L 575.0 790.0 L 572.0 789.0 L 559.0 794.0 L 550.0 792.0 L 538.0 779.0 L 535.0 778.0 L 529.0 772.0 L 526.0 766.0 L 526.0 763.0 L 519.0 756.0 L 510.0 754.0 L 508.0 752.0 L 500.0 753.0 L 498.0 756.0 L 498.0 763.0 L 501.0 770.0 L 508.0 777.0 L 521.0 784.0 L 527.0 791.0 L 540.0 795.0 L 541.0 799.0 L 521.0 803.0 L 508.0 801.0 L 493.0 786.0 L 483.0 779.0 L 477.0 777.0 L 468.0 778.0 L 467.0 780.0 L 468.0 784.0 L 478.0 794.0 L 485.0 799.0 L 501.0 807.0 L 498.0 808.0 L 487.0 807.0 L 483.0 808.0 L 477.0 806.0 L 471.0 806.0 L 463.0 801.0 L 460.0 801.0 L 446.0 789.0 L 440.0 786.0 L 437.0 786.0 L 435.0 783.0 L 424.0 786.0 L 423.0 789.0 L 429.0 796.0 L 438.0 801.0 L 445.0 803.0 L 456.0 803.0 L 463.0 807.0 L 462.0 810.0 L 456.0 811.0 L 448.0 816.0 L 449.0 822.0 L 454.0 824.0 L 459.0 824.0 L 473.0 820.0 L 487.0 812.0 L 493.0 811.0 L 500.0 812.0 L 512.0 808.0 L 530.0 805.0 L 532.0 803.0 L 541.0 804.0 L 543.0 803.0 L 545.0 798.0 L 548.0 800.0 L 554.0 800.0 L 561.0 797.0 L 565.0 801.0 L 562.0 801.0 L 555.0 805.0 L 550.0 805.0 L 542.0 810.0 L 523.0 811.0 L 519.0 812.0 L 515.0 815.0 L 512.0 820.0 L 512.0 823.0 L 506.0 831.0 L 506.0 835.0 L 512.0 840.0 L 524.0 840.0 L 537.0 836.0 L 546.0 826.0 L 548.0 826.0 L 560.0 815.0 L 561.0 811.0 L 572.0 799.0 L 579.0 796.0 L 591.0 787.0 L 593.0 787.0 L 597.0 792.0 L 604.0 797.0 L 602.0 800.0 L 594.0 803.0 L 597.0 805.0 L 595.0 808.0 L 597.0 810.0 L 591.0 817.0 L 581.0 816.0 L 577.0 812.0 L 579.0 810.0 L 577.0 809.0 L 577.0 807.0 L 581.0 803.0 L 584.0 802.0 L 585.0 800.0 L 595.0 796.0 L 596.0 794.0 L 593.0 794.0 L 588.0 797.0 L 582.0 798.0 L 575.0 804.0 L 575.0 806.0 L 573.0 808.0 L 573.0 812.0 L 576.0 817.0 L 580.0 820.0 L 586.0 821.0 L 590.0 826.0 L 590.0 831.0 L 585.0 837.0 L 587.0 839.0 L 587.0 843.0 L 590.0 844.0 L 590.0 847.0 L 593.0 847.0 L 596.0 840.0 L 606.0 831.0 L 610.0 824.0 L 619.0 816.0 L 620.0 812.0 L 624.0 808.0 L 627.0 810.0 L 618.0 821.0 L 617.0 825.0 L 620.0 824.0 L 621.0 821.0 L 626.0 816.0 L 628.0 818.0 L 627.0 815.0 L 630.0 811.0 L 633.0 810.0 L 635.0 812.0 L 635.0 818.0 L 631.0 827.0 L 628.0 829.0 L 627.0 836.0 L 621.0 839.0 L 621.0 837.0 L 613.0 847.0 L 620.0 847.0 L 619.0 844.0 L 626.0 838.0 L 629.0 839.0 L 628.0 844.0 L 631.0 847.0 L 631.0 844.0 L 637.0 841.0 L 638.0 845.0 L 637.0 847.0 L 645.0 847.0 L 648.0 844.0 L 656.0 845.0 L 658.0 840.0 L 658.0 832.0 L 653.0 817.0 L 651.0 817.0 L 648.0 814.0 L 649.0 802.0 L 646.0 801.0 L 646.0 798.0 L 642.0 803.0 L 638.0 804.0 L 633.0 798.0 L 632.0 793.0 L 634.0 791.0 L 632.0 787.0 L 636.0 786.0 L 638.0 784.0 L 643.0 784.0 L 646.0 780.0 L 653.0 780.0 L 653.0 782.0 L 650.0 785.0 L 651.0 789.0 L 647.0 796.0 L 649.0 795.0 L 650.0 797.0 L 654.0 788.0 L 661.0 781.0 L 662.0 777.0 L 664.0 775.0 L 664.0 767.0 L 676.0 755.0 L 685.0 750.0 L 688.0 751.0 L 689.0 753.0 L 689.0 761.0 L 677.0 772.0 L 675.0 775.0 L 675.0 782.0 L 672.0 785.0 L 670.0 785.0 L 663.0 793.0 L 656.0 805.0 L 656.0 809.0 L 662.0 815.0 L 668.0 818.0 L 680.0 821.0 L 680.0 825.0 L 683.0 831.0 L 682.0 836.0 L 684.0 839.0 L 690.0 842.0 L 685.0 835.0 L 685.0 833.0 L 687.0 832.0 L 685.0 824.0 L 688.0 820.0 L 689.0 822.0 L 693.0 814.0 L 696.0 812.0 L 699.0 813.0 L 700.0 815.0 L 703.0 810.0 L 704.0 812.0 L 710.0 811.0 L 712.0 804.0 L 714.0 803.0 L 716.0 805.0 L 716.0 803.0 L 720.0 798.0 L 722.0 798.0 L 721.0 789.0 L 716.0 776.0 L 718.0 774.0 L 729.0 769.0 L 741.0 757.0 L 743.0 753.0 L 747.0 750.0 L 756.0 761.0 L 762.0 772.0 L 762.0 779.0 L 764.0 783.0 L 764.0 786.0 L 768.0 784.0 L 768.0 777.0 L 772.0 772.0 L 773.0 774.0 L 774.0 782.0 L 769.0 789.0 L 770.0 795.0 L 769.0 798.0 L 774.0 794.0 L 776.0 789.0 L 777.0 782.0 L 776.0 763.0 L 779.0 761.0 L 784.0 768.0 L 788.0 767.0 L 786.0 760.0 L 790.0 761.0 L 795.0 759.0 L 791.0 756.0 L 783.0 754.0 L 784.0 751.0 L 790.0 753.0 L 798.0 752.0 L 797.0 750.0 L 793.0 749.0 L 778.0 748.0 L 779.0 745.0 L 792.0 744.0 L 802.0 738.0 L 808.0 728.0 L 810.0 717.0 L 815.0 709.0 L 815.0 706.0 L 803.0 708.0 L 797.0 712.0 L 793.0 713.0 L 789.0 717.0 L 786.0 724.0 L 783.0 727.0 L 780.0 726.0 L 776.0 715.0 L 776.0 709.0 L 782.0 704.0 L 784.0 700.0 L 791.0 693.0 L 796.0 678.0 L 795.0 667.0 L 786.0 657.0 L 793.0 650.0 L 796.0 649.0 L 806.0 641.0 L 811.0 640.0 L 816.0 637.0 L 819.0 637.0 L 825.0 633.0 L 823.0 631.0 L 823.0 623.0 L 821.0 622.0 L 815.0 623.0 L 815.0 625.0 L 795.0 642.0 L 795.0 640.0 L 804.0 626.0 L 804.0 624.0 L 810.0 617.0 L 812.0 612.0 L 816.0 607.0 L 817.0 602.0 L 823.0 595.0 L 827.0 588.0 L 834.0 580.0 L 840.0 577.0 L 848.0 570.0 L 845.0 567.0 L 845.0 564.0 L 852.0 557.0 L 856.0 555.0 L 861.0 549.0 L 865.0 547.0 L 872.0 539.0 L 872.0 525.0 L 867.0 525.0 L 863.0 527.0 L 851.0 539.0 L 848.0 545.0 L 848.0 549.0 L 845.0 555.0 L 845.0 559.0 L 837.0 564.0 L 837.0 562.0 L 841.0 555.0 L 847.0 534.0 L 851.0 528.0 L 854.0 514.0 L 853.0 509.0 L 856.0 504.0 L 854.0 495.0 L 852.0 493.0 L 852.0 491.0 Z
M 543.0 828.0 L 538.0 832.0 L 536.0 829.0 L 539.0 827.0 Z
M 523.0 819.0 L 513.0 825.0 L 513.0 823.0 L 519.0 816.0 Z
M 544.0 813.0 L 545.0 817.0 L 540.0 818.0 L 539.0 822.0 L 533.0 829.0 L 524.0 831.0 L 521.0 834.0 L 514.0 834.0 L 512.0 832.0 L 512.0 830.0 L 518.0 824.0 L 523.0 823.0 L 529.0 818.0 L 535.0 815.0 Z
M 639.0 810.0 L 650.0 821.0 L 649.0 826.0 L 653.0 832.0 L 654.0 839.0 L 652.0 843.0 L 646.0 842.0 L 638.0 829.0 L 639.0 823.0 L 642.0 822.0 L 647.0 823.0 L 642.0 817.0 L 640.0 817.0 L 639.0 820.0 L 636.0 820.0 L 636.0 812.0 Z
M 688.0 809.0 L 692.0 811.0 L 690.0 813.0 L 693.0 815.0 L 692.0 817.0 L 688.0 818.0 L 687.0 815.0 L 684.0 813.0 Z
M 614.0 805.0 L 608.0 810.0 L 611.0 811.0 L 610.0 813.0 L 614.0 812.0 L 619.0 814.0 L 611.0 817.0 L 609.0 819.0 L 610.0 823.0 L 609.0 826.0 L 604.0 829.0 L 603.0 833.0 L 597.0 834.0 L 595.0 836.0 L 596.0 841.0 L 591.0 843.0 L 590.0 835.0 L 593.0 833.0 L 596.0 828.0 L 600.0 818.0 L 598.0 819.0 L 595.0 818.0 L 595.0 816.0 L 598.0 812.0 L 601.0 811.0 L 603.0 813.0 L 605.0 813.0 L 603.0 809.0 L 607.0 805.0 Z
M 629.0 801.0 L 624.0 805.0 L 621.0 804.0 L 622.0 800.0 L 624.0 799.0 Z
M 605.0 800.0 L 607.0 799.0 L 612.0 803.0 L 606.0 805.0 Z
M 704.0 798.0 L 707.0 799.0 L 707.0 802.0 L 702.0 809.0 Z
M 426.0 790.0 L 427.0 788.0 L 430.0 788.0 L 434.0 791.0 L 436.0 791.0 L 438.0 794.0 L 435.0 796.0 L 429.0 793.0 Z
M 688.0 783.0 L 692.0 788.0 L 684.0 793.0 L 686.0 793.0 L 692.0 789.0 L 695.0 793.0 L 692.0 796.0 L 695.0 797.0 L 695.0 801.0 L 688.0 804.0 L 690.0 806.0 L 679.0 815.0 L 673.0 816.0 L 673.0 812.0 L 666.0 814.0 L 661.0 808.0 L 662.0 806.0 L 661.0 802.0 L 670.0 792.0 L 672.0 795.0 L 676.0 791.0 L 681.0 791.0 L 681.0 787.0 L 684.0 784.0 Z
M 709.0 775.0 L 707.0 777.0 L 705.0 777.0 L 697.0 773.0 L 698.0 777.0 L 696.0 777.0 L 695.0 781.0 L 690.0 782.0 L 688.0 780.0 L 686.0 782.0 L 681.0 782.0 L 679.0 780.0 L 680.0 775.0 L 688.0 771.0 L 688.0 775.0 L 693.0 770.0 L 692.0 768.0 L 696.0 767.0 L 696.0 769.0 L 699.0 771.0 L 706.0 772.0 Z
M 663.0 762.0 L 659.0 766.0 L 650.0 771.0 L 646.0 776.0 L 640.0 780.0 L 636.0 780.0 L 633.0 783.0 L 628.0 783.0 L 625.0 785.0 L 623.0 783.0 L 621.0 783.0 L 619.0 786.0 L 609.0 786.0 L 612.0 786.0 L 619.0 790.0 L 619.0 787.0 L 621.0 787.0 L 627.0 790.0 L 630.0 793.0 L 629.0 796.0 L 619.0 797.0 L 615.0 794.0 L 613.0 794.0 L 612.0 796.0 L 607.0 795.0 L 603.0 790.0 L 603.0 794.0 L 600.0 794.0 L 596.0 790.0 L 597.0 787.0 L 604.0 783.0 L 602.0 782.0 L 603.0 779.0 L 617.0 781.0 L 624.0 776.0 L 630.0 775.0 L 635.0 772.0 L 640.0 771.0 L 650.0 765.0 L 655.0 764.0 L 660.0 760.0 Z
M 765.0 759.0 L 767.0 761.0 L 767.0 764.0 L 763.0 765.0 Z
M 505.0 758.0 L 512.0 759.0 L 520.0 766.0 L 528.0 781.0 L 526.0 784.0 L 523.0 781.0 L 523.0 779.0 L 516.0 776.0 L 512.0 771.0 L 508.0 770.0 L 510.0 769.0 L 508.0 766.0 L 511.0 763.0 L 506.0 762.0 L 504.0 760.0 Z
M 773.0 753.0 L 774.0 764.0 L 772.0 766.0 L 769.0 765.0 L 769.0 762.0 L 771.0 761.0 L 767.0 756.0 Z
M 738.0 751.0 L 735.0 758.0 L 733.0 756.0 L 734.0 752.0 Z
M 547.0 748.0 L 559.0 748.0 L 564.0 751.0 L 565.0 756.0 L 558.0 753.0 L 561.0 755.0 L 562.0 758.0 L 565.0 759.0 L 568.0 764.0 L 562.0 765.0 L 560.0 763.0 L 557.0 763.0 L 546.0 751.0 Z
M 539.0 748.0 L 544.0 755.0 L 541.0 759.0 L 540.0 755.0 L 536.0 750.0 Z
M 760.0 747.0 L 766.0 748.0 L 769.0 751.0 L 769.0 753.0 L 766.0 755.0 L 763.0 752.0 L 760.0 751.0 Z
M 615.0 738.0 L 615.0 741.0 L 609.0 747.0 L 606.0 752.0 L 607.0 755.0 L 606.0 757.0 L 600.0 761.0 L 596.0 760.0 L 596.0 758.0 L 601.0 751.0 L 602.0 747.0 L 611.0 738.0 Z
M 625.0 735.0 L 627.0 738.0 L 625.0 741.0 L 625.0 744.0 L 620.0 749.0 L 619.0 753.0 L 617.0 755.0 L 611.0 757.0 L 608.0 760.0 L 605.0 758.0 L 609.0 753.0 L 610.0 748.0 L 613.0 747.0 L 615.0 744.0 L 620.0 745.0 L 619.0 741.0 Z
M 718.0 730.0 L 720.0 732.0 L 718.0 740.0 L 715.0 740.0 L 715.0 753.0 L 712.0 756.0 L 713.0 764.0 L 712.0 769.0 L 716.0 759.0 L 715.0 754.0 L 719.0 743.0 L 720.0 753.0 L 721.0 747.0 L 724.0 747.0 L 725.0 741.0 L 727.0 741.0 L 731.0 745.0 L 735.0 746.0 L 735.0 750.0 L 731.0 754.0 L 730.0 761.0 L 728.0 762.0 L 727.0 760.0 L 726.0 765.0 L 717.0 773.0 L 711.0 773.0 L 705.0 770.0 L 705.0 765.0 L 707.0 765.0 L 703.0 761.0 L 701.0 766.0 L 695.0 756.0 L 690.0 752.0 L 691.0 749.0 L 695.0 748.0 L 697.0 750.0 L 704.0 749.0 L 702.0 746.0 L 710.0 739.0 L 711.0 734.0 L 715.0 733.0 L 716.0 730.0 Z
M 639.0 730.0 L 642.0 726.0 L 649.0 725.0 L 652.0 729.0 L 657.0 731.0 L 657.0 733.0 L 659.0 735.0 L 658.0 738.0 L 656.0 738.0 L 654.0 736.0 L 651.0 736.0 L 650.0 734.0 L 647.0 735.0 L 641.0 734.0 L 639.0 732.0 Z
M 590.0 722.0 L 591.0 726.0 L 585.0 728.0 L 592.0 729.0 L 591.0 732.0 L 581.0 731.0 L 577.0 735.0 L 570.0 736.0 L 568.0 734.0 L 567.0 728.0 L 569.0 726.0 L 571.0 727.0 L 571.0 724.0 L 573.0 722.0 L 583.0 721.0 L 582.0 719.0 L 584.0 717.0 L 588.0 722.0 Z
M 806.0 710.0 L 810.0 715.0 L 810.0 718.0 L 805.0 725.0 L 805.0 727.0 L 802.0 730.0 L 802.0 732.0 L 797.0 737.0 L 791.0 739.0 L 789.0 741.0 L 784.0 740.0 L 785.0 736.0 L 792.0 733.0 L 790.0 735.0 L 798.0 728.0 L 800.0 725.0 L 798.0 723.0 L 805.0 716.0 L 798.0 722.0 L 792.0 723.0 L 792.0 721.0 Z
M 765.0 704.0 L 769.0 705.0 L 770.0 710.0 L 765.0 707.0 Z
M 720.0 720.0 L 723.0 717.0 L 733.0 715.0 L 733.0 720.0 L 737.0 723.0 L 735.0 722.0 L 735.0 719.0 L 738.0 717.0 L 749.0 719.0 L 756.0 725.0 L 758.0 736.0 L 755.0 738.0 L 762.0 743.0 L 765.0 741.0 L 765.0 738.0 L 768.0 736.0 L 768.0 734.0 L 759.0 726.0 L 758.0 720.0 L 753.0 719.0 L 750.0 715.0 L 744.0 715.0 L 745.0 711.0 L 743.0 711.0 L 740.0 714.0 L 740.0 705.0 L 739.0 703.0 L 746.0 698.0 L 755.0 697.0 L 762.0 701.0 L 758.0 704.0 L 756.0 704.0 L 758.0 706.0 L 762.0 706.0 L 768.0 710.0 L 770.0 710.0 L 774.0 717.0 L 772.0 718.0 L 773.0 720.0 L 776.0 720.0 L 778.0 722.0 L 775.0 727.0 L 772.0 722.0 L 778.0 730.0 L 778.0 738.0 L 772.0 744.0 L 767.0 747.0 L 755.0 746.0 L 741.0 743.0 L 739.0 739.0 L 733.0 741.0 L 729.0 737.0 L 726.0 737.0 L 724.0 735.0 L 721.0 728.0 Z
M 672.0 696.0 L 677.0 696.0 L 680.0 694.0 L 682.0 697.0 L 682.0 693.0 L 686.0 693.0 L 689.0 695.0 L 692.0 694.0 L 698.0 699.0 L 700.0 699.0 L 704.0 706.0 L 694.0 705.0 L 693.0 709.0 L 688.0 711.0 L 690.0 710.0 L 694.0 713.0 L 691.0 713.0 L 687.0 716.0 L 684.0 715.0 L 682.0 716.0 L 681.0 719.0 L 674.0 724.0 L 688.0 716.0 L 692.0 718.0 L 690.0 720.0 L 695.0 717.0 L 703.0 720.0 L 699.0 722.0 L 701.0 723.0 L 700.0 725.0 L 704.0 722.0 L 708.0 722.0 L 712.0 719.0 L 714.0 721.0 L 714.0 728.0 L 713.0 731.0 L 706.0 738.0 L 704.0 738.0 L 699.0 742.0 L 694.0 741.0 L 686.0 743.0 L 680.0 741.0 L 671.0 741.0 L 667.0 738.0 L 663.0 737.0 L 659.0 732.0 L 660.0 716.0 L 665.0 706.0 L 668.0 703.0 L 668.0 700.0 Z
M 720.0 688.0 L 722.0 690.0 L 722.0 692.0 L 717.0 699.0 L 717.0 694.0 L 716.0 693.0 L 717.0 688.0 Z
M 579.0 686.0 L 583.0 687.0 L 582.0 684.0 L 585.0 683.0 L 592.0 685.0 L 597.0 684.0 L 601.0 688.0 L 594.0 689.0 L 589.0 687.0 L 591.0 689.0 L 595.0 690.0 L 602.0 689.0 L 607.0 694.0 L 609.0 699.0 L 612.0 701.0 L 614.0 709.0 L 603.0 708.0 L 603.0 710.0 L 606.0 713.0 L 612.0 713.0 L 615.0 715.0 L 618.0 714.0 L 621.0 717.0 L 616.0 719.0 L 611.0 718.0 L 609.0 716.0 L 605.0 717.0 L 607.0 720.0 L 608.0 718.0 L 612.0 719.0 L 613.0 723.0 L 618.0 724.0 L 618.0 726.0 L 621.0 725.0 L 622.0 723.0 L 619.0 720.0 L 627.0 726.0 L 625.0 727.0 L 625.0 730.0 L 622.0 735.0 L 616.0 734.0 L 609.0 737.0 L 604.0 741.0 L 596.0 740.0 L 586.0 741.0 L 582.0 739.0 L 581.0 734.0 L 588.0 732.0 L 594.0 733.0 L 596.0 731.0 L 601.0 731.0 L 597.0 728.0 L 610.0 729.0 L 615.0 727.0 L 605.0 727.0 L 597.0 723.0 L 592.0 718.0 L 592.0 715.0 L 584.0 708.0 L 585.0 704.0 L 580.0 692.0 L 582.0 692.0 L 577.0 689.0 Z
M 619.0 662.0 L 626.0 669.0 L 627.0 679.0 L 630.0 676.0 L 632.0 681.0 L 630.0 687.0 L 633.0 688.0 L 632.0 697.0 L 637.0 709.0 L 638.0 704.0 L 635.0 697.0 L 635.0 695.0 L 637.0 694.0 L 637.0 686.0 L 640.0 687.0 L 641.0 690.0 L 645.0 690.0 L 642.0 702.0 L 641.0 700.0 L 640.0 702.0 L 643.0 705.0 L 644.0 715.0 L 642.0 721.0 L 637.0 722.0 L 636.0 725.0 L 633.0 727.0 L 631.0 724.0 L 633.0 722.0 L 633.0 720.0 L 635.0 719.0 L 636.0 713.0 L 631.0 715.0 L 628.0 712.0 L 627.0 709.0 L 628.0 702.0 L 624.0 696.0 L 620.0 680.0 L 618.0 678.0 L 615.0 678.0 L 618.0 681.0 L 616.0 686.0 L 618.0 687.0 L 618.0 689.0 L 622.0 695.0 L 622.0 699.0 L 625.0 707.0 L 623.0 707.0 L 615.0 697.0 L 612.0 696.0 L 610.0 693.0 L 610.0 687.0 L 608.0 682.0 L 608.0 673.0 L 609.0 671.0 L 612.0 670.0 L 618.0 674.0 L 618.0 671.0 L 616.0 670.0 L 616.0 667.0 Z
M 611.0 661.0 L 614.0 662.0 L 613.0 667.0 L 610.0 667.0 L 609.0 663.0 Z
M 754.0 662.0 L 761.0 662.0 L 763.0 660.0 L 769.0 662.0 L 767.0 664.0 L 767.0 668.0 L 772.0 668.0 L 785.0 661.0 L 786.0 666.0 L 782.0 669.0 L 774.0 672.0 L 770.0 676.0 L 776.0 677.0 L 781.0 672.0 L 786.0 673.0 L 785.0 678.0 L 788.0 679.0 L 786.0 684.0 L 788.0 683.0 L 790.0 686.0 L 788.0 690.0 L 783.0 695.0 L 780.0 696.0 L 773.0 702.0 L 769.0 702.0 L 766.0 699.0 L 765.0 696.0 L 757.0 693.0 L 762.0 692.0 L 761.0 688.0 L 754.0 688.0 L 759.0 683.0 L 766.0 679.0 L 763.0 679.0 L 757.0 685.0 L 753.0 685.0 L 755.0 680.0 L 744.0 688.0 L 756.0 674.0 L 752.0 674.0 L 752.0 671.0 L 754.0 669.0 L 752.0 667.0 L 752.0 664.0 Z
M 651.0 657.0 L 655.0 660.0 L 657.0 660.0 L 658.0 662.0 L 662.0 661.0 L 672.0 668.0 L 676.0 672.0 L 677.0 676.0 L 676.0 682.0 L 678.0 684.0 L 683.0 685.0 L 685.0 687.0 L 691.0 688.0 L 687.0 685.0 L 683.0 677.0 L 688.0 680.0 L 694.0 686.0 L 697.0 687.0 L 697.0 693.0 L 694.0 691.0 L 693.0 693.0 L 687.0 692.0 L 685.0 690.0 L 677.0 687.0 L 678.0 690.0 L 676.0 692.0 L 671.0 692.0 L 669.0 690.0 L 670.0 688.0 L 658.0 680.0 L 663.0 684.0 L 662.0 688.0 L 658.0 687.0 L 655.0 673.0 L 658.0 675.0 L 653.0 672.0 L 654.0 669.0 L 656.0 669.0 L 656.0 667.0 L 651.0 664.0 Z
M 666.0 653.0 L 670.0 652.0 L 673.0 654.0 L 682.0 653.0 L 687.0 651.0 L 689.0 652.0 L 692.0 656.0 L 690.0 663.0 L 688.0 665.0 L 686.0 665.0 L 691.0 677.0 L 687.0 676.0 L 683.0 672.0 L 681.0 675.0 L 668.0 664.0 L 667.0 661.0 L 663.0 657.0 Z
M 716.0 632.0 L 718.0 632.0 L 721.0 635.0 L 720.0 642.0 L 721.0 649.0 L 719.0 650.0 L 719.0 653.0 L 723.0 653.0 L 724.0 640.0 L 729.0 633.0 L 737.0 643.0 L 736.0 639.0 L 738.0 637.0 L 743.0 646.0 L 743.0 649.0 L 748.0 660.0 L 749.0 670.0 L 748.0 672.0 L 745.0 673.0 L 747.0 674.0 L 745.0 684.0 L 737.0 692.0 L 728.0 706.0 L 725.0 705.0 L 727.0 695.0 L 724.0 699.0 L 721.0 698.0 L 723.0 691.0 L 723.0 688.0 L 721.0 687.0 L 721.0 683.0 L 723.0 682.0 L 723.0 675.0 L 725.0 673.0 L 722.0 671.0 L 725.0 665.0 L 723.0 662.0 L 722.0 657.0 L 721.0 671.0 L 719.0 673.0 L 716.0 687.0 L 715.0 683.0 L 711.0 678.0 L 709.0 681.0 L 713.0 684.0 L 716.0 693.0 L 713.0 698.0 L 713.0 696.0 L 710.0 694.0 L 711.0 699.0 L 714.0 702.0 L 712.0 704.0 L 709.0 705.0 L 705.0 700.0 L 707.0 699.0 L 708.0 696.0 L 707.0 692.0 L 709.0 691.0 L 709.0 689.0 L 705.0 683.0 L 701.0 684.0 L 695.0 671.0 L 695.0 657.0 L 697.0 655.0 L 699.0 655.0 L 702.0 647.0 L 706.0 642.0 L 709.0 643.0 L 710.0 646.0 L 711.0 643.0 L 716.0 642.0 L 716.0 637.0 L 713.0 640.0 L 709.0 638.0 Z
M 769.0 629.0 L 765.0 639.0 L 763.0 637.0 L 763.0 635.0 L 766.0 629.0 Z
M 743.0 618.0 L 747.0 618.0 L 746.0 628.0 L 744.0 628.0 L 742.0 626.0 Z
M 749.0 611.0 L 749.0 613.0 L 745.0 616.0 L 745.0 612.0 Z
M 763.0 601.0 L 765.0 604.0 L 764.0 609.0 L 768.0 609.0 L 769.0 619.0 L 768.0 624.0 L 766.0 626.0 L 762.0 636.0 L 759.0 640.0 L 755.0 642.0 L 749.0 635.0 L 748.0 627.0 L 752.0 614.0 L 755.0 610.0 L 756.0 606.0 L 761.0 601.0 Z
M 801.0 596.0 L 801.0 599.0 L 797.0 602.0 L 797.0 597.0 Z
M 845.0 572.0 L 841.0 576.0 L 838.0 574.0 L 840.0 572.0 Z
M 784.0 566.0 L 794.0 582.0 L 794.0 586.0 L 789.0 596.0 L 783.0 591.0 L 784.0 575.0 L 782.0 569.0 Z
M 794.0 564.0 L 797.0 565.0 L 798.0 569.0 L 801.0 570.0 L 801.0 576.0 L 799.0 583.0 L 796.0 583.0 L 796.0 580.0 L 791.0 572.0 L 791.0 568.0 Z
M 750.0 555.0 L 753.0 556.0 L 754.0 558.0 L 751.0 561.0 L 749.0 557.0 Z
M 770.0 545.0 L 775.0 545.0 L 779.0 548.0 L 779.0 555.0 L 783.0 555.0 L 785.0 557.0 L 794.0 559.0 L 793.0 562.0 L 783.0 565.0 L 776.0 565.0 L 768.0 563.0 L 773.0 569.0 L 773.0 578.0 L 775.0 581.0 L 775.0 586.0 L 773.0 586.0 L 767.0 580.0 L 764.0 569.0 L 765.0 563.0 L 763.0 563.0 L 760.0 560.0 L 760.0 551.0 L 765.0 547.0 L 770.0 548.0 Z
M 817.0 544.0 L 817.0 546.0 L 815.0 548.0 L 812.0 547.0 L 812.0 545.0 Z
M 781.0 539.0 L 782.0 541.0 L 779.0 544.0 L 777.0 540.0 Z
M 865.0 536.0 L 865.0 539.0 L 857.0 546.0 L 852.0 545.0 L 860.0 536.0 L 862.0 535.0 Z
M 754.0 525.0 L 759.0 526.0 L 759.0 530.0 L 755.0 529.0 L 753.0 527.0 Z
M 778.0 526.0 L 778.0 529.0 L 775.0 533.0 L 772.0 531.0 L 773.0 533.0 L 771.0 534.0 L 777.0 539.0 L 777.0 541.0 L 772.0 542.0 L 771.0 544.0 L 768.0 545.0 L 763.0 545.0 L 759.0 542.0 L 757.0 537.0 L 758.0 531.0 L 761.0 530.0 L 764.0 533.0 L 766.0 531.0 L 768.0 531.0 L 763.0 527.0 L 764.0 523.0 L 768.0 522.0 Z
M 831.0 521.0 L 831.0 525.0 L 826.0 535.0 L 822.0 539.0 L 818.0 538.0 L 812.0 540.0 L 816.0 536.0 L 816.0 534.0 L 820.0 527.0 L 815.0 535.0 L 811.0 536.0 L 811.0 541.0 L 805.0 540.0 L 805.0 538.0 L 803.0 536.0 L 803.0 533.0 L 812.0 521.0 L 818.0 518.0 L 822.0 521.0 L 828.0 520.0 Z
M 798.0 507.0 L 801.0 510.0 L 801.0 512.0 L 807.0 517.0 L 806.0 527.0 L 803.0 530.0 L 802.0 533.0 L 803.0 535.0 L 798.0 538.0 L 797.0 543.0 L 792.0 544.0 L 792.0 540.0 L 790.0 538.0 L 783.0 538.0 L 781.0 536.0 L 785.0 512.0 L 788.0 509.0 L 791.0 510.0 L 791.0 516.0 L 791.0 513.0 L 793.0 512.0 L 793.0 509.0 L 795.0 507.0 Z
M 842.0 496.0 L 847.0 497.0 L 848.0 501.0 L 844.0 512.0 L 842.0 509.0 L 841.0 501.0 Z
M 135.0 449.0 L 132.0 457.0 L 133.0 462.0 L 130.0 465.0 L 126.0 466.0 L 127.0 475.0 L 133.0 466.0 L 133.0 463.0 L 138.0 456.0 L 136.0 454.0 Z
M 537.0 382.0 L 531.0 385.0 L 524.0 392.0 L 524.0 399.0 L 526.0 402.0 L 530.0 404.0 L 535.0 404.0 L 541.0 401.0 L 544.0 395.0 L 543.0 387.0 Z
M 466.0 376.0 L 465.0 379.0 L 466.0 383.0 L 468.0 383.0 L 469.0 380.0 Z
M 819.0 362.0 L 818.0 363.0 L 819.0 367.0 L 823.0 373.0 L 825.0 384.0 L 823.0 386.0 L 824.0 390.0 L 829.0 389.0 L 828.0 376.0 Z
M 771.0 322.0 L 769.0 327.0 L 769.0 335.0 L 767.0 342.0 L 757.0 350.0 L 747.0 349.0 L 745.0 351.0 L 758.0 354.0 L 765.0 359.0 L 770.0 370.0 L 771.0 380.0 L 773.0 366.0 L 775.0 362.0 L 782.0 355.0 L 787.0 353.0 L 795.0 352.0 L 794.0 350.0 L 790.0 348.0 L 787.0 349.0 L 782.0 348.0 L 775.0 342.0 L 775.0 340.0 L 773.0 338.0 L 773.0 330.0 Z
M 849.0 454.0 L 845.0 444.0 L 842.0 443.0 L 839.0 440.0 L 838.0 437.0 L 832.0 438.0 L 822.0 436.0 L 812.0 436.0 L 804.0 438.0 L 799.0 443.0 L 796.0 444.0 L 782.0 455.0 L 780.0 455.0 L 771.0 461.0 L 763.0 470.0 L 752.0 479.0 L 748.0 480.0 L 745.0 483.0 L 741.0 483.0 L 737.0 486.0 L 733.0 486.0 L 730.0 483.0 L 730.0 474.0 L 733.0 468.0 L 733.0 464.0 L 755.0 421.0 L 766.0 406.0 L 769.0 399.0 L 773.0 394.0 L 773.0 387.0 L 766.0 389.0 L 759.0 389.0 L 757.0 391.0 L 757.0 393.0 L 746.0 409.0 L 736.0 427.0 L 732.0 430.0 L 732.0 435.0 L 726.0 444.0 L 720.0 457.0 L 714.0 462.0 L 712.0 467.0 L 705.0 470.0 L 707.0 472.0 L 707.0 474.0 L 703.0 479.0 L 686.0 494.0 L 680.0 493.0 L 677.0 489.0 L 677.0 469.0 L 679.0 447.0 L 699.0 420.0 L 713.0 406.0 L 722.0 401.0 L 725.0 401.0 L 727.0 403.0 L 729.0 403.0 L 730.0 398.0 L 716.0 396.0 L 708.0 404.0 L 705.0 404.0 L 702.0 410.0 L 698.0 413.0 L 694.0 419.0 L 690.0 420.0 L 690.0 426.0 L 687.0 431.0 L 680.0 435.0 L 680.0 429.0 L 682.0 422.0 L 672.0 413.0 L 663.0 413.0 L 662.0 416.0 L 651.0 425.0 L 636.0 446.0 L 634.0 446.0 L 634.0 450.0 L 608.0 488.0 L 598.0 498.0 L 592.0 502.0 L 589.0 502.0 L 586.0 499.0 L 586.0 493.0 L 592.0 482.0 L 592.0 479.0 L 610.0 450.0 L 611.0 446.0 L 616.0 438.0 L 618.0 431.0 L 618.0 423.0 L 612.0 417.0 L 595.0 420.0 L 594.0 423.0 L 588.0 429.0 L 564.0 448.0 L 570.0 437.0 L 573.0 434.0 L 578.0 423.0 L 577.0 419.0 L 563.0 421.0 L 561.0 423.0 L 562.0 426.0 L 554.0 438.0 L 549.0 441.0 L 545.0 449.0 L 532.0 461.0 L 532.0 464.0 L 513.0 485.0 L 501.0 496.0 L 494.0 500.0 L 490.0 500.0 L 488.0 498.0 L 488.0 490.0 L 494.0 479.0 L 495.0 474.0 L 512.0 444.0 L 523.0 427.0 L 527.0 423.0 L 526.0 419.0 L 515.0 419.0 L 510.0 423.0 L 500.0 438.0 L 497.0 438.0 L 499.0 440.0 L 499.0 442.0 L 485.0 461.0 L 482.0 467.0 L 472.0 476.0 L 472.0 478.0 L 454.0 496.0 L 451.0 497.0 L 447.0 501.0 L 437.0 502.0 L 434.0 498.0 L 434.0 494.0 L 438.0 482.0 L 440.0 480.0 L 443.0 472.0 L 447.0 467.0 L 449.0 461.0 L 464.0 439.0 L 464.0 437.0 L 467.0 434.0 L 471.0 424.0 L 461.0 423.0 L 457.0 426.0 L 454.0 425.0 L 454.0 420.0 L 451.0 417.0 L 446.0 415.0 L 440.0 415.0 L 419.0 422.0 L 414.0 428.0 L 408.0 432.0 L 392.0 449.0 L 383.0 463.0 L 380.0 464.0 L 381.0 467.0 L 374.0 481.0 L 368.0 489.0 L 361.0 495.0 L 360.0 498.0 L 357.0 499.0 L 354.0 502.0 L 356.0 504.0 L 354.0 507.0 L 335.0 525.0 L 329.0 525.0 L 327.0 523.0 L 327.0 509.0 L 330.0 495.0 L 336.0 482.0 L 338.0 474.0 L 352.0 444.0 L 364.0 431.0 L 398.0 399.0 L 433.0 361.0 L 434.0 358.0 L 439.0 353.0 L 452.0 335.0 L 461.0 319.0 L 465.0 306.0 L 464.0 297.0 L 460.0 293.0 L 452.0 293.0 L 438.0 301.0 L 429.0 308.0 L 408.0 330.0 L 386.0 358.0 L 384.0 363.0 L 380.0 367.0 L 380.0 369.0 L 363.0 394.0 L 360.0 401.0 L 355.0 407.0 L 355.0 410.0 L 340.0 436.0 L 339.0 441.0 L 330.0 459.0 L 316.0 476.0 L 309.0 482.0 L 296.0 497.0 L 288.0 500.0 L 294.0 487.0 L 296.0 485.0 L 297.0 480.0 L 299.0 478.0 L 301.0 471.0 L 304.0 466.0 L 305.0 457.0 L 308.0 448.0 L 308.0 443.0 L 305.0 431.0 L 295.0 421.0 L 291.0 420.0 L 266.0 420.0 L 265.0 423.0 L 262.0 426.0 L 256.0 429.0 L 253.0 429.0 L 240.0 439.0 L 236.0 439.0 L 202.0 473.0 L 186.0 496.0 L 172.0 529.0 L 170.0 551.0 L 175.0 561.0 L 182.0 567.0 L 186.0 567.0 L 176.0 557.0 L 176.0 532.0 L 177.0 527.0 L 184.0 509.0 L 189.0 502.0 L 193.0 492.0 L 211.0 468.0 L 232.0 448.0 L 244.0 439.0 L 263.0 428.0 L 279.0 424.0 L 290.0 424.0 L 299.0 428.0 L 302.0 431.0 L 304.0 437.0 L 303.0 445.0 L 304.0 451.0 L 298.0 473.0 L 296.0 475.0 L 282.0 504.0 L 273.0 517.0 L 260.0 532.0 L 235.0 557.0 L 225.0 565.0 L 220.0 567.0 L 213.0 573.0 L 202.0 579.0 L 199.0 579.0 L 193.0 583.0 L 190.0 583.0 L 181.0 588.0 L 173.0 590.0 L 146.0 590.0 L 129.0 582.0 L 122.0 576.0 L 115.0 564.0 L 112.0 554.0 L 111.0 542.0 L 109.0 539.0 L 104.0 541.0 L 103.0 543.0 L 98.0 546.0 L 95.0 546.0 L 93.0 544.0 L 94.0 533.0 L 93.0 500.0 L 96.0 497.0 L 99.0 498.0 L 99.0 501.0 L 107.0 502.0 L 109.0 504.0 L 109.0 508.0 L 105.0 511.0 L 109.0 511.0 L 111.0 513.0 L 111.0 517.0 L 109.0 521.0 L 109.0 523.0 L 111.0 525.0 L 112.0 511.0 L 114.0 505.0 L 111.0 504.0 L 111.0 500.0 L 116.0 501.0 L 117.0 497.0 L 107.0 499.0 L 107.0 497.0 L 104.0 499.0 L 101.0 498.0 L 102.0 491.0 L 109.0 492.0 L 107.0 486.0 L 108.0 483.0 L 103.0 484.0 L 104.0 470.0 L 98.0 481.0 L 91.0 503.0 L 89.0 515.0 L 90.0 521.0 L 88.0 523.0 L 88.0 536.0 L 93.0 558.0 L 104.0 576.0 L 122.0 589.0 L 137.0 595.0 L 171.0 596.0 L 185.0 592.0 L 208.0 582.0 L 235.0 563.0 L 256.0 544.0 L 257.0 541.0 L 267.0 531.0 L 273.0 523.0 L 302.0 494.0 L 312.0 482.0 L 324.0 473.0 L 316.0 504.0 L 316.0 519.0 L 319.0 524.0 L 326.0 529.0 L 332.0 529.0 L 342.0 523.0 L 351.0 515.0 L 367.0 495.0 L 368.0 492.0 L 371.0 490.0 L 373.0 492.0 L 373.0 499.0 L 377.0 505.0 L 382.0 508.0 L 390.0 508.0 L 400.0 503.0 L 414.0 490.0 L 420.0 482.0 L 426.0 479.0 L 425.0 499.0 L 426.0 501.0 L 433.0 506.0 L 441.0 506.0 L 452.0 501.0 L 471.0 483.0 L 478.0 473.0 L 482.0 472.0 L 478.0 485.0 L 479.0 499.0 L 482.0 502.0 L 487.0 504.0 L 494.0 503.0 L 500.0 500.0 L 510.0 492.0 L 541.0 457.0 L 542.0 454.0 L 548.0 452.0 L 521.0 501.0 L 523.0 503.0 L 534.0 502.0 L 540.0 491.0 L 543.0 488.0 L 544.0 484.0 L 551.0 475.0 L 551.0 473.0 L 559.0 464.0 L 562.0 458.0 L 567.0 454.0 L 569.0 450.0 L 593.0 427.0 L 598.0 424.0 L 606.0 422.0 L 608.0 424.0 L 607.0 430.0 L 578.0 478.0 L 579.0 480.0 L 577.0 485.0 L 577.0 499.0 L 583.0 505.0 L 591.0 505.0 L 598.0 501.0 L 605.0 495.0 L 633.0 456.0 L 633.0 454.0 L 648.0 432.0 L 660.0 420.0 L 665.0 418.0 L 668.0 421.0 L 666.0 452.0 L 663.0 459.0 L 659.0 463.0 L 659.0 465.0 L 654.0 470.0 L 650.0 471.0 L 649.0 476.0 L 642.0 484.0 L 618.0 507.0 L 613.0 508.0 L 610.0 513.0 L 607.0 513.0 L 599.0 519.0 L 595.0 520.0 L 591.0 525.0 L 585.0 526.0 L 591.0 526.0 L 606.0 519.0 L 622.0 507.0 L 652.0 478.0 L 660.0 467.0 L 663.0 467.0 L 663.0 483.0 L 666.0 492.0 L 672.0 498.0 L 681.0 499.0 L 690.0 495.0 L 703.0 484.0 L 717.0 464.0 L 720.0 464.0 L 718.0 476.0 L 720.0 484.0 L 726.0 490.0 L 735.0 491.0 L 750.0 484.0 L 785.0 455.0 L 805.0 443.0 L 820.0 439.0 L 826.0 439.0 L 840.0 444.0 L 846.0 452.0 L 848.0 468.0 Z
M 447.0 418.0 L 452.0 424.0 L 451.0 431.0 L 446.0 443.0 L 443.0 446.0 L 442.0 450.0 L 439.0 453.0 L 436.0 459.0 L 424.0 473.0 L 418.0 482.0 L 398.0 501.0 L 387.0 504.0 L 384.0 500.0 L 385.0 490.0 L 394.0 471.0 L 403.0 456.0 L 417.0 438.0 L 428.0 427.0 L 440.0 419.0 Z
M 460.0 298.0 L 462.0 300.0 L 462.0 307.0 L 459.0 316.0 L 452.0 326.0 L 449.0 334.0 L 432.0 357.0 L 404.0 388.0 L 359.0 429.0 L 378.0 395.0 L 384.0 387.0 L 386.0 381.0 L 419.0 333.0 L 432.0 317.0 L 448.0 301.0 L 453.0 298.0 Z
M 124.0 239.0 L 121.0 249.0 L 121.0 255.0 L 119.0 257.0 L 121.0 256.0 L 125.0 245.0 Z
M 161.0 208.0 L 163.0 210.0 L 163.0 215.0 L 166.0 211.0 L 169.0 210.0 Z
M 153.0 196.0 L 157.0 198.0 L 163.0 197.0 L 166.0 199.0 L 172.0 199.0 L 172.0 197.0 L 160.0 195.0 Z
M 121.0 187.0 L 118.0 187.0 L 116.0 189.0 L 116.0 191.0 L 118.0 191.0 L 120.0 188.0 L 122.0 189.0 Z
M 210.0 182.0 L 217.0 183.0 L 215.0 181.0 L 215.0 179.0 L 218.0 176.0 Z
M 181.0 155.0 L 177.0 153.0 L 174.0 156.0 L 167.0 157.0 L 164.0 159.0 L 163.0 165.0 L 168.0 166.0 L 169.0 170.0 L 173.0 171.0 L 171.0 170.0 L 170.0 166.0 L 168.0 164.0 L 169.0 159.0 L 173.0 159.0 L 178.0 156.0 L 178.0 160.0 L 181.0 161.0 L 180.0 164.0 L 175.0 162.0 L 173.0 164.0 L 177.0 165.0 L 176.0 168.0 L 179.0 169.0 L 180.0 171.0 L 183.0 166.0 L 182.0 161.0 L 184.0 159.0 Z
M 253.0 119.0 L 251.0 127.0 L 245.0 131.0 L 242.0 131.0 L 243.0 133.0 L 247.0 132.0 L 250.0 135.0 L 253.0 146.0 L 253.0 140.0 L 255.0 137.0 L 253.0 136.0 L 254.0 133.0 L 264.0 132.0 L 263.0 130.0 L 259.0 130.0 L 254.0 126.0 Z
M 219.0 110.0 L 222.0 109.0 L 234.0 99.0 L 236.0 99.0 L 242.0 93.0 L 244.0 93.0 L 249.0 89.0 L 263.0 82.0 L 266.0 79.0 L 268.0 79.0 L 284.0 69.0 L 292.0 67.0 L 300.0 62.0 L 310.0 59.0 L 319.0 54.0 L 325.0 53.0 L 331.0 50.0 L 335.0 50.0 L 340.0 47.0 L 343.0 47.0 L 346.0 44.0 L 352.0 45.0 L 357.0 42.0 L 364.0 40.0 L 375.0 39.0 L 384.0 36.0 L 396.0 35.0 L 398.0 33.0 L 403.0 34.0 L 408.0 32.0 L 417.0 31.0 L 421.0 32.0 L 429.0 29.0 L 432.0 31.0 L 435.0 29.0 L 445.0 30.0 L 461.0 28.0 L 463.0 30.0 L 465.0 30.0 L 467.0 28.0 L 479.0 28.0 L 489.0 31.0 L 492.0 30.0 L 510.0 32.0 L 523.0 35.0 L 529.0 35.0 L 535.0 37.0 L 544.0 37.0 L 549.0 40.0 L 562.0 42.0 L 564.0 44.0 L 567.0 43.0 L 569.0 45.0 L 573.0 45.0 L 576.0 47.0 L 580.0 47.0 L 586.0 50.0 L 592.0 51.0 L 600.0 55.0 L 604.0 55.0 L 605.0 57.0 L 612.0 59.0 L 634.0 69.0 L 651.0 79.0 L 655.0 80.0 L 658.0 83.0 L 662.0 84.0 L 671.0 91.0 L 682.0 97.0 L 697.0 109.0 L 700.0 110.0 L 730.0 136.0 L 753.0 159.0 L 774.0 184.0 L 775.0 187.0 L 780.0 192.0 L 780.0 194.0 L 794.0 213.0 L 793.0 218.0 L 796.0 217.0 L 799.0 220.0 L 804.0 231.0 L 808.0 236.0 L 812.0 244.0 L 812.0 247.0 L 815.0 250.0 L 823.0 270.0 L 827.0 276.0 L 827.0 280.0 L 830.0 284.0 L 836.0 301.0 L 837.0 307.0 L 836.0 310.0 L 842.0 319.0 L 843.0 330.0 L 845.0 335.0 L 844.0 338.0 L 847.0 340.0 L 848.0 350.0 L 850.0 354.0 L 850.0 361.0 L 851.0 354.0 L 849.0 349.0 L 849.0 343.0 L 845.0 328.0 L 845.0 323.0 L 837.0 294.0 L 830.0 277.0 L 830.0 274.0 L 816.0 245.0 L 813.0 236.0 L 810.0 233.0 L 800.0 216.0 L 800.0 214.0 L 779.0 183.0 L 755.0 154.0 L 730.0 128.0 L 724.0 125.0 L 718.0 118.0 L 715.0 117.0 L 705.0 109.0 L 699.0 102.0 L 695.0 101.0 L 687.0 94.0 L 684.0 94.0 L 679.0 89.0 L 674.0 87.0 L 664.0 79.0 L 658.0 77.0 L 653.0 73.0 L 640.0 68.0 L 631.0 62.0 L 624.0 59.0 L 621.0 59.0 L 616.0 55.0 L 611.0 53.0 L 605.0 52.0 L 603.0 50.0 L 594.0 48.0 L 589.0 45.0 L 579.0 43.0 L 570.0 38.0 L 565.0 39.0 L 563.0 37.0 L 558.0 37.0 L 554.0 34.0 L 545.0 34.0 L 538.0 32.0 L 536.0 30.0 L 529.0 29.0 L 521.0 30.0 L 516.0 28.0 L 458.0 24.0 L 447.0 26.0 L 444.0 25.0 L 430.0 26.0 L 405.0 30.0 L 400.0 29.0 L 387.0 31.0 L 385.0 33.0 L 377.0 33.0 L 375.0 35.0 L 369.0 35.0 L 361.0 38.0 L 356.0 38.0 L 350.0 41.0 L 345.0 40.0 L 344.0 42.0 L 341.0 42.0 L 336.0 45.0 L 330.0 45.0 L 324.0 49.0 L 316.0 51.0 L 313.0 54.0 L 307.0 55.0 L 304.0 58.0 L 299.0 60.0 L 295.0 60.0 L 292.0 63.0 L 289.0 63.0 L 286.0 66.0 L 277.0 69.0 L 268.0 76.0 L 264.0 77.0 L 246.0 87.0 L 240.0 93.0 L 228.0 100.0 Z
M 230.0 88.0 L 243.0 80.0 L 247.0 76.0 L 262.0 69.0 L 275.0 60.0 L 279.0 59.0 L 291.0 52.0 L 296.0 52.0 L 299.0 49.0 L 304.0 48.0 L 308.0 45.0 L 321.0 40.0 L 328.0 39.0 L 337.0 35.0 L 344.0 34.0 L 346.0 32.0 L 351.0 32.0 L 354.0 30.0 L 362.0 28.0 L 372.0 27.0 L 381.0 24.0 L 397.0 21.0 L 412.0 20.0 L 418.0 18.0 L 433.0 18.0 L 443.0 16.0 L 481.0 16.0 L 526.0 21.0 L 576.0 32.0 L 587.0 37.0 L 591.0 37.0 L 604.0 43.0 L 612.0 45.0 L 617.0 48.0 L 622.0 49.0 L 626.0 52.0 L 631.0 53.0 L 646.0 60.0 L 654.0 66.0 L 666.0 71.0 L 692.0 88.0 L 716.0 106.0 L 746.0 133.0 L 761.0 150.0 L 766.0 154.0 L 771.0 162.0 L 782.0 173.0 L 782.0 175.0 L 794.0 190.0 L 797.0 197.0 L 801.0 201.0 L 817.0 226.0 L 817.0 228.0 L 825.0 241.0 L 828.0 250.0 L 831.0 254.0 L 832.0 259.0 L 837.0 268.0 L 850.0 305.0 L 853.0 323.0 L 856.0 328.0 L 855.0 335.0 L 858.0 334.0 L 859.0 347.0 L 861.0 349.0 L 865.0 376.0 L 865.0 368.0 L 860.0 336.0 L 853.0 306.0 L 849.0 296.0 L 846.0 283.0 L 830.0 243.0 L 828.0 241.0 L 824.0 231.0 L 819.0 224.0 L 810.0 206.0 L 803.0 197.0 L 800.0 189.0 L 796.0 186.0 L 787.0 174.0 L 787.0 172.0 L 766.0 147.0 L 729.0 110.0 L 726.0 109.0 L 701.0 88.0 L 698.0 87.0 L 686.0 78.0 L 684.0 78.0 L 681.0 75.0 L 659.0 63.0 L 656.0 60.0 L 651.0 59.0 L 640.0 52.0 L 633.0 50.0 L 630.0 47.0 L 626.0 47.0 L 622.0 44.0 L 619.0 44.0 L 613.0 41.0 L 611.0 39.0 L 589.0 33.0 L 582.0 29.0 L 577.0 29.0 L 565.0 26.0 L 559.0 23.0 L 557.0 24.0 L 547.0 20.0 L 541.0 21.0 L 535.0 18.0 L 531.0 19.0 L 525.0 16.0 L 519.0 17.0 L 507.0 14.0 L 487.0 13.0 L 483.0 14.0 L 442.0 13.0 L 425.0 14.0 L 411.0 17.0 L 402.0 17.0 L 397.0 19.0 L 384.0 20.0 L 382.0 22.0 L 376.0 23.0 L 363.0 23.0 L 358.0 27.0 L 354.0 27.0 L 341.0 31.0 L 339.0 33.0 L 335.0 33.0 L 332.0 35.0 L 324.0 36.0 L 319.0 39.0 L 314.0 39.0 L 307.0 44.0 L 304.0 44.0 L 297.0 49.0 L 287.0 51.0 L 275.0 59.0 L 260.0 66.0 L 249.0 73.0 L 241.0 80.0 L 238.0 81.0 Z
M 189.0 5.0 L 186.0 12.0 L 187.0 23.0 L 185.0 37.0 L 186.0 41.0 L 185.0 56.0 L 183.0 63.0 L 183.0 72.0 L 181.0 75.0 L 182.0 78.0 L 178.0 87.0 L 180.0 89.0 L 178.0 102.0 L 176.0 105.0 L 176.0 109.0 L 174.0 111.0 L 174.0 116.0 L 172.0 118.0 L 170.0 127.0 L 166.0 130.0 L 162.0 142.0 L 157.0 146.0 L 156.0 150.0 L 143.0 164.0 L 140.0 164.0 L 136.0 167.0 L 132.0 172.0 L 127.0 173.0 L 121.0 177.0 L 110.0 181.0 L 99.0 182.0 L 96.0 184.0 L 92.0 184.0 L 88.0 186.0 L 78.0 188.0 L 55.0 190.0 L 41.0 189.0 L 38.0 191.0 L 25.0 191.0 L 18.0 193.0 L 77.0 196.0 L 81.0 198.0 L 92.0 199.0 L 105.0 203.0 L 109.0 203.0 L 111.0 205.0 L 115.0 205.0 L 119.0 208.0 L 124.0 209.0 L 138.0 217.0 L 145.0 222.0 L 150.0 228.0 L 153.0 229.0 L 153.0 232.0 L 158.0 236.0 L 159.0 239.0 L 163.0 243.0 L 164.0 247.0 L 167.0 250.0 L 167.0 253.0 L 174.0 265.0 L 178.0 285.0 L 182.0 298.0 L 181.0 308.0 L 172.0 306.0 L 149.0 305.0 L 140.0 306.0 L 131.0 309.0 L 122.0 308.0 L 109.0 316.0 L 98.0 317.0 L 99.0 319.0 L 97.0 321.0 L 88.0 325.0 L 84.0 324.0 L 84.0 327.0 L 82.0 329.0 L 77.0 331.0 L 58.0 348.0 L 42.0 367.0 L 36.0 378.0 L 29.0 396.0 L 27.0 417.0 L 32.0 430.0 L 38.0 437.0 L 50.0 443.0 L 57.0 443.0 L 59.0 441.0 L 48.0 440.0 L 40.0 435.0 L 34.0 427.0 L 32.0 417.0 L 33.0 399.0 L 40.0 381.0 L 49.0 368.0 L 49.0 366.0 L 77.0 338.0 L 96.0 326.0 L 115.0 317.0 L 128.0 313.0 L 153.0 309.0 L 167.0 309.0 L 181.0 311.0 L 184.0 314.0 L 185.0 317.0 L 185.0 329.0 L 187.0 341.0 L 186.0 358.0 L 189.0 365.0 L 191.0 338.0 L 193.0 328.0 L 193.0 317.0 L 196.0 314.0 L 200.0 314.0 L 214.0 317.0 L 218.0 319.0 L 222.0 319.0 L 226.0 321.0 L 227.0 338.0 L 233.0 347.0 L 243.0 356.0 L 242.0 359.0 L 239.0 360.0 L 236.0 359.0 L 230.0 363.0 L 224.0 365.0 L 219.0 365.0 L 208.0 372.0 L 203.0 373.0 L 201.0 375.0 L 193.0 378.0 L 190.0 381.0 L 185.0 382.0 L 184.0 384.0 L 174.0 391.0 L 172.0 391.0 L 153.0 406.0 L 135.0 423.0 L 120.0 441.0 L 118.0 445.0 L 116.0 446.0 L 114.0 452.0 L 106.0 464.0 L 105.0 468.0 L 107.0 469.0 L 108.0 472.0 L 110.0 459.0 L 112.0 457.0 L 121.0 458.0 L 124.0 456.0 L 125.0 453.0 L 124.0 448.0 L 125.0 439.0 L 130.0 433.0 L 134.0 432.0 L 134.0 430.0 L 138.0 425.0 L 147.0 424.0 L 149.0 426.0 L 149.0 428.0 L 147.0 429.0 L 147.0 431.0 L 150.0 433.0 L 148.0 441.0 L 142.0 442.0 L 143.0 447.0 L 142.0 451.0 L 146.0 443.0 L 150.0 440.0 L 160.0 427.0 L 179.0 408.0 L 204.0 388.0 L 209.0 386.0 L 218.0 379.0 L 222.0 378.0 L 225.0 375.0 L 227.0 375.0 L 233.0 371.0 L 253.0 362.0 L 258.0 362.0 L 271.0 365.0 L 281.0 365.0 L 288.0 363.0 L 289.0 358.0 L 287.0 356.0 L 282.0 356.0 L 277.0 354.0 L 252.0 355.0 L 244.0 348.0 L 241.0 343.0 L 240.0 333.0 L 241.0 326.0 L 243.0 324.0 L 282.0 325.0 L 293.0 324.0 L 310.0 320.0 L 322.0 315.0 L 325.0 315.0 L 347.0 303.0 L 360.0 293.0 L 375.0 276.0 L 381.0 263.0 L 381.0 250.0 L 376.0 242.0 L 367.0 237.0 L 342.0 236.0 L 336.0 238.0 L 330.0 238.0 L 327.0 240.0 L 323.0 240.0 L 321.0 242.0 L 306.0 246.0 L 290.0 255.0 L 287.0 255.0 L 279.0 261.0 L 276.0 261.0 L 266.0 270.0 L 264.0 270.0 L 244.0 288.0 L 234.0 302.0 L 230.0 310.0 L 229.0 315.0 L 225.0 318.0 L 220.0 317.0 L 215.0 314.0 L 206.0 313.0 L 197.0 310.0 L 195.0 308.0 L 197.0 289.0 L 199.0 287.0 L 201.0 274.0 L 203.0 272.0 L 204.0 266.0 L 209.0 257.0 L 209.0 253.0 L 211.0 251.0 L 211.0 248.0 L 214.0 246.0 L 214.0 244.0 L 219.0 235.0 L 243.0 213.0 L 250.0 211.0 L 255.0 207.0 L 262.0 206.0 L 266.0 203.0 L 271.0 203.0 L 284.0 199.0 L 290.0 199.0 L 295.0 197.0 L 298.0 198.0 L 305.0 195.0 L 320.0 195.0 L 323.0 193.0 L 332.0 194.0 L 345.0 192.0 L 351.0 193.0 L 354.0 191.0 L 315.0 189.0 L 307.0 187.0 L 298.0 187.0 L 296.0 185.0 L 292.0 185.0 L 288.0 183.0 L 270.0 182.0 L 242.0 170.0 L 234.0 164.0 L 224.0 154.0 L 215.0 143.0 L 208.0 130.0 L 208.0 127.0 L 204.0 121.0 L 203.0 115.0 L 201.0 113.0 L 198.0 95.0 L 196.0 92.0 L 197.0 89.0 L 194.0 84.0 L 195.0 79.0 L 192.0 69.0 L 193.0 66.0 L 191.0 58.0 L 192.0 54.0 L 190.0 51.0 L 192.0 49.0 L 189.0 39.0 L 191.0 36.0 L 189.0 33.0 L 190.0 28.0 L 188.0 23.0 Z
M 149.0 421.0 L 151.0 419.0 L 156.0 421.0 L 151.0 424.0 Z
M 160.0 407.0 L 162.0 407.0 L 166.0 413.0 L 166.0 416.0 L 163.0 422.0 L 158.0 422.0 L 157.0 416.0 L 155.0 416.0 L 154.0 412.0 L 155.0 410.0 Z
M 376.0 248.0 L 378.0 253.0 L 378.0 261.0 L 371.0 276.0 L 353.0 295.0 L 340.0 304.0 L 330.0 309.0 L 324.0 308.0 L 324.0 310.0 L 322.0 312.0 L 314.0 314.0 L 312.0 316.0 L 306.0 318.0 L 299.0 317.0 L 294.0 321.0 L 261.0 323.0 L 260.0 322.0 L 246.0 321.0 L 244.0 318.0 L 250.0 308.0 L 257.0 300.0 L 276.0 282.0 L 291.0 270.0 L 323.0 250.0 L 335.0 245.0 L 353.0 240.0 L 368.0 241.0 Z
M 174.0 237.0 L 178.0 237.0 L 179.0 241.0 L 173.0 240.0 Z
M 165.0 236.0 L 168.0 237.0 L 168.0 241.0 L 164.0 240.0 Z
M 200.0 235.0 L 203.0 234.0 L 204.0 236.0 L 207.0 237.0 L 209.0 242.0 L 205.0 243.0 L 205.0 241.0 L 202.0 241.0 L 200.0 239.0 Z
M 151.0 222.0 L 156.0 223.0 L 153.0 229.0 L 151.0 225.0 Z
M 224.0 216.0 L 228.0 216.0 L 230.0 213.0 L 233.0 213.0 L 236.0 217.0 L 231.0 218.0 Z
M 140.0 209.0 L 144.0 209.0 L 144.0 211.0 L 142.0 213.0 L 139.0 212.0 Z
M 233.0 205.0 L 232.0 209.0 L 228.0 210.0 L 225.0 209.0 L 226.0 206.0 L 229.0 204.0 Z
M 143.0 200.0 L 146.0 201.0 L 145.0 205.0 L 142.0 204.0 Z
M 140.0 196.0 L 142.0 198.0 L 141.0 201.0 L 138.0 202.0 L 135.0 201.0 L 136.0 197.0 Z
M 234.0 197.0 L 237.0 197.0 L 240.0 195.0 L 246.0 202.0 L 253.0 203.0 L 252.0 206.0 L 246.0 207.0 L 240.0 205.0 L 241.0 203.0 L 236.0 200.0 Z
M 248.0 179.0 L 247.0 182.0 L 243.0 181.0 L 241.0 184.0 L 238.0 185.0 L 235.0 183.0 L 242.0 179.0 L 244.0 176.0 L 247.0 177.0 Z
M 238.0 172.0 L 237.0 178.0 L 232.0 179.0 L 233.0 183.0 L 229.0 185.0 L 227.0 182.0 L 230.0 176.0 L 234.0 172.0 Z
M 140.0 177.0 L 144.0 177.0 L 144.0 172.0 L 148.0 171.0 L 150.0 174.0 L 148.0 175.0 L 147.0 178.0 L 150.0 177.0 L 152.0 178.0 L 156.0 185.0 L 146.0 184.0 L 146.0 180.0 L 141.0 181.0 Z
M 141.0 175.0 L 138.0 177.0 L 137.0 185.0 L 129.0 179.0 L 127.0 181.0 L 124.0 179.0 L 129.0 175.0 L 136.0 175.0 L 140.0 171.0 Z
M 196.0 137.0 L 197.0 140.0 L 195.0 143.0 L 192.0 143.0 L 195.0 137.0 Z
M 206.0 132.0 L 209.0 136.0 L 208.0 139.0 L 209.0 145.0 L 202.0 145.0 L 202.0 143.0 L 204.0 142.0 L 202.0 137.0 L 204.0 137.0 L 203.0 134.0 Z
M 199.0 130.0 L 201.0 132.0 L 200.0 135.0 L 196.0 135.0 L 197.0 131.0 Z
M 187.0 62.0 L 190.0 63.0 L 191.0 74.0 L 193.0 77.0 L 190.0 82.0 L 192.0 87.0 L 192.0 91.0 L 190.0 93.0 L 190.0 98.0 L 193.0 99.0 L 195.0 97.0 L 196.0 102.0 L 198.0 104.0 L 197.0 108.0 L 191.0 107.0 L 190.0 109.0 L 191.0 112.0 L 201.0 112.0 L 200.0 117.0 L 196.0 121.0 L 202.0 122.0 L 205.0 126.0 L 202.0 129.0 L 199.0 129.0 L 196.0 131.0 L 195.0 134.0 L 192.0 136.0 L 191.0 145.0 L 193.0 150.0 L 194.0 148.0 L 196.0 149.0 L 197.0 147.0 L 200.0 146.0 L 201.0 148.0 L 204.0 148.0 L 212.0 156.0 L 212.0 161.0 L 207.0 162.0 L 205.0 165.0 L 201.0 165.0 L 197.0 163.0 L 196.0 161.0 L 200.0 158.0 L 203.0 159.0 L 204.0 157.0 L 208.0 156.0 L 199.0 154.0 L 194.0 160.0 L 197.0 165.0 L 196.0 169.0 L 199.0 169.0 L 200.0 171.0 L 205.0 172.0 L 203.0 168.0 L 205.0 168.0 L 206.0 170.0 L 209.0 169.0 L 210.0 165.0 L 215.0 163.0 L 218.0 160.0 L 217.0 157.0 L 221.0 156.0 L 220.0 164.0 L 204.0 181.0 L 204.0 183.0 L 217.0 170.0 L 220.0 173.0 L 220.0 175.0 L 223.0 172.0 L 221.0 170.0 L 221.0 167.0 L 223.0 165.0 L 227.0 166.0 L 226.0 171.0 L 228.0 174.0 L 227.0 183.0 L 225.0 186.0 L 227.0 188.0 L 232.0 187.0 L 233.0 185.0 L 236.0 185.0 L 241.0 187.0 L 241.0 188.0 L 248.0 190.0 L 251.0 188.0 L 253.0 183.0 L 261.0 183.0 L 261.0 187.0 L 258.0 189.0 L 261.0 189.0 L 261.0 188.0 L 265.0 187.0 L 266.0 188.0 L 271.0 188.0 L 271.0 191.0 L 269.0 193.0 L 260.0 193.0 L 253.0 195.0 L 227.0 194.0 L 217.0 195.0 L 211.0 197.0 L 212.0 200.0 L 213.0 198.0 L 216.0 198.0 L 220.0 201.0 L 223.0 197.0 L 226.0 198.0 L 225.0 201.0 L 228.0 202.0 L 223.0 206.0 L 219.0 207.0 L 221.0 208.0 L 221.0 212.0 L 219.0 213.0 L 218.0 219.0 L 223.0 223.0 L 223.0 225.0 L 218.0 227.0 L 218.0 224.0 L 210.0 217.0 L 206.0 219.0 L 206.0 216.0 L 208.0 215.0 L 206.0 212.0 L 202.0 216.0 L 205.0 217.0 L 205.0 220.0 L 202.0 220.0 L 203.0 223.0 L 200.0 226.0 L 202.0 227.0 L 201.0 231.0 L 198.0 233.0 L 196.0 230.0 L 198.0 228.0 L 194.0 228.0 L 194.0 226.0 L 199.0 221.0 L 199.0 217.0 L 195.0 216.0 L 196.0 220.0 L 192.0 228.0 L 194.0 229.0 L 194.0 232.0 L 199.0 235.0 L 196.0 241.0 L 193.0 240.0 L 192.0 244.0 L 197.0 243.0 L 201.0 245.0 L 200.0 248.0 L 195.0 246.0 L 196.0 251.0 L 191.0 258.0 L 194.0 263.0 L 193.0 267.0 L 191.0 269.0 L 192.0 272.0 L 190.0 274.0 L 187.0 286.0 L 187.0 274.0 L 185.0 272.0 L 186.0 258.0 L 183.0 254.0 L 183.0 251.0 L 178.0 253.0 L 175.0 249.0 L 181.0 245.0 L 184.0 248.0 L 186.0 248.0 L 184.0 245.0 L 185.0 230.0 L 183.0 218.0 L 183.0 209.0 L 183.0 217.0 L 181.0 225.0 L 177.0 226.0 L 175.0 228.0 L 178.0 230.0 L 177.0 234.0 L 173.0 233.0 L 172.0 226.0 L 166.0 222.0 L 167.0 220.0 L 173.0 219.0 L 175.0 221.0 L 175.0 223.0 L 176.0 219.0 L 172.0 218.0 L 172.0 214.0 L 168.0 216.0 L 162.0 222.0 L 162.0 224.0 L 169.0 229.0 L 169.0 233.0 L 159.0 231.0 L 161.0 229.0 L 156.0 224.0 L 159.0 221.0 L 159.0 219.0 L 161.0 218.0 L 158.0 215.0 L 157.0 210.0 L 155.0 208.0 L 156.0 204.0 L 160.0 203.0 L 160.0 200.0 L 154.0 206.0 L 150.0 206.0 L 152.0 201.0 L 147.0 199.0 L 147.0 197.0 L 149.0 195.0 L 105.0 194.0 L 104.0 190.0 L 112.0 191.0 L 113.0 188.0 L 123.0 180.0 L 125.0 183.0 L 128.0 184.0 L 131.0 183.0 L 134.0 184.0 L 137.0 187.0 L 138.0 185.0 L 145.0 184.0 L 146.0 187.0 L 154.0 186.0 L 159.0 187.0 L 160.0 182.0 L 157.0 181.0 L 152.0 174.0 L 153.0 171.0 L 157.0 169.0 L 162.0 170.0 L 169.0 177.0 L 168.0 181.0 L 170.0 183.0 L 174.0 182.0 L 161.0 167.0 L 153.0 167.0 L 157.0 164.0 L 155.0 163.0 L 152.0 158.0 L 160.0 159.0 L 158.0 158.0 L 159.0 152.0 L 163.0 152.0 L 162.0 156.0 L 164.0 152.0 L 169.0 150.0 L 169.0 146.0 L 172.0 145.0 L 167.0 145.0 L 165.0 147.0 L 162.0 145.0 L 164.0 143.0 L 166.0 143.0 L 166.0 140.0 L 169.0 134.0 L 171.0 134.0 L 174.0 137.0 L 174.0 139.0 L 179.0 140.0 L 182.0 142.0 L 181.0 147.0 L 184.0 150.0 L 182.0 141.0 L 179.0 140.0 L 177.0 135.0 L 172.0 134.0 L 170.0 130.0 L 171.0 128.0 L 174.0 127.0 L 176.0 129.0 L 175.0 131.0 L 179.0 130.0 L 184.0 131.0 L 186.0 133.0 L 185.0 131.0 L 186.0 121.0 L 185.0 118.0 L 180.0 125.0 L 174.0 124.0 L 175.0 120.0 L 179.0 119.0 L 182.0 114.0 L 185.0 113.0 L 186.0 115.0 L 187.0 112.0 L 186.0 108.0 L 183.0 111.0 L 180.0 111.0 L 182.0 112.0 L 182.0 114.0 L 179.0 116.0 L 176.0 111.0 L 180.0 108.0 L 179.0 104.0 L 180.0 99.0 L 183.0 98.0 L 187.0 99.0 L 181.0 96.0 L 182.0 93.0 L 181.0 90.0 L 187.0 87.0 L 183.0 86.0 L 184.0 80.0 L 186.0 80.0 L 186.0 77.0 L 188.0 74.0 L 185.0 66.0 L 185.0 64.0 Z
M 187.0 54.0 L 190.0 55.0 L 190.0 59.0 L 188.0 61.0 L 185.0 60.0 Z"/>
</svg>
