<svg id="图层_1" data-name="图层 1" xmlns="http://www.w3.org/2000/svg" xmlns:xlink="http://www.w3.org/1999/xlink" viewBox="0 0 800 800"><defs><style>.cls-1{fill:url(#未命名的渐变_26);}.cls-2{fill:url(#未命名的渐变_7);}.cls-3{fill:url(#未命名的渐变_7-2);}.cls-4{fill:url(#未命名的渐变_7-3);}.cls-5{fill:url(#未命名的渐变_12);}.cls-6{fill:url(#未命名的渐变_11);}.cls-7{fill:#372d21;}.cls-8{fill:url(#未命名的渐变_358);}.cls-9{fill:url(#未命名的渐变_7-4);}.cls-10{fill:url(#未命名的渐变_26-2);}.cls-11{fill:url(#未命名的渐变_26-3);}.cls-12{fill:url(#未命名的渐变_26-4);}</style><linearGradient id="未命名的渐变_26" x1="233.76" y1="531.03" x2="370.04" y2="629.4" gradientUnits="userSpaceOnUse"><stop offset="0" stop-color="#dfcb98"/><stop offset="0.18" stop-color="#c8ab6e"/><stop offset="0.57" stop-color="#c8ab6e"/><stop offset="0.88" stop-color="#c8ab6e"/><stop offset="1" stop-color="#dfcb98"/></linearGradient><linearGradient id="未命名的渐变_7" x1="252.23" y1="173.06" x2="327.52" y2="340.4" gradientUnits="userSpaceOnUse"><stop offset="0" stop-color="#dfcb98"/><stop offset="1" stop-color="#a37c3b"/></linearGradient><linearGradient id="未命名的渐变_7-2" x1="160.75" y1="214.9" x2="235.43" y2="380.89" xlink:href="#未命名的渐变_7"/><linearGradient id="未命名的渐变_7-3" x1="366.49" y1="307.39" x2="649.36" y2="711.84" xlink:href="#未命名的渐变_7"/><radialGradient id="未命名的渐变_12" cx="223.52" cy="201.2" r="159.19" gradientUnits="userSpaceOnUse"><stop offset="0" stop-color="#e3cd93"/><stop offset="1" stop-color="#a37c3b"/></radialGradient><radialGradient id="未命名的渐变_11" cx="236.16" cy="246.82" r="28.19" gradientUnits="userSpaceOnUse"><stop offset="0" stop-color="#fff"/><stop offset="1" stop-color="#e9e5d9"/></radialGradient><radialGradient id="未命名的渐变_358" cx="233.89" cy="247.48" r="19.8" gradientUnits="userSpaceOnUse"><stop offset="0.31" stop-color="#fff"/><stop offset="1" stop-color="#fff" stop-opacity="0"/></radialGradient><linearGradient id="未命名的渐变_7-4" x1="565.8" y1="306.01" x2="620.77" y2="403.69" xlink:href="#未命名的渐变_7"/><linearGradient id="未命名的渐变_26-2" x1="331.76" y1="144.32" x2="670.93" y2="345.26" xlink:href="#未命名的渐变_26"/><linearGradient id="未命名的渐变_26-3" x1="344.45" y1="148.6" x2="673.28" y2="343.42" xlink:href="#未命名的渐变_26"/><linearGradient id="未命名的渐变_26-4" x1="229.82" y1="536.48" x2="366.1" y2="634.86" xlink:href="#未命名的渐变_26"/></defs><title>elainxl [已恢复]</title><path class="cls-1" d="M386.59,625.32A233.25,233.25,0,0,1,218.27,509.78C246.77,558.75,322.08,615.15,386.59,625.32Z"/><path class="cls-2" d="M271.46,207.77c.87,4.51,2.73,7.31,7.24,7.83-4.3,1.61-7.17,3.92-7.52,8.79-.76-4.18-2.29-7.5-7-8.52C268.53,215.07,270.46,212.22,271.46,207.77Z"/><path class="cls-3" d="M185.5,280.84c2.74-.43,4-2,4.68-5.16.47,2.92,1.64,4.89,5.07,4.95-3.14.48-4.72,2-5.13,5.07C189.71,282.93,188.8,281.2,185.5,280.84Z"/><path class="cls-4" d="M571,544.67c0,.1,0,.21,0,.32C571,544.79,571,544.67,571,544.67ZM659.84,458a12.06,12.06,0,0,0-5.73,1.88,21.73,21.73,0,0,0-6.77,6.59,23.23,23.23,0,0,0-3.61,8.62,10,10,0,0,1-2.42,4.83c-1.74,2-3.92,3.67-4.29,6.58,0,.41-.76.74-1.16,1.11a2.49,2.49,0,0,1,.14-1.4c.64-1.55,1.31-3.08,2-4.62.86-2,1.79-4,2.54-6,.9-2.44,1.64-4.95,2.45-7.42.57-1.7,1.12-3.41,1.71-5.1.82-2.34,1.75-4.66,2.5-7a32.85,32.85,0,0,0,.81-4c.58-3.18,1.4-6.28.76-9.63a20.64,20.64,0,0,0-2.92-7.5c-1.47-2.25-1.85-2.37-3.39-.24a20.69,20.69,0,0,0-3.81,8,12.56,12.56,0,0,0-.34,4.12c.37,2.46,1.29,4.85,1.59,7.32.32,2.7.17,5.46.29,8.19a30.71,30.71,0,0,1-1.7,10.14,16.43,16.43,0,0,1-.78,2.27c-1.07,2.47-2.19,4.91-3.3,7.36-.79,1.75-1.56,3.5-2.39,5.23q-1.89,4-3.86,8c-1.25,2.53-2.45,5.1-3.83,7.55-2.48,4.41-5.08,8.75-7.64,13.12-.35.59-.76,1.16-1.14,1.73-.1-7.14.49-14.1,3.45-20.78a4.21,4.21,0,0,1-1.24,0c-.29-.13-.74-.47-.72-.66a19.23,19.23,0,0,1,.77-3.87,65.83,65.83,0,0,1,2.62-6.12c.53-1.1.87-2.46,2.34-2.82,1.09-.27,2.2-.49,3.27-.84a23.85,23.85,0,0,0,4.23-1.58c2.09-1.14,2.93-3.24,3.45-5.44a3.15,3.15,0,0,0-1.25-3.49c-.82-.6-1.67-1.16-2.65-1.83a5.53,5.53,0,0,0,2.24-3.14,5.77,5.77,0,0,1,.62-1.34,50.74,50.74,0,0,0,2.41-5.26,29.51,29.51,0,0,0,.92-4.89c.42-2.63-.55-3.72-3-4a13,13,0,0,0-9.09,2.51c-.82.56-1.13.35-1.42-.44a11.93,11.93,0,0,0-1-2.34,21.1,21.1,0,0,0-6.49-6.71,1.82,1.82,0,0,0-2.11-.12c-4.27,2.07-6.69,5.57-8.08,9.95-.25.78-.53,1.56-.82,2.4l-1.19-.49a24.91,24.91,0,0,0-4.34-1.71,15.69,15.69,0,0,0-8.53.49,2.57,2.57,0,0,0-1.81,2.6c.07,1,.26,2,.4,3a17.77,17.77,0,0,0,2.68,7.39c1,1.6,1.22,2.14.79,3.13-.66-.46-1.32-.89-1.94-1.38s-1.29-1.09-1.92-1.65c-1.8-1.58-3.94-1.51-4.56.9a21.23,21.23,0,0,0-.54,3.73,13.12,13.12,0,0,0,1.65,6.91,47,47,0,0,0,4,6.2c1.68,2.3,3.24,4.8,5.37,6.59a72.18,72.18,0,0,0,9.22,6.16c5.84,3.54,8.61,8.87,9.16,15.47a19.25,19.25,0,0,1-2.15,9.51c-1.61,3.51-3.67,6.81-5.56,10.18a1.71,1.71,0,0,1-1.9.9,51.27,51.27,0,0,0-6.07-.16,37.17,37.17,0,0,0-4.27.59c.8-1.71,1.45-3.27,2.23-4.76,1-1.92,2.17-3.76,3.13-5.71a38.31,38.31,0,0,0,2.52-6,16.89,16.89,0,0,0,.71-5.64,18,18,0,0,0-2.64-8.84,16.41,16.41,0,0,0-2.65-3.21,14.2,14.2,0,0,0-2.87-1.65c-.22-.12-.51-.34-.7-.28-2.46.78-4.83,1.67-6.43,3.93-2.07,2.95-4.13,5.87-5.09,9.43a14.56,14.56,0,0,0,.65,10.39c.69,1.48,1.22,3,1.82,4.55a2.25,2.25,0,0,1-.89-.73c-2-2.7-4-5.35-6.87-7.22-1.66-1.09-3.39-2-5.43-1.39a26.52,26.52,0,0,0-4.35,1.87,26.83,26.83,0,0,0-10.08,9.9c-.84,1.35-1.55,2.77-2.37,4.24a18.14,18.14,0,0,0-13.41-4,42.23,42.23,0,0,0-8.64,1.9c-3.5,1.08-5.92,6.26-4.94,9.74.79,2.85,1.35,5.78,2,8.67a12,12,0,0,0,2.39,5.16c1.4,1.58,3,3,4.45,4.53.4.42,1,.79.26,1.59a6.69,6.69,0,0,0-1.5,2.54c-.86,2.83-1.56,5.72-2.34,8.57a9.34,9.34,0,0,1-.51,1.21c-.23-.05-.4,0-.45-.11-1.49-2.15-3.07-4.25-4.42-6.49a4.41,4.41,0,0,1-.54-3,34.8,34.8,0,0,0,1.17-8.85,16.65,16.65,0,0,0-2.19-8.4,1.83,1.83,0,0,0-2.88-.74c-.51.33-1,.76-1.44,1.14-.3.23-.63.45-.95.67-.61-1.21-1.14-2.28-1.69-3.33a23.43,23.43,0,0,0-7.24-8.62c-2.27-1.6-4.63-1.74-6.85.45A12.65,12.65,0,0,0,500,544a57.15,57.15,0,0,0-.34,6.3,1.17,1.17,0,0,1-.33.09c-.74-.06-1.48-.12-2.22-.2-4.9-.54-9.63-.34-13.74,2.92a3.5,3.5,0,0,0-1.7,3.17c.14,1.58.3,3.16.44,4.74.31,3.48,1.93,6.41,3.86,9.21.74,1.08.73,1.36-.56,1.66a14.83,14.83,0,0,0-7.06,4.33c-2.78,2.78-3.15,5.54.33,8a29.68,29.68,0,0,0,5.61,3.08,15.31,15.31,0,0,0,7.55,1.58,31.79,31.79,0,0,1,3.52,0,5.43,5.43,0,0,1,.89.16c-3.24,4.47-3.76,6.75-2.86,11.21.24,1.18.75,1.47,1.89,1.45a24.9,24.9,0,0,0,11.43-3.1,10.63,10.63,0,0,0,4.61-4.3q1.71-3.16,3.47-6.28a2.75,2.75,0,0,1,2.59-1.8c3.5.22,7,.36,10.5.78a24.46,24.46,0,0,1,4.76,1.48c1.82.63,3.61,1.32,5.42,2,.85.3,1.72.55,2.77.88a4,4,0,0,1-.55.35c-2.1.77-4.25,1.43-6.3,2.33a5.68,5.68,0,0,1-3.17.3c-3.13-.36-6.26-.77-9.4-1a6.31,6.31,0,0,0-5.1,2.08c-.4.43-.77,1,.17,1.35l6.13,2.08c.36.12.73.2,1.15.32a43.1,43.1,0,0,1-5.31,2.82c-2.39,1.06-4.78,2.18-7.25,3-3.3,1.16-6.77,1.06-10.21.84a18.67,18.67,0,0,1-6.28-1.84c-2.64-1.16-5.07-2.87-8.05-3.22a1.53,1.53,0,0,1-.89-.65c-1.16-1.73-2.22-3.53-3.4-5.25-2.62-3.79-5.54-7.28-10.36-8.28-4.34-.91-8.63-1.7-12.71,1.33a2.82,2.82,0,0,0-1.32,2.61,17.27,17.27,0,0,0,2.91,8.24,17.84,17.84,0,0,0,6.46,6,18.73,18.73,0,0,0,6.9,2.24c2.47.3,5,.44,7.43.76a29.87,29.87,0,0,1,3,.85c2.14.53,4.29,1,6.43,1.54a12.24,12.24,0,0,1,1.86.86c-.87.27-1.43.41-2,.6-2.43.87-4.84,1.78-7.27,2.64-1.77.62-3.56,1.23-5.37,1.76a53.82,53.82,0,0,1-5.84,1.51c-2.71.49-5.07-.75-7-2.37-2.58-2.13-4.88-4.6-7.25-7a29.36,29.36,0,0,1-3.11-3.57c-.85-1.16-1.35-2.58-2.2-3.75a16.15,16.15,0,0,0-8.43-6,28.62,28.62,0,0,0-5.32-1.12,2.41,2.41,0,0,0-2.64,2.46,17.51,17.51,0,0,0,.86,5.34,19.79,19.79,0,0,0,9.26,9.92c2,1.09,4.11,1.86,5.69,3.58a4.77,4.77,0,0,0,1.55,1.12A45.82,45.82,0,0,0,465.44,620c.18,0,.34.2.66.4a3.7,3.7,0,0,1-.55.22c-3,.42-6,.82-9,1.26-2.08.31-4.17.57-6.21,1.07a14.42,14.42,0,0,1-7.16-.49,11.52,11.52,0,0,1-6-4.39,26.58,26.58,0,0,0-6.33-6,25.39,25.39,0,0,0-8.8-3.9,34.28,34.28,0,0,0-4.36-.35c-.51,1.77,1.31,5.58,2.81,7.15,5.15,5.41,11.29,9,18.81,9.88a7.79,7.79,0,0,1,1,.29,5.77,5.77,0,0,1-1,.37c-2.77.4-5.54.86-8.33,1.16a10.66,10.66,0,0,1-3.47-.21,91.13,91.13,0,0,1-9.06-2.47,31.45,31.45,0,0,1-6.56-3.22c-1.7-1.09-3-2.72-4.63-4a17.78,17.78,0,0,0-7.68-3.76,13.58,13.58,0,0,0-6.91.65c-.68.21-1.24.74-.77,1.56a14.32,14.32,0,0,0,2.06,3.21c3.71,3.65,8.33,5.3,13.45,5.76,1.82.16,3.65.31,5.46.6a18.22,18.22,0,0,1,3.12.91,17.78,17.78,0,0,1,1.91,1,22.76,22.76,0,0,0-3.13.66,24.5,24.5,0,0,0-3.7,1.75,12.63,12.63,0,0,0-4.65,4.18c-.31.5-.42,1.12.35,1.44a11.29,11.29,0,0,0,8.14.87c3.79-.56,6.95-2.34,10.19-4.1a19.71,19.71,0,0,1,5.37-2.27c4.72-1,9.51-1.55,14.26-2.35,3.87-.65,7.72-1.39,11.58-2.1,1.41-.27,2.82-.54,4.22-.88,2.62-.65,5.22-1.37,7.84-2,1.61-.41,3.24-.77,4.86-1.13s3.39-.72,5.09-1.08l.14.25-5.74,4.81c-.54-.35-.89-.76-1.12-.7a45.37,45.37,0,0,0-6.8,1.82,18,18,0,0,1-6.06,1.68,36.63,36.63,0,0,0-6.33.94,12.84,12.84,0,0,0-3.9,1.62c-4,2.52-5.6,6.67-7.11,10.84a2.74,2.74,0,0,0,.81,3,6.34,6.34,0,0,0,4.65,1.94c2.36-.06,4.73-.28,7.08-.5a13.08,13.08,0,0,0,6.35-2.71,19.15,19.15,0,0,0,3.86-4.07c.93-1.21,2.55-1.87,3.76-2.89,3.14-2.62,5.45-6,7.89-9.2a23.06,23.06,0,0,1,7.32-6.75c2.78-1.5,5.54-3,8.34-4.48a1.48,1.48,0,0,1,2.13.43,30.83,30.83,0,0,0,2,2.42l-1.2.23c-1.3.24-2.6.45-3.89.73a14.29,14.29,0,0,0-8.7,5.66c-1.64,2.2-1.76,4.47.35,6.59s5,2.94,7.65,4c.85.35,1.18.74,1,1.61-.26,1.69-.49,3.38-.75,5.07-.46,3,.73,5.79,1.39,8.63a1.48,1.48,0,0,0,.84.84,11,11,0,0,0,2.44.67,17.23,17.23,0,0,0,11.38-2.25c.84-.5,1.12-.18,1.33.49a14.24,14.24,0,0,0,7.15,8.78c3.31,1.72,4.42,1.57,6.15-1.41a72.11,72.11,0,0,0,3.8-8.5c.47-1.13.73-1.27,1.88-.81s2.22.74,3.36,1.11a18.17,18.17,0,0,0,1.54-7.94c0-.84-.3-1.67-.41-2.51a14,14,0,0,0-3.36-7.86,4.42,4.42,0,0,1-1.16-2.8,20.26,20.26,0,0,1,2.18-10.88c1.32-2.51,2.66-5,4.22-7.4,1.46-2.2,2.81-4.36,2.89-7.09a1.78,1.78,0,0,1,.31-1c1.39-1.8,2.48-3.83,4.49-5.13,2.61-1.7,5.15-3.51,7.78-5.32,1,2.48,1.91,4.72,2.83,7a45.37,45.37,0,0,0-4,2.32c-2.89,2.07-5,4.62-5.26,8.45a3.82,3.82,0,0,1-1.66,2.93,31.34,31.34,0,0,0-5.33,5.09,42,42,0,0,0-3.91,6.22c-1.18,2.12-1,3.42.27,4.87a14,14,0,0,0,12,4.92c1.09-.08,1.38.39,1.5,1.38a30.41,30.41,0,0,0,.92,5.57,10.59,10.59,0,0,0,3.59,5.33c-.39-.88-1-1.66-1.39-2.52a18.71,18.71,0,0,1-1.76-8.79c0-1.08.59-1.43,1.59-1.77-.21,1.95-.41,3.76-.61,5.58,1-2,1.42-4.18,2.5-6s2.77-3.07,4.21-4.58a42.31,42.31,0,0,1-2.44,4.9,18.35,18.35,0,0,0,2.05-2.55c.65-.93,1.33-1.84,2-2.73s1.3-1.61,2-2.42c.09.07-1.37,5.61-2.19,8.3a63.07,63.07,0,0,0,3.14-7.92c.53-1.78.83-3.64,1.41-5.41a23.43,23.43,0,0,1,2.34-4.67q-2.26,10.1-4.52,20.18c.23-.42,2.69-7.14,3.87-10.58a9.19,9.19,0,0,1,.1,2.22,6.67,6.67,0,0,0,.64,2.65,15.64,15.64,0,0,0,.91-3c.35-2.1.64-4.22,1-6.32a14.51,14.51,0,0,1,.65-2c1,2.3,1.59,7.09,1.73,7.1.08-1.14.16-2.28.25-3.73l1,1.28c.13-1.63-.61-3.14.44-4.28.3.87.61,1.79.91,2.7a19.7,19.7,0,0,0-.16-6.5c-.6-2-1.25-4-1.9-6-.24-.74-.25-1.31.57-1.74a51,51,0,0,0,4.68-2.63c4.69-3.1,8.88-6.66,10.89-12.18.21-.58.61-1.13,1.31-.21,1.73,2.25,3.66,4.37,5.32,6.67a33,33,0,0,1,4.54,9.1c.59,1.79,1.3,3.54,1.95,5.31a4.87,4.87,0,0,0,.65-2c.55-5.42-1.71-9.95-4.74-14.23a7.24,7.24,0,0,1,1.75,1c0-.13-2.18-3.09-3.47-4.69.41,0,5,4.29,6,7.37a55.58,55.58,0,0,0,2.25,5.29,20.15,20.15,0,0,0-1.36-4.93,30.65,30.65,0,0,0-2.47-4.72,32.36,32.36,0,0,0-3.44-3.6,67.88,67.88,0,0,1,6.22,3.92c-.4-1.48.17-2.3,1.5-3.05.46,1.62,1,3.1,1.28,4.62a26.16,26.16,0,0,1,.6,4.74c.06,3.48.56,7-.32,10.46a17.6,17.6,0,0,1-2.64,5.83,3,3,0,0,0-.34,1.59,2.53,2.53,0,0,0,.76-.35,12.32,12.32,0,0,0,4-8c.3-3.37.12-6.79.14-10.19,0-1.66,0-3.32,0-5.15a8.35,8.35,0,0,1,.68.79,27.22,27.22,0,0,0,5.66,5.21c-.11-.94-2.34-5-3.39-6.49-.29-.41-.56-.84-.84-1.26l.28-.28c.39.19.8.35,1.19.57,1.71,1,6.27,2.44,6.84,2.23a38,38,0,0,0-5.56-3.38,25.55,25.55,0,0,1-4.1-2.68,5.11,5.11,0,0,1,.79.22,13.21,13.21,0,0,0,2.67,1.1,51.42,51.42,0,0,0,8.3.4,15.5,15.5,0,0,0-4.91-2.33c-2.38-.39-4.8-.55-7.2-.82a5.06,5.06,0,0,1-.89-.24c.32-.19.47-.35.64-.37a38.6,38.6,0,0,1,4.63-.69,14.48,14.48,0,0,0,6.06-1.52,14,14,0,0,0,6.84-7.52c.58-1.46,1-3,1.55-4.46.91-2.56,1.81-5.11,2.74-7.66.37-1,0-1.43-1-1.52a13.49,13.49,0,0,0-7.89,1.69,25.2,25.2,0,0,0-7.44,6.85c-1,1.28-1.92,2.59-3,4.11-.14-.28-.23-.42-.28-.56-1-3.23-1.91-6.47-2.94-9.68a1.74,1.74,0,0,1,.86-2.42,9.76,9.76,0,0,0,1.4-1,23,23,0,0,0,6.25-7.67,28.06,28.06,0,0,0,3.41-9.53c.46-4-.66-7.3-3.92-9.78-2-1.49-2-1.55-.23-3.24a47.8,47.8,0,0,1,16.64-10.34,7.76,7.76,0,0,0,4.4-3.2h-3.93l.84-.92a21.58,21.58,0,0,0,1.82-2c.63-.92.08-2-1-1.79a8,8,0,0,0-3.88,1.31c-3.74,3.3-7.29,6.83-10.88,10.3-.86.83-1.62,1.75-2.43,2.63l-.31-.17a4.59,4.59,0,0,1,.32-1c.54-.87,1.18-1.68,1.71-2.56,2.7-4.5,5.37-9,8.09-13.53q3.4-5.61,6.88-11.16c1.61-2.58,3.15-5.21,5-7.65a21.56,21.56,0,0,1,6.28-6,33.13,33.13,0,0,0,4.65-3.48,1.86,1.86,0,0,0,.37-1.66c-.15-.37-1-.68-1.47-.67a7.89,7.89,0,0,0-2,.49,18,18,0,0,1,1.38-1.95,32.14,32.14,0,0,1,3.84-4.14c2.18-1.78,4.55-3.32,6.88-4.91a23.84,23.84,0,0,0,5.44-4.93,17.11,17.11,0,0,0,3.18-7.63C661.84,459.05,661.68,458,659.84,458Zm-18.31,4.29c-.1-1.4-.19-2.79-.3-4.26C642.22,458.46,642.54,461.29,641.53,462.33Zm2.49,0c-.36-1.16.8-4.21,1.9-4.84Zm-.19-25.95a6.86,6.86,0,0,1,3,4.63c.37,2.17,1,4.28.51,6.64a41.91,41.91,0,0,1-2.7,7.51c.19-3.22.35-9.44.25-9.45l-.78,6.77-.32,0a21.73,21.73,0,0,1-2.46-8.21c-1,2.87.34,5.62.52,8.44C638.39,446.72,640.14,438.92,643.83,436.41ZM478.1,592.58c-2.64-1.22-5.11-2.74-7.79-3.47s-5.59-.68-8.4-1C464.48,585.45,476.83,588.73,478.1,592.58Zm-3.52,3.31c.62.65,1.24,1.29,1.85,1.94a19.73,19.73,0,0,1,2.22,2.45c.72,1.1-.62.79-1.13,1.3,2.23,1.11,5,1,6.63,3.24-3.28-1-6.66-1.84-9.82-3.17s-5.53-4-8.06-6.29a23.7,23.7,0,0,0,6.51,6.76,21.61,21.61,0,0,0,9,3.43,24.5,24.5,0,0,1-3.43,0c-2-.29-4-.76-6-1.15a15.91,15.91,0,0,1-9.79-6.27,20.28,20.28,0,0,1-3.39-6.64,1.84,1.84,0,0,1-.06-.47,1.63,1.63,0,0,1,.3-1c.79,1,1.63,1.9,2.35,2.92a33,33,0,0,0,1.79,2.92c1.31,1.5,2.78,2.88,4.22,4.28a26.42,26.42,0,0,0,2.62,2.33,3.84,3.84,0,0,0,1.83.58c-4.68-3.86-8.8-8.09-10.81-14a.61.61,0,0,1,.34-.08c3.24.62,6.59.92,9.67,2,2.9,1,5.87,2.35,7.48,5.36.13.25.39.43.49.8l-7.56-4c-.1.17,2.13,1.43,2.68,1.84,2.31,1.69,4.64,3.35,7,5,.36.25.76.44,1.36.79a19.63,19.63,0,0,1-1.08-3.48q1.74,3.08,3.46,6.15C485.08,603.42,478,598.45,474.58,595.89Zm-26.22,2.36c2.47,1.81,4.73,3.86,5.44,7a28.91,28.91,0,0,0-10.27-8.9C444.27,596,446.27,596.71,448.36,598.25Zm-2.49,10.81c-3.9-2.63-7.15-5.71-7.15-10.93.36.89.74,1.78,1.09,2.68a12.82,12.82,0,0,0,4.89,5.8c2,1.45,4.19,2.7,6.3,4l.81.51C450.81,611.57,448.18,610.62,445.87,609.06Zm7.11,2.07c-2-1.23-3.91-2.54-5.86-3.81a22.38,22.38,0,0,1-6.2-5.91,5.65,5.65,0,0,1-.68-1.68c0-.11.27-.33.45-.52l-2.15-2.83a8.73,8.73,0,0,1,3.21.49c2.33,1,4.74,2,6.48,3.94a37.78,37.78,0,0,1,3.66,4.87c.46.72.36,1.77.74,2.57a14.13,14.13,0,0,0,1.68,2.49c.29.38,1,1.19.94,1.32A15.65,15.65,0,0,1,453,611.13Zm-23.38,4.12a56.33,56.33,0,0,0-6.62-3.52l8.95,6.77c-3.11,0-11.17-6.35-11.62-9C424.7,610.13,429.05,612.7,429.6,615.25ZM418.8,610a40.87,40.87,0,0,0,18.11,13A27.62,27.62,0,0,1,418.8,610Zm-25.47,5a54,54,0,0,1,5.5-.59c1.73,0,5.2,1.94,6.38,3.49l-5-2.34a38.8,38.8,0,0,0,5.12,3.43l-.12.25-5-1.15c.11.56.09.6,3.33,2.11a33.45,33.45,0,0,1,3.87,1.87C401.87,621.49,393.33,615.17,393.33,615ZM410,632.63c2.61-.82,5.09-2.17,7.94-2-2.84,2.17-5.66,4.35-9.59,3.11,1.19-3.62,7.91-6.15,10.91-4C415.83,629.53,412.6,630,410,632.63Zm9.67-7.07a60,60,0,0,1,7.4,2.61A55.2,55.2,0,0,1,419.7,625.56Zm28.33-.8a64,64,0,0,1,8-1.29A68.28,68.28,0,0,1,448,624.76Zm14.51-7.8a3.08,3.08,0,0,1-1.11-3c1.69,2.44,4.41,3,6.63,4.33C466,618.83,464.21,618.06,462.54,617Zm10.09,2.87a12,12,0,0,1,3.18-1.29A12.68,12.68,0,0,1,472.63,619.83Zm-20.3,23.34,1.06.94a22.19,22.19,0,0,1-7.86-.48,4.65,4.65,0,0,1,1.07-.36c1.16-.1,2.34-.11,3.51-.2a14,14,0,0,0,9.07-3.79c1.14-1.1,2.35-2.13,3.54-3.18a1.66,1.66,0,0,1,.53-.18l.21.33C461.28,640.7,457.35,642.58,452.33,643.17Zm10.35-9.64c-1,1.14-2,2.31-3.05,3.45a16.1,16.1,0,0,1-6.51,4.46,6.78,6.78,0,0,1-1.5.21c-2.32.24-4.64.49-7,.69a3.25,3.25,0,0,1-1.05-.29c.11-.34.22-.68.34-1s.45-.72.41-1.06c-.33-3.07,1.48-5.1,3.46-7a13.09,13.09,0,0,1,9.7-4,1.54,1.54,0,0,1,.87.31,18.35,18.35,0,0,0-7.75,3.39,30.37,30.37,0,0,0-5.43,6.36l4.29-4.1c.66.1,1.12.33,1.4.19,3-1.46,5.84-3.06,8.83-4.43a10.33,10.33,0,0,1,4.44-.5c-.31.31-.59.63-.92.9a19,19,0,0,0-2.95,3l4-2.69A11.35,11.35,0,0,1,462.68,633.53Zm-6.74-2.28-5.52,3.44A9,9,0,0,1,455.94,631.25Zm12.5-5.32a11.3,11.3,0,0,1-2.87,1.66A11.7,11.7,0,0,1,468.44,625.93Zm4,3.32q-3.27,3.38-6.59,6.71a1.67,1.67,0,0,1-.51.17,3.25,3.25,0,0,1,1.39-2.57,69.34,69.34,0,0,1,6.68-5.64A11.94,11.94,0,0,1,472.44,629.25Zm17.28-14.31c-2.51,1.29-5,2.63-7.49,4-.69.36-1.36.74-2,1.11l-.26-.37a17.72,17.72,0,0,1,2-1.67c2.36-1.45,4.75-2.86,7.18-4.21.38-.21,1.3-.23,1.41,0C490.92,614.44,490.27,614.65,489.72,614.94Zm31.83-17.08c-1.25-.39-2.51-.75-3.76-1.15a.76.76,0,0,1-.42-.44c0-.09.18-.33.33-.41,2.1-1,6.49-.94,7.85.06h-5.32a43.47,43.47,0,0,0,6.81.9A5.87,5.87,0,0,1,521.55,597.86Zm2.13,3.83a58.86,58.86,0,0,1-7.17,2.51A60.09,60.09,0,0,1,523.68,601.69Zm-19.53,8.79a10.16,10.16,0,0,1,6.34,2.81l-.09.37-11.52-1.46a3.11,3.11,0,0,0,0,.32c1.17.3,2.34.61,3.52.9,3,.72,5.92,1.48,8.9,2.13a3.76,3.76,0,0,1,2.08,1.47c.65.74,1.33,1.47,1.95,2.23a2.6,2.6,0,0,1,.25.89,35.8,35.8,0,0,0-5.06-.57c-3.09.09-5.07-1.94-7.34-3.46-.18-.12-.38-.22-.57-.33-.07.08-.15.16-.22.25l5.37,4.91a15.06,15.06,0,0,1-9.33-5.52c-.32-.37-.68-.72-1-1.06-1.28-1.25-1.17-1.78.7-2.38l-1.09-.81v-.35C499.36,610.7,501.76,610.43,504.15,610.48Zm17.63,15.37c-1.9-1.07-5-6.36-5.14-8.71,2.5.92,7.85,8.91,7.42,11.75q-1.06-2.35-2.14-4.69A4.33,4.33,0,0,0,521.78,625.85Zm1.17-3c-.4-.51-.73-1-1.1-1.39-1.29-1.5-2.57-3-3.9-4.48-.47-.52-1-.8,0-1.45,3.23-2.19,6.38-4.5,9.57-6.74a6.31,6.31,0,0,1,1.15-.52l.27.2c-1,2.34-2.14,4.67-3.12,7S524,620.26,523,622.86Zm-7.82-7.55c3.32-2.59,6.83-4.43,10.27-6.87C524.72,610.34,516.89,615.63,515.13,615.31Zm-1.47,6.91a5.94,5.94,0,0,1-4.47,1.15C509.88,622.34,512.06,621.73,513.66,622.22Zm-26.14-20.17c4.24,1.51,7.42,5.19,12.12,5.77a3.26,3.26,0,0,1-3.89,0A81.45,81.45,0,0,1,487.52,602.05Zm4.24,4.89,2.57,1.27C493,608.68,492.11,608.3,491.76,606.94Zm3.55,6,4.3,5.53C496.85,618,493.93,614.86,495.31,613Zm-5.84,20.19a32.28,32.28,0,0,1-5.76-3c-2.76-1.92-1.74-3.68.24-5.36a20.67,20.67,0,0,1,8.13-4.7c1.87-.47,3.8-1.36,5.82-.52.27.12.7.47.66.6a1.6,1.6,0,0,1-.66.94,45.28,45.28,0,0,0-4.36,2.55c3.71-.8,7.23-2.44,11.06-.77a7.6,7.6,0,0,1-.92.3c-2.75.48-5.51.92-8.26,1.42a2.9,2.9,0,0,0-1.3.58c-.23.19-.43.78-.31.94a1.54,1.54,0,0,0,1.08.61,10.61,10.61,0,0,0,2.13-.52L493.21,631c-.28.35-.57.7-.84,1.06C491.36,633.5,491,633.79,489.47,633.17Zm17.19,15.09a9.85,9.85,0,0,1-6,2c-2.15,0-4.3-.06-6.44-.16-1.57-.07-.88-1.78-.92-2l-1,.78c-.13-.8-.24-1.43-.33-2.06a16,16,0,0,1-.39-3.12,55,55,0,0,1,.7-6.13,30.86,30.86,0,0,1,1.05-3.26,12.26,12.26,0,0,1,4.61-6.43c2.51-1.87,5.23-3.24,8.47-3.15a5.14,5.14,0,0,1,1.23.34,4.8,4.8,0,0,1-.92.65c-1.6.65-3.22,1.24-4.82,1.88a5.68,5.68,0,0,0-.93.6l.15.15c2-.28,6-.7,6-.63-.63.22-1.26.47-1.9.67-.88.27-1.78.47-2.65.77a.81.81,0,0,0-.46.63c.05.2.44.53.61.49a11.43,11.43,0,0,0,2.81-.84c1.79-1,3.49-2.08,5.23-3.12a.7.7,0,0,1,.68,0c-1.22,1.13-2.38,2.33-3.68,3.37-1.06.85-2.32,1.45-3.43,2.26a2.84,2.84,0,0,0-1.08,1.42c-.19.73.09,1.46,1.35,1.8l8.83-9.49c0,.19-3.57,5.71-5.46,8.42a5.49,5.49,0,0,0-.85,1.18c-.16.45-.27,1.19,0,1.43a1.11,1.11,0,0,0,1.74-.13c1.29-1.82,2.51-3.7,3.77-5.55.15-.22.35-.41.7-.81-.44,2.11-.82,4-1.2,5.8a61.93,61.93,0,0,0,2.61-7c.17,0-.79,10.5-.64,10.53.72-3.94,2.33-11.87,2.41-11.89a2.38,2.38,0,0,1,.26.68,23.24,23.24,0,0,1-2.19,11.15,20.12,20.12,0,0,1-3.35,4.66A27.83,27.83,0,0,1,506.66,648.26Zm16,2c-.67,1.14-1,2.47-1.57,3.68a38.58,38.58,0,0,1-2.33,4.35,1.8,1.8,0,0,1-1.66.38c-2.54-.92-4.82-2.24-6-4.91-.68-1.6-1.43-3.17-2-4.8a1.51,1.51,0,0,1,.27-1.36,22.9,22.9,0,0,0,4.64-4.53c.07-.08.21-.1.63-.28v7.38a98.42,98.42,0,0,0,1.61-10.58h.52v7.57c.21,0,.8-4.64.89-7,1.38,3.46,1.18,7.09,1.71,10.66v-4.48l1.19.33-.81-2.29.34-.25a24.34,24.34,0,0,0,2,2.25C524,648.08,524,648,522.63,650.24Zm6.2-11.37.18-1.38c.82,2.82,1.51,5.61.53,8.5-.23-5.74-7.12-13.79-7.25-13.79.85,1.19,1.72,2.36,2.56,3.55,1.81,2.51,3.4,5.1,3.41,8.36a20.39,20.39,0,0,0,.42,2.64c.09.73-.3.91-1,.8a10.3,10.3,0,0,1-5.71-3.38,8.32,8.32,0,0,1-1.76-4.18c-.47-2.78-.59-5.63-.85-8.44.15,0,2.6,5.23,4.79,7.38l-4.59-9.84a34.43,34.43,0,0,1,5.76,3.75C527.22,634.45,527.64,636.85,528.83,638.87ZM531.89,609c-1.38,2.49-3.11,4.81-4.35,7.36a32.88,32.88,0,0,0-1.69,5.7,15.62,15.62,0,0,1-1,2.64,17.58,17.58,0,0,1,.87-5.93c1.82-4,3.91-7.85,6-11.73a34.34,34.34,0,0,1,1.95-3A19.91,19.91,0,0,1,531.89,609Zm2.28-10.11c-1.89,1.6-3.78,3.2-5.73,4.73a72.57,72.57,0,0,1-6.11,4.58c-2.26,1.44-4.77,2.48-7.08,3.86-2.1,1.26-3.68,0-5.38-.81-1.13-.55-2.21-1.19-3.31-1.79l-.09-.44c10.16-2.06,19.09-7.09,28.25-11.55A2.19,2.19,0,0,1,534.17,598.87Zm59.48,2.18c1.53,2.9,2.42,9.3,2.3,9.34C595.05,607.31,593.52,601.09,593.65,601.05Zm17.2-8.59a5.93,5.93,0,0,1-2.43.06A7.24,7.24,0,0,1,610.85,592.46ZM599,515.7a56.82,56.82,0,0,0-.71-5.86,51.38,51.38,0,0,0-1.8-5.33C599.63,507.75,599.51,511.69,599,515.7Zm-5.87-13.92a39.78,39.78,0,0,1,1.43,3.83l.55-1.13a41.64,41.64,0,0,1,2,5.06c.78,2.57.66,5.2.68,7.85a15.17,15.17,0,0,1-1.6,6.34,37.09,37.09,0,0,1-2.32,4.29c-.11-3.19,1.66-5.84,2.46-8.77-.4.6-.83,1.18-1.18,1.81-1.18,2.14-2.31,4.32-3.5,6.46-.18.33-.71.85-.8.8-.59-.34-1.49-.41-1.49-1.39,0-2-.05-4.06,0-6.09,0-1.13.27-2.25.45-3.66-1.59,3.09-1.09,6.21-1.22,9.23a3.87,3.87,0,0,1-1.3-1.66,28.11,28.11,0,0,1-.33-11.19c.47-3,2-5.39,3.52-7.86A40.91,40.91,0,0,1,593.15,501.78Zm-11,18.08a10.56,10.56,0,0,1-.43-3.18,16.08,16.08,0,0,1,3-8.77,38.13,38.13,0,0,1,3.8-4.32,16.09,16.09,0,0,1,2.8-1.79c.11.08-4.73,8.41-4.85,8.36L589.2,504a16,16,0,0,0-2.61,3.63,27,27,0,0,0-2.31,12.76c.1,2.51,1.09,4.77,1.84,7.1.28.87.73,1.7.93,2.58.38,1.66.65,3.34.93,5,.1.62.12,1.29-.81,1.41-.45-2.16-.76-4.34-1.38-6.43s-1.65-4.35-2.44-6.53A32.66,32.66,0,0,1,582.19,519.86Zm4.15-8.14-.54,9.47C585.63,521.18,585.28,514.81,586.34,511.72Zm-32,24.41a24,24,0,0,1,4.76-7.11c2.06-2.39,4.05-4.86,6.77-6.56a40,40,0,0,1,4-2.19c.28-.13,1.07.14,1.13.36a6.27,6.27,0,0,1,.29,2.42c-.27,2-.87,6.08-.78,6.1.66-2.77,1.31-5.54,2-8.31a6.8,6.8,0,0,1,1.41,1.38c.07-.31.12-.57.21-1,1.52.58,1.19,2.31,2.4,3.09l-.38-1.83a9.27,9.27,0,0,1,1.2,1A35.23,35.23,0,0,1,583.83,534a43.36,43.36,0,0,1,1.5,5.91c.49,2.25,0,4.35-.24,6.47a16.9,16.9,0,0,1-5.92,10.78,24.31,24.31,0,0,0-5.44,6.54,10.18,10.18,0,0,1-1.12,1.35,8.13,8.13,0,0,1,1.4-5.69,31.9,31.9,0,0,1,4-4.26l-2.11.85a44.38,44.38,0,0,0,1.8-5.05c-.59,1-1.16,1.91-1.79,2.84-.12.18-.45.2-.7.28,0,0,0,0,0,0l-.07.09a17.8,17.8,0,0,1-.87,2.21,21,21,0,0,1-1.49,2.07c-.3-.74,0-1.22,2.36-4.28,0,0,0-.07,0-.11h0c-.15-.61-.26-.7-.67-.31a9.23,9.23,0,0,0-2,2.42c-1,2.09-1.8,4.29-2.72,6.55,0-.79,0-1.58,0-2.36s.36-1.39.38-2.09c.12-3,.09-6.1.28-9.14.06-1,.34-2.77.48-3.74a.35.35,0,0,1-.06.14,3.78,3.78,0,0,1-.76.73c-.21-.27-.6-.55-.6-.82,0-1.72.08-3.44.12-5.16a28.4,28.4,0,0,0-.09-3c-.18,1.74-.31,3.49-.56,5.21-.32,2.25-.82,4.47-1.07,6.71a29.91,29.91,0,0,0,0,4.54,41.56,41.56,0,0,1-.12,6.29,7.21,7.21,0,0,1-.31-1c-.27-1.53-.4-3.09-.78-4.59-.47-1.83-1-3.7-2.5-5a1.33,1.33,0,0,0-1.07-.33,1.24,1.24,0,0,0-.64,1,4.07,4.07,0,0,0,.47,1.86,16.28,16.28,0,0,1,2.65,7.27c.1,1.63.5,3.25.76,4.88l-.27.06c-.4-.93-.77-1.87-1.2-2.78s-1-2-1.53-3.06c-.73-1.51-1.44-3-2.17-4.53a1.53,1.53,0,0,0-.42-.66,5.94,5.94,0,0,0-1.71-.85c-.19,0-.67.58-.78,1a1.64,1.64,0,0,0,.76,2c2,1.29,3.12,3.36,4.16,5.43a1.82,1.82,0,0,1,0,1.31c-1.13-1.46-2.28-2.9-3.39-4.39a40.58,40.58,0,0,1-5.5-10.28A15.66,15.66,0,0,1,554.3,536.13Zm23.48,28.8a9.86,9.86,0,0,1-2,2.36A10.48,10.48,0,0,1,577.78,564.93Zm-8.27-17.68c0,3.77-.36,11.14-.55,11.14A108.22,108.22,0,0,1,569.51,547.25Zm-3.24,8.64a11.78,11.78,0,0,1-2.51-4.69A34.66,34.66,0,0,1,566.27,555.89Zm-5.18,5.46a17.78,17.78,0,0,1-2.93-3.12A18.59,18.59,0,0,1,561.09,561.35ZM533.74,556a7.23,7.23,0,0,1-1.42-1.4,13,13,0,0,1-3-7.22,18.66,18.66,0,0,0-.68-2.39l1.19.59a49.37,49.37,0,0,1-2.16-6,7,7,0,0,1,.6-3.5,1.33,1.33,0,0,1,1.82-.57c1.25.48,2.47,1.05,3.7,1.59.33.14,1.1.2,1.16.08-1.17-.6-2.34-1.21-3.52-1.79-.35-.17-.79-.2-1.06-.45a.89.89,0,0,1,0-.84,9.61,9.61,0,0,1,9.63.21,6.22,6.22,0,0,0,2,.75,34.83,34.83,0,0,1-3.92-3.17c1.44.11,2.87.22,4.31.35.3,0,.61.25.9.22,2.89-.32,5.17,1.33,7.64,2.35,1.15.47,1.32,1.13.82,2.92l-1.08-.54a10.48,10.48,0,0,1,.53,2.82c-.57-.64-1.13-1.28-1.7-1.91,1.19,2.11,2.32,4.18,1.79,6.93a23.31,23.31,0,0,0-2.63-3.15,12.24,12.24,0,0,0,1.93,4c.76,1.29,1.4,2.66,2.09,4-.21,0-6.91-5-7.07-5,.47.49.93,1,1.4,1.46,2.07,2.08,8.6,8.91,8.29,9l1.8,2.35c-.23,0-8.5-4.91-12.57-7.47a25,25,0,0,0,4.93,4.44c1.88,1.13,3.64,2.47,5.45,3.72a4.29,4.29,0,0,1-2-.4,16.43,16.43,0,0,0-5-1.75c-1-.11-1.91-.91-2.87-1.38-.55-.27-1.13-.48-1.7-.72a10.7,10.7,0,0,0,2.15,1.93l-4.48,1.1a2.15,2.15,0,0,0-.79.23c-1.72,1.36-3.08.48-4.51-.58C535.21,556.4,534.36,556.38,533.74,556Zm-3.48,20.63A6.9,6.9,0,0,1,525.8,572Zm.19,2.22a5.76,5.76,0,0,1-2.77-3.12Zm.27,2.93a88.12,88.12,0,0,1-8.08-4.71C522.72,576.94,528.5,579.44,530.72,581.78Zm-7.16-10.46a10.61,10.61,0,0,1,.87,2.82A9.7,9.7,0,0,1,523.56,571.32Zm1.84-12.26c-.13,0-1.55-6.74-2.13-10.13C523.39,548.91,525.5,555.53,525.4,559.06Zm-2.91-11a7.41,7.41,0,0,0,0,1.16c.35,2.31.73,4.63,1.1,6.94.06.43.08.86.16,1.28.19,1,.43,2,.6,2.94a9.41,9.41,0,0,1-.85,5c-1.53-1.52-1.6-3.42-2.19-5.15a18.08,18.08,0,0,1-2,6.32C516.82,563.1,519.12,549.87,522.49,548.07ZM519.43,575a8.34,8.34,0,0,0-2.07,1.42c1.79-4.56,1.64-9.39,4.23-13.7a20.33,20.33,0,0,1,.78,3.81c0,1.54-.5,3.09-.44,4.62C522,573.16,521.48,574.45,519.43,575Zm-2.25-23.95-6.61-11.8C515.34,543.32,518.5,549.24,517.18,551.07Zm-15.74-5a16.77,16.77,0,0,1,2.09-6.56A9,9,0,0,1,505.2,538c.79,3.4,2.36,9.58,2.43,9.58q-.75-5.25-1.49-10.5a2.32,2.32,0,0,1,1.32.36,31.05,31.05,0,0,1,5.18,7.36c1.06,2.11,2.21,4.19,3.14,6.35a11.16,11.16,0,0,1,.86,3.69c.19,3.16.12,6.33.31,9.49a43.46,43.46,0,0,0,.82,4.94c-.18-.07-.6-.09-.78-.32a20.8,20.8,0,0,1-3.81-6.41c-.7-1.93-1.67-3.75-2.43-5.66-.66-1.67-1.21-3.38-1.8-5.08a1.12,1.12,0,0,0-.46-.67,4.63,4.63,0,0,0,0,1.29c.78,2.4,1.66,4.76,2.38,7.16a13,13,0,0,1,.17,2.88l-1.46-1.6c.13,2,2.51,2.85,2.12,5.12a12.35,12.35,0,0,1-1.13-.78c-1-.91-1.79-2.13-2.93-2.73-2.44-1.27-3.34-3.61-4.54-5.76a9.69,9.69,0,0,1-.95-2.31A21.2,21.2,0,0,1,501.44,546.07Zm7.08,19.59c2.21,2.05,6.43,6.31,6.43,6.49A37.1,37.1,0,0,1,508.52,565.66Zm.36,5.27a13.55,13.55,0,0,1-3.05-1.22A11.3,11.3,0,0,1,508.88,570.93ZM500.46,555l-6.56-3.11C495.92,550.9,501.19,552.6,500.46,555Zm-16.35,7.15a20.65,20.65,0,0,1-.73-4l4.38,4.23c-.08-.47-.05-.7-.15-.81-1.17-1.19-2.37-2.35-3.53-3.55a2.55,2.55,0,0,1-.47-1.45A10,10,0,0,0,486,557a14.16,14.16,0,0,1-2.44-2.07,9.31,9.31,0,0,1,2.84-.07,3.77,3.77,0,0,0,1.73-.2,13.86,13.86,0,0,1-1.7-.5c-.24-.09-.39-.4-.59-.62a2.54,2.54,0,0,1,.59-.47c3.74-1.43,7.21-.81,10.76.93,3.28,1.61,4.72,4.68,6.78,7.28.45.56.41,1.1-.76,1.19L507,568.3a27.68,27.68,0,0,0-9.63-1.85,7.93,7.93,0,0,0,.85,1.34,8.68,8.68,0,0,0,4.63,2.15,21.45,21.45,0,0,1,6.4,3.24L502,571.69a7,7,0,0,0-1.47-.29,1,1,0,0,0-.66.59,1,1,0,0,0,.4.8,2.79,2.79,0,0,0,1.19.46c3.46.49,6.93.94,10.4,1.42a4.44,4.44,0,0,1,1.47.44c-4,.91-12,.55-12.07.67a5.73,5.73,0,0,0,1,.28c3.27.23,6.55.43,9.82.66a4.7,4.7,0,0,1,1.08.3l0,.29a1.48,1.48,0,0,1-.47.2c-3.35.1-6.71.21-10.07.29a13,13,0,0,1-8.69-3.08c-.41-.33-.85-.62-1.28-.94l1,1.57c-2.17-1.26-5-5.14-5-5.31l3.71,3.58L491,571.39l1.62-.46c-3,0-4-2.33-5.46-3.91A12.32,12.32,0,0,1,484.11,562.16Zm19.89,7-4.11-1.41C500.92,567.12,504,569,504,569.13Zm-13.26,18c-2.64-.74-5.25-1.56-7.89-2.35l.16-1.35a8.84,8.84,0,0,0-1,.05,3.42,3.42,0,0,1-4.1-2.62,2.43,2.43,0,0,1,.35-2.2,12.45,12.45,0,0,1,5.25-4.44,11.1,11.1,0,0,1,2.5-1.16,6.3,6.3,0,0,1,2.32.11.89.89,0,0,1,.46.7c0,.18-.4.36-.66.48a12.28,12.28,0,0,1-1.26.43c.31.13,3.74.44,5.15,1.45.95.69,2,1.24,3,2.08-1.16-.06-2.32-.16-3.48-.16a11.64,11.64,0,0,0-3.57.62l10.41.56c-4.08,1.71-8.45,1.57-12.62,2.65,3.4-.26,6.8-.44,10.19-.83A24.73,24.73,0,0,0,500,580a3.63,3.63,0,0,1,.45-.1l10.9-1.38a9.29,9.29,0,0,1,1.18,0c0,.12.07.24.1.35-1.33.86-2.64,1.74-4,2.54a5.15,5.15,0,0,1-1.44.35c-.35.46-.6,1.13-1.07,1.34-2.77,1.25-5.54,2.55-8.41,3.52A11.86,11.86,0,0,1,490.74,587.13Zm7.78,12.75c3.39-1.84,7.31-2.67,10.3-5.31C507.72,596.71,501.1,600.09,498.52,599.88Zm12-10.83c.14,2.7-1.72,4.19-3.59,5.46a44.81,44.81,0,0,1-7.63,3.85,26,26,0,0,0,1.92-5.16c-1.26,3.32-3.33,5.8-7.11,6.85.38-1.63-1.92-4.92,4.5-10.52a3.46,3.46,0,0,0,.81-.81c1.64-2,3.94-3,6.18-4a7.81,7.81,0,0,1,1.87-.65c-1.83,2.78-4.68,4.7-5.82,8l1.07-1.3c.39-.46.76-.93,1.17-1.38s.81-.79,1.22-1.19a19.83,19.83,0,0,1-1.92,3.41c.14,0,6.05-5.47,8.93-8.27a39.5,39.5,0,0,1-1.3,4.93A2.66,2.66,0,0,0,510.52,589.05Zm.76.7c0-.23,3-6.53,5.37-9.16C516.65,580.8,513.15,586.8,511.28,589.75ZM523.69,585c-1.84-.47-3.69-1.28-5.7-.75a1.42,1.42,0,0,1-1-.22,5.3,5.3,0,0,1,4-.56c1.66.51,3.36.88,5.06,1.25,1.14.25,2.3.38,3.45.56A13.31,13.31,0,0,1,523.69,585Zm8.57.48c-1-.32-2.11-.6-3.15-1-2.56-.88-5.11-1.8-7.67-2.68a1.62,1.62,0,0,1-1.22-2.3,2.08,2.08,0,0,1,2.65-1q4.47,2.73,8.88,5.56c.34.22.52.7.78,1.07Zm4.33,10.4a29,29,0,0,1,4.94-2.37A12.89,12.89,0,0,1,536.59,595.85Zm2.53-7.07c1.69.06,3.22-.22,4.59.94C542.58,590.29,539.87,589.78,539.12,588.78Zm2.15-2.5a14.47,14.47,0,0,1-7-3,5,5,0,0,1-2.1-4,23.27,23.27,0,0,1,1.37-8.55c.5-1.4,1-2.8,1.41-4.23.58-2,2-3.45,3.3-5,3.28-4.09,7.6-4.16,12-2.66,3.91,1.33,7,4.13,10.27,6.55,0,.13-6.89-1.58-10.26-2.56A6,6,0,0,0,552,564a20.64,20.64,0,0,0,2.08.59c0,.13-6.58,1-6.58,1.1,3.84.15,7.71,0,11.42,1.37-3.2,0-6.39-.15-9.35,1.39,3.56-.06,7.12-.25,10.67.58a23.67,23.67,0,0,0-13.54,3.73c2.15-.42,4.28-1,6.45-1.24s4.42-.35,6.63-.51l.09.47-4.7,1.12s3.6.15,5.75.15c-2.55,1.19-5.15,1.77-6.72,3.67l5.74-1.58c-.66,1-1.18,1.74-1.69,2.51a22.88,22.88,0,0,0,3.18-3.06l.35.14c-.34.82-.69,1.64-1,2.42,1-.43,1.19-2.28,2.92-1.83.37-.57.78-1.18,1.19-1.8.15.06-1.38,6.53-1.27,6.57q1.17-2.34,2.35-4.66a14.81,14.81,0,0,1-1,4.19c-1.79,4.05-5.25,6.34-9.1,8.06a8,8,0,0,1-4.07.66C548.3,587.59,544.81,586.72,541.27,586.28Zm5.12,17.17a12.88,12.88,0,0,1,5.46-3.29c.9-.27,1.59-.09,2.26,1.08-3.73.19-9.23,4.13-9.41,4.13C545.26,604.73,545.79,604.05,546.39,603.45Zm-2.66,6.17a5.89,5.89,0,0,1,2-3.37c1.47-1,2.83-2.19,4.79-1.77.17.21.31.47.53.57,1.81.74,3.65,1.42,5.45,2.17a7.79,7.79,0,0,1,1.39,1.08c-2.18.57-4.19-.1-6,.47a23.41,23.41,0,0,0,4.15,1.54,5.31,5.31,0,0,1-1.69.29,29.38,29.38,0,0,0-5.57.31,10.56,10.56,0,0,1-4.11.09C543.74,610.86,543.49,610.32,543.73,609.62Zm14.51,10.17c-1.52,2-3.17,4-4.72,5.94a14.17,14.17,0,0,1-9,5.62,12.79,12.79,0,0,1-9.21-1.64,10.07,10.07,0,0,1-2.87-3.23c-.82-1.27.12-2.47.77-3.52a25.88,25.88,0,0,1,6.65-7.41,10.78,10.78,0,0,1,3.48-1.47L538.39,618c.32,0,6.85-3.88,9.76-5.64a5.13,5.13,0,0,1,2.58-.58,18.32,18.32,0,0,1,4.35.58l-5.24.63c0,.11,2.72.52,4.12,1l-7.27,3.69a45.57,45.57,0,0,0,5.64-1.62c1.8-.71,3.53-1.63,5.42-2.32-.71.52-1.45,1-2.11,1.58-1.46,1.26-2.82,2.63-4.32,3.85a19.3,19.3,0,0,1-2.61,1.55,9.09,9.09,0,0,0,6-3.23,17.41,17.41,0,0,1,2.48-2.45c-.75,1.76-1.8,3.34-2.72,5a20.52,20.52,0,0,1-5,6.19l-3,2.51c.83.06,6.5-3.73,7.68-5,2-2.25,4.29-4.33,5.52-7.23A4.7,4.7,0,0,1,558.24,619.79Zm-1.57-13.55a9.12,9.12,0,0,0-4-1.3,13,13,0,0,1-2.12-.49v0l-.61-.44c1.35-.57,2.6-1.12,3.86-1.6a.92.92,0,0,1,.85.17c1.58,2.22,4.15,2.75,6.41,3.79a6.85,6.85,0,0,1,1,.68A6,6,0,0,1,556.67,606.24Zm24.77-14a12.38,12.38,0,0,1-2.44,3.48c-.07-.89-.15-1.79-.22-2.68a3.47,3.47,0,0,0-.13,1.23c.47,2.67-1.81,4-2.92,5.83-.27.46-.61.06-.55-.42-.21.19-.45.39-.64.6a8.58,8.58,0,0,1-2.26,1.77c.17-.39.35-.78.5-1.18a4.27,4.27,0,0,0,.41-1.3c0-.79-.57-.85-1.15-.63a3.28,3.28,0,0,0-.72,2.59c.57.73.21,1.07-.37,1.58a8.78,8.78,0,0,1-8.11,1.91,9.35,9.35,0,0,1-4.63-2.84c-2.38-2.48-4.84-4.9-6.53-7.94a9.48,9.48,0,0,1-1-2.56,1.4,1.4,0,0,1,.61-1.22c1.33-.37,2.7-.55,4.12-.8v1.24c.72-.71,1.53-1.52,2.36-2.31.13-.12.41-.28.5-.22,1,.57,1.25-.25,1.74-.77.76-.79,1.6-1.52,2.41-2.27l.28.17L562.6,588l.16,0a42.52,42.52,0,0,1,1.73-4.44,41.33,41.33,0,0,1,2.69-4c.1,0,.73,8.81,1,13.17h.06c.27-2.89,1-8.7,1.13-8.71l1.56,6.92a52.92,52.92,0,0,0-.5-6.16,6.83,6.83,0,0,1,1.56,1.24c2.26,2.47,5.34,3.31,8.38,4.23C581.66,590.69,582,591,581.44,592.23Zm13.84,1.2c-1.25-.73-3.84-2.21-3.84-2.31.78.06,1.57.11,2.35.2.54,0,1.07.21,1.61.22,1,0,1.83.22,2.17,1.32C596.83,594.17,596.6,594.19,595.28,593.43Zm26.31-24.25c-5.07,4.12-10,8.43-15.08,12.57.67-1,1.33-2,2-3,1.35-2,2.66-4.06,4.06-6a10.21,10.21,0,0,1,6.18-4.23c1.34-.31,2.69-.57,4-.85a15.1,15.1,0,0,1-.68,4.25c-.81,2.26-1.74,4.47-2.62,6.71a10,10,0,0,1-3.8,5.11c-1,.62-1.85,1.39-2.85,1.92a15.41,15.41,0,0,1-3.78,1.59,27.57,27.57,0,0,1-4.34.35c3.74-3.35,11.3-10.62,11.3-10.87-3.58,3-11,8.5-11.34,8.5C610.39,580,621.59,569.36,621.59,569.18Zm-19.45,4.37a17.43,17.43,0,0,1,1.19,7.15,8.66,8.66,0,0,1-7.4,8.42c-3.45.56-6.73-.26-10.08-.6-1.32-.13-2.65-.12-4-.22a14.28,14.28,0,0,1-9.74-4.43,7.87,7.87,0,0,1-1.59-2.61,18.62,18.62,0,0,1-1-8.27,1.34,1.34,0,0,1,1.46,1,10.1,10.1,0,0,0,2.3,3.13c-.6-1.27-1.2-2.54-1.79-3.81,1.71-.88,2.39-.79,3.74.38a25.21,25.21,0,0,0,4.39,3c-1.4-1.62-4.12-5-4.12-5.13A25.76,25.76,0,0,0,578,572.7a10.32,10.32,0,0,0,3,.47l-3.09-1a11.09,11.09,0,0,1,5.7,1c4.89,1.87,8.37,5.65,12,9.13.63.59,1.27,1.16,2,1.84-.16-1.23-1.4-2.56-5.33-5.75a61,61,0,0,0-6.18-4.74,72.28,72.28,0,0,0-7.13-3.47c2-.66,6,.27,6,.16l-4.22-1.37c.15-.18.29-.37.57-.73a9.27,9.27,0,0,1-2.39-.75c3.63-.9,11,0,11-.2a22,22,0,0,0-2.83-.77c-2.16-.29-4.34-.43-6.51-.68-.4,0-1-.28-1.08-.57s.19-.85.48-1.11c2.59-2.32,5.64-3.73,9.11-3.21,4.35.64,8.24,2.44,10.51,6.47A48.11,48.11,0,0,1,602.14,573.55Zm9.08-31.94c-3.89.87-6.94,3.14-10.31,4.75a6.12,6.12,0,0,0,2.38-.54c1.9-.92,3.74-2,5.69-2.81,2.65-1.13,3.09-.89,3.51,2.14a7.42,7.42,0,0,1-2.69,6.33l1.72-.56a32.36,32.36,0,0,1-1.36,3.49,48,48,0,0,1-3.34,5.78c-1.64,2.29-3.54,4.42-6.79,4.18a3.26,3.26,0,0,1-1.45-.59c2.21-.62,4.44-1,5.77-2.78a33.3,33.3,0,0,1-5.11,1.71c-2,.34-4.18-1.15-4.47-2.61a54.24,54.24,0,0,1-6-.9,40.94,40.94,0,0,0,5.59-2.8l-8.31,2.08-.11-.22c2-1.14,6-3.6,6-3.71l-5.31,2a55.41,55.41,0,0,1,7.23-6.09c-5.6,1.62-13.7,9.44-13.87,9.44,3.38-4.43,10-13.37,10-13.48a35.72,35.72,0,0,1-3.23,2.8c.66-1.92,1.33-3.84,2-5.79-.52.12-1,.37-1.22.24s-.33-.66-.32-1a4.61,4.61,0,0,1,2.9-4.34A21.65,21.65,0,0,1,601,536.87a1.43,1.43,0,0,1,.44.15.31.31,0,0,1,.09.13L597,539.36a39.61,39.61,0,0,0,6.16-1.62,16.6,16.6,0,0,1-3.34,2.44,13.61,13.61,0,0,0,2.9-.8,9,9,0,0,1,2.36-.92,5.08,5.08,0,0,1,2.62.55A19.38,19.38,0,0,1,611.22,541.61Zm17.32-18.73a9.85,9.85,0,0,1-5.88,1.68A7.76,7.76,0,0,1,628.54,522.88Zm-1.2-5c-.53,1.51-3.52,2.69-3.61,2.58Zm-4,4.77a10.06,10.06,0,0,1-2.82,1.53A10.06,10.06,0,0,1,623.35,522.61Zm-6.12-36c-.64-.42-.73-.92-.47-2.61C617.67,484.06,617.74,484.49,617.23,486.61Zm.32,2.43a18.47,18.47,0,0,1,1.56-4A21.5,21.5,0,0,1,617.55,489Zm12.78-16.88a3.41,3.41,0,0,1,2.43,2.65A2.76,2.76,0,0,1,632,477c-.32.34-1.26.09-1.92.1a4.75,4.75,0,0,1-.59-.09c.15.31.32.49.31.66,0,.5,0,1.18-.24,1.45a9,9,0,0,1-4.89,2.19,24.72,24.72,0,0,1-4.15.6,23,23,0,0,1-4.94-.71,3.28,3.28,0,0,1-1.61-1.4c-.14-.2.25-1.12.54-1.2,1.94-.55,3.92-.94,5.87-1.43a13,13,0,0,0,1.49-.66,2.45,2.45,0,0,1,.89-.15,7.53,7.53,0,0,0,2.29-.16c-.63-.19-1.27-.37-1.89-.59a5.59,5.59,0,0,1-.82-.47c.23-.23.42-.55.7-.66,1.53-.58,5.63-.58,5.64-.7l-2.82-.39A4.15,4.15,0,0,1,630.33,472.16Zm-19.57,12.4c-.82-1.57-.49-2.64,1.17-3.11a.92.92,0,0,1,.71.19c1.05.85,2.1,1.68,3.06,2.62a2,2,0,0,1,.47,1.35c0,2.34-.08,4.67-.25,7a14.25,14.25,0,0,1-.78,2.76c-.64-1.9-1.15-3.65-1.84-5.34C612.55,488.17,611.69,486.34,610.76,484.56Zm1.23,4.21a39.05,39.05,0,0,1-3.49-5.21A43.15,43.15,0,0,1,612,488.77Zm4.61-16a38.22,38.22,0,0,1,1.95-5.93A33.9,33.9,0,0,1,616.6,472.74Zm9.19-18c3.39-1.86,5.45-2,7.52-1.39l-3.52,4.07c1.13-.81,2.27-1.64,3.42-2.44a11.25,11.25,0,0,1,1.35-.7c-.47,5.85-2,10.8-7.12,14a2.88,2.88,0,0,0,1.3-.4c.4-.26.77-.55,1.24-.87-.17,2-4.17,4.07-8.09,5.31,1-1.31,1.75-2.57,2.7-3.69a31.08,31.08,0,0,0,2.71-3.58c-1.57,1.44-4.86,4.18-5,4.18l5.36-9.31c-.77.91-6.8,9.29-6.95,9.29a37.1,37.1,0,0,0,2.26-5.56c-1.36,1.42-2,3.38-3.24,5-.11-1.46.19-3-1.3-3.86A14.84,14.84,0,0,1,625.79,454.75ZM605.58,457c.31,2.22.61,4.31.9,6.4.09,0,0-4.29-.06-5.88a12.06,12.06,0,0,1,3-8.4,12.86,12.86,0,0,1,3-2.28,3.57,3.57,0,0,0-.1,1.67c0-.15,0-.34.14-.45.42-.45.87-1.24,1.29-1.23s1.08.65,1.5,1.13.76,1.18,1.29,1.7c-.2-.53-.4-1.07-.61-1.6l.28-.22a23.07,23.07,0,0,1,2.55,2.59,18,18,0,0,1,2.1,3.82,3.64,3.64,0,0,1-.39,3.53,17.17,17.17,0,0,0-1.69,3.34,32.87,32.87,0,0,0-.95,3.46c-.41-.26-.39-.26-.3-1.78a7.79,7.79,0,0,0-.16-2.19q-.74,4.77-1.49,9.54l-.39,0c-.65-1.83.89-3.64.12-5.57-.68,1.41-1.36,2.82-2.19,4.56-.11-1-.16-1.65-.25-2.31-.13-.95-.28-1.9-.41-2.85a1.6,1.6,0,0,1,0-.69c.48-1.38.06-1.91-1.66-1.7.59,2.3,1.15,4.52,1.71,6.74l-.39.16c-.39-.7-.8-1.4-1.17-2.11a2.32,2.32,0,0,0-3.3-1.09c-.81.47-.55,1.23-.21,1.85,1.14,2,2.31,4.05,3.46,6.05C607.47,471.16,603.54,459.74,605.58,457Zm5.74,13.51a34.93,34.93,0,0,1-1.89-4.36A9.3,9.3,0,0,1,611.32,470.53Zm-20-14.34a24.43,24.43,0,0,1,8.81.58,5.08,5.08,0,0,1,3.88,4.78c.1,1,.22,1.92.37,3.17-1.32-1.24-2.46-2.29-3.6-3.35a84.78,84.78,0,0,0,5.71,6.8,4.83,4.83,0,0,1-2.26-1.14,56.73,56.73,0,0,0-11-8.22c-.71-.44-1.42-.87-2.09-1.36a1.14,1.14,0,0,1-.47-.79C590.65,456.5,591.08,456.21,591.33,456.19Zm-.73,7.42c-.41-1.55-.9-3.08-1.29-4.64a7.88,7.88,0,0,1,0-1.73c1.44.88,2.57,1.56,3.69,2.26,1.88,1.16,3.84,2.21,5.59,3.54s3.53,3.1,5.26,4.69c.16.15.14.51.2.76l-.33.19,1.86,1.66c-.29,0-4.42-1.86-6.4-1.57-1.17.17-2.29.65-3.45.87a2,2,0,0,1-1.49-.24A11.07,11.07,0,0,1,590.6,463.61Zm.11,8.11a.75.75,0,0,1,.21.26c.14.29.27.59.4.88-.38-.05-.9.05-1.12-.16a15,15,0,0,1-2.59-3.48Zm1.8,14c-.24.42-.62.66-1,0-1.32-2.15-3-4.14-4-6.42a56.63,56.63,0,0,1-2.21-7.38,19.16,19.16,0,0,0,1,6c.82,2.93,4.56,8.17,4.46,8.61a52.88,52.88,0,0,1-3.42-4.73,22.41,22.41,0,0,1-2.57-5.78,15.19,15.19,0,0,1,.22-5.36c.12-.86.86-.88,1.46-.2a8.78,8.78,0,0,1,2.49,5.15c.22,1.95,1.38,3.8,2.19,5.68.47,1.11,1.11,2.15,1.57,3.26A1.59,1.59,0,0,1,592.51,485.73Zm1.35-.18q-1.32-2.55-2.62-5.12C593.11,481.63,594,485.51,593.86,485.55Zm-1.62-10.73a4.92,4.92,0,0,1,2-2.9c1.79-1.17,3.7-2,5.86-1.64a7.91,7.91,0,0,1,5.12,3.18l-4.73-1.13a3.37,3.37,0,0,1-.1.34l6.47,2L599.38,476v.11h8.2c0,.2,0,.39.08.58-.69.13-1.37.27-2.06.39a7.5,7.5,0,0,0-2.14.55c3,.23,6-1.08,9.13.71a11.75,11.75,0,0,1-2.29,1.4c-2.84.91-5.69,1.82-8.77,1.16-1.94-.41-3.93-.55-5.88-.9A4,4,0,0,1,592.24,474.82Zm6.21,19.61a17.69,17.69,0,0,1,3.72,1.8A17.69,17.69,0,0,1,598.45,494.43Zm-1.32-4.53a31.19,31.19,0,0,1-1.52-4.92c-.19-.66-.29-1.34-.47-2s.18-1.43.94-1.28c1.7.35,3.16.86,3.24,3.13a18.07,18.07,0,0,0,.55,4.35,17.05,17.05,0,0,0,1.75,3.32c.38.69.77,1.36,1.16,2A9.62,9.62,0,0,1,597.13,489.9Zm3-7.36c1,2.13,1.85,4,2.74,6C601.34,487.8,599.79,484.28,600.18,482.54Zm2.94,9.91,1.64,3.43C603.56,495.85,602.73,494.24,603.12,492.45Zm1.9-.19a78.22,78.22,0,0,1-.46-8.61A29.65,29.65,0,0,1,605,492.26Zm5.65,9.62a42.37,42.37,0,0,1-3-3.86,7.1,7.1,0,0,1-1.07-4.79,31.53,31.53,0,0,0-.19-5.9c-.1-1.31-.4-2.61-.56-3.92,0-.19.25-.59.39-.59a1,1,0,0,1,.71.37c.92,1.59,1.73,3.25,2.72,4.79a23.15,23.15,0,0,1,3.28,6.41,31.81,31.81,0,0,1,.54,3.67l-.34.17-1.83-1.74a37.84,37.84,0,0,0,.39,6.27A8.52,8.52,0,0,1,610.67,501.88Zm3,1.68a19.92,19.92,0,0,1-1.47-4.09C613.21,500,613.9,502.31,613.68,503.56Zm3.08-3.95c-.47,1.38-1,2.76-1.49,4.32A3.08,3.08,0,0,1,616.76,499.61Zm3.67,11.95a12.42,12.42,0,0,1,1.89-2.47A11.82,11.82,0,0,1,620.43,511.56Zm9.49-16.49a30.79,30.79,0,0,1,3.1-4.95A32.08,32.08,0,0,1,629.92,495.07Zm7.56-16.54c.52.93-3.28,8.66-3.37,8.61Zm6.63,6.42c-1.76,1.23-5.59,3.32-5.74,3.14.65-.62,1.28-1.29,2-1.86S643.63,484.18,644.11,485Zm7.06-14,7.15-6.83a12.45,12.45,0,0,0-3.34,2.05,18.67,18.67,0,0,1-6.25,4c-.64.24-1.08,1.07-1.57,1.66a8.36,8.36,0,0,0-.67,1.07,8.75,8.75,0,0,1,1.26-3.08c1.6-2.33,3.13-4.72,4.91-6.91a7.76,7.76,0,0,1,5.87-2.87l0,0,1.24-.62C660.13,463.38,655.8,469.82,651.17,471ZM571,544.67c0,.1,0,.21,0,.32C571,544.79,571,544.67,571,544.67Z"/><path class="cls-5" d="M234.21,139.78c-3.33,99.62-29.92,108-99.83,108.87,63.52,1.42,93.1,11.24,98.86,81.42,0,.67.11,1.35.15,2q.63,8.37.82,17.88.19-9.39.8-17.65c.05-.66.1-1.32.16-2,5.7-70.45,35.27-80.29,98.88-81.72C264.14,247.78,237.55,239.4,234.21,139.78Zm15.68,124.1,2.9,4-3.52-3.35-12.66-12.06L236,270.28l-1.53,43.58-.12,3.51-.13-3.51-1.52-43.57-.63-17.86L219.29,264.6l-3.4,3.24,2.79-3.82,9.62-13.15-16.24-.67-37.49-1.55,37.44-2,15.7-.83-10-12.69-2.6-3.31,3.37,2.51,13.4,10,.67-16.41,1.65-40.74.13-3,.12,3,1.66,40.75.67,16.4L250,232.44l3.51-2.61-2.72,3.46L241,245.83l15.45.82,37.72,2-37.77,1.56-16,.66Z"/><polygon class="cls-6" points="240.37 250.87 252.79 267.84 236.61 252.43 234.46 313.86 234.34 317.37 234.21 313.86 232.06 252.43 215.89 267.84 228.3 250.87 174.56 248.65 227.71 245.83 215.12 229.83 231.89 242.32 234.21 185.16 234.34 182.12 234.46 185.16 236.79 242.32 253.55 229.83 240.97 245.83 294.13 248.65 240.37 250.87"/><path class="cls-7" d="M341.57,491l-.93,4.33H333c0-2.78,0-5.63,0-8.75h4.5l.4,2.95h1.29v-7.15h-1.29l-.43,3H333c0-2.89,0-5.65,0-8.36h7l.93,4.2h1.5l-.09-5.44H326.9v1l2.79.31c.05,2.76.05,5.57.05,8.33v1.44c0,2.81,0,5.6-.05,8.33l-2.79.31v1H343l.09-5.57Z"/><path class="cls-7" d="M378.66,475.78v1.1l2.92.34-4.92,15.48-5.35-15.53,3-.29v-1.1h-8.78v1l2.25.25L375,496.7h1.6l6.56-19.56,2.57-.4v-1Z"/><path class="cls-7" d="M423.35,491l-.93,4.33h-7.6c0-2.78,0-5.63,0-8.75h4.51l.39,2.95H421v-7.15h-1.3l-.42,3h-4.48c0-2.89,0-5.65,0-8.36h7l.93,4.2h1.49l-.08-5.44H408.68v1l2.79.31c.06,2.76.06,5.57.06,8.33v1.44c0,2.81,0,5.6-.06,8.33l-2.79.31v1h16.08l.08-5.57Z"/><path class="cls-7" d="M461.6,475.78v1l3.46.42.06,14.22-11.26-15.66h-5.27v1l2.17.28.4.51L451,495.12l-2.59.4v1h7.43v-1l-3.43-.42-.08-15.8,12.52,17.4h1.47l.08-19.51,2.59-.39v-1Z"/><path class="cls-7" d="M509.7,475.78H492.39l-.23,5.64h1.52l1-4.4h4.62c.08,2.82.08,5.63.08,8.42v1.44c0,2.81,0,5.6-.08,8.33l-3.1.31v1h9.6v-1l-3.1-.31c-.05-2.79-.05-5.58-.05-8.33v-1.44c0-2.87,0-5.66.05-8.42h4.62l1,4.4h1.52Z"/><path class="cls-7" d="M541.22,484.68l-1.27-.56c-2.17-.88-3.38-2-3.38-4,0-2.34,1.75-3.55,4.25-3.55a4.71,4.71,0,0,1,2.37.54l.95,3.94h1.58l.17-4.17a8.58,8.58,0,0,0-5.18-1.63c-4.05,0-7.07,2.08-7.07,5.74,0,3.12,2.06,4.93,5.41,6.33l1.21.54c2.67,1,3.72,2.05,3.72,4,0,2.45-1.89,3.81-4.82,3.81A6.35,6.35,0,0,1,536,495l-1-4.11h-1.55l-.16,4.48a12.08,12.08,0,0,0,6.11,1.66c4.56,0,7.51-2.34,7.51-6C546.93,488.12,545.38,486.37,541.22,484.68Z"/><circle class="cls-8" cx="234.21" cy="248.09" r="22.26"/><path class="cls-9" d="M582.16,355.76a19.12,19.12,0,0,0,6.92-2.27,8.47,8.47,0,0,0,3.7-5.22c.59-2.31.77-4.73,1.15-7.1a7.84,7.84,0,0,1,.36-1.23c.11,0,.86,4,1.25,6,1,5,2.33,8,8.7,9.19a30.11,30.11,0,0,1,5.11,1.24c-.43.1-.85.23-1.28.29a25.26,25.26,0,0,0-8,2.46,7.23,7.23,0,0,0-3.84,5c-.61,2.55-1.69,8.11-1.85,8.47-.21-.35-1.09-5.08-1.55-7.25-.72-3.39-2.3-6.14-6-7.05-2.33-.58-4.69-1.06-7-1.58l-.89-.18A24.73,24.73,0,0,1,582.16,355.76Z"/><path class="cls-7" d="M458,381.1a5.87,5.87,0,0,1-7.48,6.87c-2.31-.57-4.73-3.84-4.46-6.07.33-2.82,1.62-4.81,4.47-5.67A6.35,6.35,0,0,1,458,381.1Z"/><path class="cls-7" d="M256.62,375.41l-1.24,1c.83-.63,1.66-1.27,2.5-1.88C257.45,374.79,257,375.1,256.62,375.41Zm-.24-38.53h-.06a6.4,6.4,0,0,0,0,.87c-.05.06,0,.16,0,.22l0,.16a18.77,18.77,0,0,0,.39,2.57A23.48,23.48,0,0,1,256.38,336.88Z"/><path class="cls-7" d="M257.07,342c0-.06-.05-.13-.08-.19a4,4,0,0,0,.16.57Zm-4.38,25.19c-.88.43-1.74.93-2.62,1.42,1.36-.71,2.72-1.47,4.14-2.13C253.67,366.7,253.18,367,252.69,367.19Zm-9.92,5.67.06.05c.34-.21.67-.43,1-.65A6.67,6.67,0,0,0,242.77,372.86Z"/><path class="cls-7" d="M233.24,330.07l-5.44-.83-3.52-.59-1.76-.28c-11-1-21.56-.55-31.47,2.35-7.64,2.28-14.73,5.34-20.77,9.87-9.9,7.41-18.08,16.4-22.21,28.72a44.94,44.94,0,0,0-2.51,17A29.13,29.13,0,0,0,151.87,403a24.07,24.07,0,0,0,14.36,9.05,3.36,3.36,0,0,0,4-1.75,17.27,17.27,0,0,1-11.1-3.21c-5.15-3.65-7.59-8.56-9.09-13.85a29.44,29.44,0,0,1-1-7.56,45.49,45.49,0,0,1,1.31-11,52,52,0,0,1,13-22.62,68.85,68.85,0,0,1,36.43-20.5,77.11,77.11,0,0,1,27.45-.38l6.23.9,1.62.23c.05-.66.1-1.32.16-2Z"/><path class="cls-7" d="M649,413.36a18.79,18.79,0,0,0-10.79-6.1,27.17,27.17,0,0,0-15,1.69,36.11,36.11,0,0,0-10.44,6.71c-4.54,4-8.76,8.34-13,12.65-3.31,3.38-6.34,7-11,8.88-2.6,1-5.24.93-5.87-3.21a21.13,21.13,0,0,1-.06-7.09c.49-2.4.8-4.85,1.4-7.2.7-2.89,1.51-5.72,2.39-8.5s1.76-5.4,2.66-8.07c1.26-3.33,2.56-6.65,3.81-10l3.84-10.3c.29-.87.44-1.86.7-2.84h-7.74a3.2,3.2,0,0,0-3.2,2c-.81,1.9-1.51,3.81-2.22,5.72-1.39,3.65-2.78,7.31-4.11,11-1.17,3.17-2.17,6.43-3.28,9.66a83.48,83.48,0,0,1-3,9.21,112.36,112.36,0,0,1-11.28,19.62,14.5,14.5,0,0,1-5.54,5,3.34,3.34,0,0,1-4.13-1.36,11.52,11.52,0,0,1-1.49-2.89c-.63-2.46-1.26-5-1.66-7.42-.48-3.27-.63-6.49-1-9.76-.25-2-.71-4-1-6a1.74,1.74,0,0,1,.16-1.19c2.22-4.09,4.37-8.24,6.71-12.28s4.66-8.12,8.34-11.12c2-1.63,3.92-3.76,7.69-2.06.43.16,1.39-.18,1.42-.5a2.16,2.16,0,0,0-1.11-2.67,7,7,0,0,0-3.53-.65,11.07,11.07,0,0,0-6.64,3.59,41.11,41.11,0,0,0-6.79,9.11c-1.82,3.44-3.9,6.7-5.85,10-.36.6-.72,1.15-1.09,1.69-.65-3.05-1.15-5.94-2.79-8.84-2.89-5.18-7.81-6.65-11.88-4.9a12.58,12.58,0,0,0-6.17,6.1c-1.88,3.44-3.55,7-5.18,10.64-2.14,4.64-4.28,9.32-6.24,14.07a84.48,84.48,0,0,1-7,13.9c-1.44,2.23-2.77,4.53-5.26,5.77a3.93,3.93,0,0,1-2.85.39c-1-.27-1.42-1.42-1.61-2.46-.59-3.54.34-6.59,1.27-9.64,1.16-3.71,2.45-7.31,3.74-11s2.65-7.19,3.77-10.85c1-3.05,1.71-6.26.65-9.86-1.66-5.78-6.49-7.64-11.24-6.22-3,.93-5,3.06-7.05,5.13a76.17,76.17,0,0,0-11.53,16.4c-.27.5-.66.93-1,1.43a55.12,55.12,0,0,1,1.9-7.36c1.18-4.09,1.89-7.29,3.52-12.38.45-1.41-.24-2-1.76-2a46.41,46.41,0,0,1-4.71-.05,2.36,2.36,0,0,0-2.74,1.81,77.45,77.45,0,0,1-7.22,14.77c-2.72,4.3-5.23,8.72-7.89,13.08-3.55,5.84-7.17,11.67-12.19,16.36-1.21,1.15-2.53,2.28-4.62,2.17a2,2,0,0,1-1.78-1.09c-1.26-1.68-1-3.32-.85-4.84a51.68,51.68,0,0,1,1.38-7.69c.89-3.5,1.91-6.87,3-10.26,1.39-3.92,2.89-7.78,4.4-11.66,1.43-3.71,3-7.36,4.47-11.07a1.13,1.13,0,0,0,.12-.51,1.14,1.14,0,0,0-.9-1.13,1.64,1.64,0,0,0-.37-.05c-2.34,0-4.74,0-7.09.22a2.41,2.41,0,0,0-1.89,1.25c-1.88,4.37-3.63,8.84-5.46,13.2-1.33,3.22-2.47,6.54-4.06,9.54-2.55,4.58-5.27,9.1-8.18,13.46-3.08,4.64-6.33,9.22-11.76,11.67-1.19.49-2.34,1-3.84-.11a5.51,5.51,0,0,1-2-4.14c.26-2.18.38-4.47.82-6.6a58.16,58.16,0,0,1,1.81-7.47c1-3.21,2.14-6.32,3.28-9.43,1.06-2.94,2.2-5.83,3.37-8.77,1.07-2.74,2.18-5.44,3.34-8.26a1.18,1.18,0,0,0-.92-1.61,27.62,27.62,0,0,0-2.91-.28c-2.49-.16-5-.32-5.92,2a22.09,22.09,0,0,0-2.41-4.26,8.79,8.79,0,0,0-9-3,33.48,33.48,0,0,0-9.09,3.39,30.07,30.07,0,0,0-9.06,7.73,57.85,57.85,0,0,0-10.45,19.47c-1.36,4.25-2.36,8.67-4.54,12.42-3,5.29-5.81,10.74-9,15.93-1.74,2.83-3.65,5.67-7,7-1.63.71-2.69.17-3.49-1.69-.93-2.12-2.74-7.3-1.42-18.86.37-3.24,1-6.39,1.61-9.6.38-2.34.71-4.69,1.22-7,.76-3.33,1.52-6.66,2.45-9.93a13.69,13.69,0,0,1,1.89-4.58c5.72-7.08,11.71-14,17.32-21.1a214,214,0,0,0,20.75-31.23c3.72-7,7.27-14.13,8.87-22.25.6-3.11.92-6.22-.64-9.65a7,7,0,0,0-5.81-4.14c-4-.17-6.69,1.74-9.2,3.81a51.74,51.74,0,0,0-10.08,10.91c-2.69,3.92-5.33,7.85-7.77,11.94-1.94,3.16-3.71,6.53-5.39,9.92-1.84,3.81-3.57,7.69-5.29,11.56-1.14,2.62-2.23,5.23-3.2,7.9-1.14,3.05-2.23,6.16-3.25,9.27-1.29,3.65-2.55,7.36-3.71,11.07-.92,2.89-1.73,5.77-2.48,8.66-.85,3.17-1.64,6.33-2.51,9.43a27.77,27.77,0,0,1-1.6,5.57c-.48,1-1,1.91-1.58,2.84l-.24.37-17.95,24.76-14,19.35c-3.45,5.13-7.77,9.55-11.8,14.29-11.61,13.64-30.51,17.82-35.73,18.37a34.29,34.29,0,0,1-12.72-1.31,32.82,32.82,0,0,1-12.2-6.32c-7.24-5.84-11.08-13.25-13.72-21.16-.44-1.41-.72-2.89-1-4.3a66.43,66.43,0,0,1-1.52-13.41,52.42,52.42,0,0,1,.19-7.21c.55-3.76,1.21-7.51,2.07-11.12a94.8,94.8,0,0,1,3.4-11.94,96,96,0,0,1,8.13-16.79,97.92,97.92,0,0,1,15.11-19.51c3.43-3.33,6.88-6.6,10.6-9.6l.34-.28-.42.32c.93-.75,1.87-1.48,2.82-2.18.42-.31.83-.62,1.26-.92l.61-.44c.38-.28.77-.55,1.16-.81,2-1.42,4-2.73,6.06-4,.91-.54,1.82-1.08,2.8-1.58,2.81-1.47,5.78-2.78,8.69-4.14a2.73,2.73,0,0,1,.64-.27.26.26,0,0,1,.25-.11,3.87,3.87,0,0,1,2.48-.38c.1,0,.17.05.29.05a52.29,52.29,0,0,0,11.07,1.69,13.7,13.7,0,0,0,7-1.06.76.76,0,0,0,.18-.09c2.16-1.48.09-3.87-.67-4.3a18.82,18.82,0,0,0-11.34-2.13c-2.18.22-4.3.5-6.4.87-2.46.44-4.63-.71-6.76-2.18a16.38,16.38,0,0,1-6.73-10v0l-.06-.28a29.45,29.45,0,0,1-.64-3.7,2.9,2.9,0,0,1,.27-2.13c.4-.65,1.25-.75,2.59-.59,9.57,1.31,18.84,1.52,27.73-.11a74,74,0,0,0,19.08-5.89c8.28-4,15.4-9.33,20.77-16.52,3.42-4.58,5.77-9.77,5.57-16-.23-7.85-5.79-13.74-14.25-15a52.78,52.78,0,0,0-15.27,0c-7.35,1-13.87,3.65-20.22,6.87-8.65,4.3-16.46,9.48-22.94,16.35s-12,14.13-13.25,24.32c-.19,1.09-.92,1.68-2.41,1.36-5.57-1.2-11.09-2.24-16.69-3.54l-2.28-.35c-.06.65-.11,1.31-.16,2h0a12.07,12.07,0,0,1,1.43.28c6.76,1.41,13.14,2.83,19.84,4.25h.06a23.48,23.48,0,0,0,.35,3.82c0,.18.06.35.11.54s.06.26.1.38,0,.13.05.19.05.13.08.19l.08.38c.11.44.27.88.35,1.26a15.48,15.48,0,0,0,1.55,3.65,26.62,26.62,0,0,0,7.73,8.45c1.78,1.31,3.72,2.4,5.7,3.65-1.4.55-2.17.77-3,1.1s-1.41.54-2.16.81l-.27.11a3.81,3.81,0,0,0-.54.17,83.55,83.55,0,0,0-9.94,3.7c-.78.39-1.62.77-2.4,1.2-1.42.66-2.78,1.42-4.14,2.13-2.13,1.14-4.19,2.4-6.25,3.65-.32.22-.65.44-1,.65a92.27,92.27,0,0,0-11.1,8.13,139.24,139.24,0,0,0-11.24,11.29A64.24,64.24,0,0,0,210.73,406c-1.85,3.55-3.66,7.08-5.2,10.79a115.93,115.93,0,0,0-3.71,11.07,70.67,70.67,0,0,0-1.63,8.29c-.46,2.94-.74,6-1,9a32.64,32.64,0,0,0,.19,5.29c.28,3.33.44,6.66,1,10a53.21,53.21,0,0,0,4.88,15,38.94,38.94,0,0,0,3.39,5.72c2,2.62,4.12,5.07,6.26,7.53a40.48,40.48,0,0,0,9,7.35,59.83,59.83,0,0,0,10.94,5.41,53.34,53.34,0,0,0,12.53,2.78,41,41,0,0,0,16-1.31,68.78,68.78,0,0,0,7.71-2.51,76.06,76.06,0,0,0,10.33-5.29,75.79,75.79,0,0,0,13.71-11.94c6.34-6.81,11.56-14.45,16.74-22.19,3.62-5.34,7.35-10.68,11-16,3.4-4.9,6.81-9.76,10.19-14.67.94-1.36,1.86-2.83,2.94-4.52.15.65-.3,4.36-.4,6-.31,3.16-.69,6.32-.74,9.54-.11,6.44,1.25,13.47,3.57,16.9,3.2,4.64,8.85,6.43,12.76,3.55a22.83,22.83,0,0,0,6.17-6.82c2.35-4,4.59-8,6.81-12.05,1.08-2,2-4.08,2.94-6.16.39,1,.16,1.86.51,2.67a34.5,34.5,0,0,0,3.28,7.09,8.93,8.93,0,0,0,7.21,4.08,9.62,9.62,0,0,0,6.15-1.9c4.56-3.16,7.82-7.47,10.61-12.16,1.3-2.18,2.53-4.36,3.78-6.54a1.55,1.55,0,0,1,.4,1.31c-.76,5-.28,9.38,1.39,12.59,1.54,2.9,4.8,5.46,7.93,5.78a10.15,10.15,0,0,0,7.84-2.61c5.1-4.36,8.84-9.93,12.25-15.71.86-1.47,1.79-2.89,2.65-4.3a6.55,6.55,0,0,1,.08,2.23c-.16,2.13-.26,4.31-.4,6.49a12.67,12.67,0,0,0,2.28,8.51,8.76,8.76,0,0,0,4.1,3.1,9.1,9.1,0,0,0,8.54-1.31c3.7-2.56,6.12-6.27,8.61-9.92,2.27-3.38,4.41-6.87,6.49-10.36,1.75-2.76,7.84-12.15,8.1-12.15-3.41,10.95-6.89,21.91-10.42,33h7.36c2.45,0,2.61-2.62,2.82-3.17,1.31-3.48,2.52-7,3.91-10.42a80.42,80.42,0,0,1,4.11-9.59,140.93,140.93,0,0,1,8-13c2.5-3.54,4.87-7.24,8.34-9.92a9,9,0,0,1,5.15-2.23c1.37,0,2,.49,2.16,1.8a9.75,9.75,0,0,1-.34,3.21c-.85,2.73-1.74,5.46-2.71,8.13-1.26,3.49-2.67,6.86-3.89,10.3-.82,2.35-1.47,4.74-2.11,7.14a39.37,39.37,0,0,0-.81,8.07,14.39,14.39,0,0,0,2.29,7.58,9.25,9.25,0,0,0,3.17,2.84,7.64,7.64,0,0,0,8.55-.49c3.51-2.51,5.79-6.11,7.58-9.93,3.12-6.54,5.93-13.25,8.89-19.85,2-4.46,3.88-8.93,6.16-13.18a32,32,0,0,1,5.08-6.33c1.64-1.63,3.72-.66,4.42,2.12.8,3.22,1.21,6.44,1.74,9.66.43,2.83.76,5.67,1,8.45a4.47,4.47,0,0,1-.25,2.24c-2.06,3.53-4.07,7.13-6.41,10.46a234.66,234.66,0,0,1-15.09,18.92c-6.5,7.61-17,11.59-17,11.77a16.7,16.7,0,0,0,1.69.23,13.81,13.81,0,0,0,5.89-1.65,32.36,32.36,0,0,0,9.35-6.48c4-4.36,8-8.78,11.73-13.41,3.6-4.47,7.07-9.05,9.54-14.39a10.74,10.74,0,0,1,1-1.47c.63,2,.93,3.8,1.36,5.66.93,4.25,2,8.51,5.37,12.16,2.92,3.21,6.67,4.58,10.17,3.21a17.31,17.31,0,0,0,7.79-6.42,76.64,76.64,0,0,0,8.27-14c.44-1,1-1.85,1.49-2.78a28.69,28.69,0,0,1,0,4.25,16.15,16.15,0,0,0,2.22,9.37c2.32,3.93,7.49,5.73,10.87,4.81a22.21,22.21,0,0,0,10.1-6.06c3.19-3.21,6.23-6.6,9.34-9.87,4.48-4.69,9.23-9.1,15.32-12a25.92,25.92,0,0,1,12.17-3.23,17.82,17.82,0,0,1,11.5,4,17.63,17.63,0,0,1,6.57,11l.56,2.32a.52.52,0,0,0,.59.3c.52-.19.59-.54.56-1.37A19.44,19.44,0,0,0,649,413.36ZM352,400.88c1.63-5,3.09-10,4.84-14.88,2.23-6.16,4.52-12.32,7.06-18.32,2.62-6.38,5.35-12.7,8.36-18.81,2.82-5.72,5.7-11.44,9.74-16.35,2-2.51,4-5.13,6.18-7.53,1-1.09,2.22-2.18,4.37-1.58A3.48,3.48,0,0,1,395,325.7a12.55,12.55,0,0,1,.33,7.3c-.7,2.46-1.06,5.13-2,7.53a99.37,99.37,0,0,1-4.68,10.63c-1.84,3.66-3.89,7.25-6,10.8-1.65,2.78-3.41,5.56-5.31,8.17-3.92,5.67-7.86,11.29-12.05,16.75s-13.8,16.73-13.91,16.73C351.55,402.68,351.72,401.76,352,400.88Zm-63.88-40.5a8.22,8.22,0,0,1,6.18-.16s.48.16.72.27a2.48,2.48,0,0,1,.37.17c.36.18.72.39,1.06.58,0,0,.21.13,0,.18a43.94,43.94,0,0,1-6.33.16c-1.11-.06-2.28-.16-3.4-.28A4.92,4.92,0,0,1,288.08,360.38ZM267.5,334.79c2.54-8.12,9-16.44,14.89-22.23C290.79,304.33,300,297,311,291.79c4.67-2.18,9.62-3.93,15.42-3.82,9,.12,14.64,7,13.27,15.43a.21.21,0,0,1-.07.16c-1.66,9.82-7.92,16-15,21.54-6.3,4.85-13.92,8-21.92,10.14-9.07,2.51-18.89,2.73-29,2-1.24-.09-3.33-.28-4.84-.42A1.55,1.55,0,0,1,267.5,334.79ZM402,418a94.07,94.07,0,0,1-5.46,10.85A129.5,129.5,0,0,1,387.67,442a25.56,25.56,0,0,1-5.82,5c-2.19,1.42-4.49.87-5.21-2.73l-.19-.82a16.35,16.35,0,0,1,.27-9c.55-1.86.74-3.88,1.36-5.67,1.19-3.55,2.58-7,4-10.36a53.58,53.58,0,0,1,9.14-15,45.91,45.91,0,0,1,6.52-6c1.84-1.48,4.83-1,6.64.65a4.29,4.29,0,0,1,1.05,1.74,12.62,12.62,0,0,1,0,8.84A82.85,82.85,0,0,1,402,418Z"/><path class="cls-10" d="M665.48,404.94c0,.72,0,1.45,0,2.17l-.08.08C663.7,234.85,528.68,152.34,417,154.58c-44.1.89-89.62,11.15-140.9,43.45a243.8,243.8,0,0,1,144.67-47.27C556.05,150.76,670.11,258.86,665.48,404.94Z"/><path class="cls-11" d="M653.69,385.05h0c-13-145.53-125.72-218-234.39-219.7a229.78,229.78,0,0,0-66,9.14l-3,.9c-1,.29-1.92.58-2.89.89q-8.89,2.78-17.73,6.29c-8.65,3.35-17.59,7.22-26.74,11.48q7.33-4.43,14.48-8.18l.09,0a231.34,231.34,0,0,1,76.1-22.63l1.91-.22a237,237,0,0,1,25.28-1.35C546.41,161.64,648.19,260.79,653.69,385.05Z"/><path class="cls-12" d="M398.86,637.48h-.5c-89.63-8.28-165.24-64.93-200.5-143.6C227.35,553.39,298.39,623,398.86,637.48Z"/></svg>